<?xml version="1.0" standalone="no"?>
<!DOCTYPE svg PUBLIC "-//W3C//DTD SVG 1.1//EN" "http://www.w3.org/Graphics/SVG/1.1/DTD/svg11.dtd" >
<svg xmlns="http://www.w3.org/2000/svg" xmlns:xlink="http://www.w3.org/1999/xlink" version="1.1">
<metadata>
Created by FontForge 20161013 at Fri Jan  1 02:30:17 1904
 By ,,,
 
</metadata>
<defs>
<font id="Xenia-Bold" horiz-adv-x="668" >
  <font-face 
    font-family="Xenia-Bold"
    font-weight="400"
    font-stretch="normal"
    units-per-em="1000"
    panose-1="0 0 0 0 0 0 0 0 0 0"
    ascent="800"
    descent="-200"
    x-height="530"
    cap-height="700"
    bbox="-7 -375 1338 938"
    underline-thickness="50"
    underline-position="-155"
    unicode-range="U+0020-2219"
  />
<missing-glyph 
d="M47 530h267v-105h-5h-6t-6 -1q-7 -2 -13 -8t-6 -23v-276h112v276q0 22 -9.5 27t-23.5 5h-4v105h268v-105h-19q-17 0 -24.5 -6t-7.5 -26v-256q0 -23 8.5 -27.5t23.5 -4.5h19v-105h-231v-198h-112v198h-231v105h18h3.5h3.5q9 1 17.5 6.5t8.5 25.5v256q0 15 -5 23.5t-27 8.5
h-19v105v0z" />
    <glyph glyph-name=".notdef" 
d="M47 530h267v-105h-5h-6t-6 -1q-7 -2 -13 -8t-6 -23v-276h112v276q0 22 -9.5 27t-23.5 5h-4v105h268v-105h-19q-17 0 -24.5 -6t-7.5 -26v-256q0 -23 8.5 -27.5t23.5 -4.5h19v-105h-231v-198h-112v198h-231v105h18h3.5h3.5q9 1 17.5 6.5t8.5 25.5v256q0 15 -5 23.5t-27 8.5
h-19v105v0z" />
    <glyph glyph-name="glyph1" horiz-adv-x="0" 
 />
    <glyph glyph-name="glyph2" horiz-adv-x="351" 
 />
    <glyph glyph-name="glyph3" unicode=" " horiz-adv-x="351" 
 />
    <glyph glyph-name="glyph4" unicode="!" horiz-adv-x="362" 
d="M65 105q0 53 36.5 85t80.5 32q49 0 79.5 -32.5t35.5 -71.5q1 -3 1 -6.5v-6.5q0 -43 -31.5 -79t-84.5 -36q-55 0 -86 36t-31 79v0zM103 264l-43 383q0 3 -0.5 5.5t-0.5 4.5q-1 2 -1 4.5v5.5q0 37 28 42.5t74 4.5h1h2h4.5h5.5h4.5h4.5h9.5h8.5h3.5h2.5q46 1 72 -5t26 -46
v-7.5t-1 -8.5l-43 -383h-157v0z" />
    <glyph glyph-name="glyph5" unicode="&#x22;" horiz-adv-x="512" 
d="M231 700l-44 -241h-85l-44 241h173v0zM454 700l-45 -241h-84l-45 241h174v0z" />
    <glyph glyph-name="glyph6" unicode="#" horiz-adv-x="943" 
d="M448 762l-31 -177h179l31 177h126l-31 -177h163l-20 -120h-159l-35 -196h158l-22 -132h-154l-29 -172h-127l30 172h-178l-30 -172h-126l30 172h-165l24 132h159l34 196h-158l20 120h154l31 177h126v0zM580 465h-180l-34 -196h180l34 196v0z" />
    <glyph glyph-name="glyph7" unicode="$" horiz-adv-x="788" 
d="M93 198h223q1 -52 19.5 -66.5t54.5 -14.5q34 0 51 9t24 19q4 6 5 12t1 10q0 21 -20 37.5t-53 32.5q-27 13 -60.5 27t-68.5 30q-7 3 -14.5 7t-14.5 7q-49 26 -89.5 66.5t-40.5 117.5q0 108 72.5 165.5t170.5 57.5v99h102v-99q120 -3 177.5 -58t62.5 -156h-222
q1 60 -20.5 71t-53.5 11q-5 0 -12.5 -0.5t-14.5 -2.5q-14 -4 -26 -15t-12 -34q0 -37 37.5 -57t83.5 -36q2 -1 4.5 -1.5t4.5 -1.5q10 -4 19.5 -7t18.5 -7q87 -34 138.5 -77.5t51.5 -128.5q0 -18 -3 -39t-11 -42q-19 -51 -70 -94.5t-153 -52.5v-125h-102v124
q-115 0 -169.5 37.5t-73.5 83.5q-11 26 -14 50t-3 41v0z" />
    <glyph glyph-name="glyph8" unicode="%" horiz-adv-x="971" 
d="M310 -132l-97 58l423 848l98 -58l-424 -848v0zM560 143q0 16 2 37t9 43q13 44 50.5 80t115.5 36q91 0 133.5 -53.5t42.5 -142.5q0 -88 -42 -141t-134 -53q-78 0 -115 35.5t-51 78.5q-6 22 -8.5 43t-2.5 37v0zM737 247q-18 0 -25 -13t-9 -29q-1 -7 -1 -13.5v-11.5v-1.5
v-0.5v-70v-1.5v-0.5v-8v-9q1 -18 7 -33.5t27 -15.5q23 0 28.5 17t5.5 38v5v5v1.5v1.5v70v2.5v2.5v11.5t-1 13.5q-1 14 -8 26.5t-24 12.5v0zM58 524q0 16 2 37t9 43q13 44 50.5 80t115.5 36q98 0 135.5 -55t40.5 -120q1 -6 1 -11v-10q0 -103 -45 -144.5t-99 -49.5
q-8 -1 -16.5 -1.5t-16.5 -0.5q-78 0 -115.5 36t-50.5 80q-7 22 -9 43t-2 37v0zM235 627h-2.5h-3.5q-10 0 -19 -10t-9 -59v-69q0 -50 9 -59t24 -9q13 0 23.5 9.5t10.5 58.5v69q0 49 -9.5 59t-20.5 10h-1.5h-1.5v0z" />
    <glyph glyph-name="glyph9" unicode="&#x26;" horiz-adv-x="887" 
d="M576 422h231v-120h-0.5h-0.5h-0.5h-0.5q-18 0 -31.5 -8t-26.5 -21q-11 -12 -23 -28t-26 -34q-6 -8 -12 -15.5t-11 -14.5q-4 -4 -7.5 -8.5t-7.5 -8.5q-5 -7 -11.5 -14t-14.5 -15q6 -11 13.5 -19t14.5 -14q7 -4 13 -6.5t12 -2.5q5 0 11.5 1t13.5 3q8 3 16 10.5t14 20.5
l75 -70q-12 -26 -29.5 -41.5t-35.5 -21.5q-17 -7 -33 -9t-28 -2q-7 0 -49 5.5t-91 35.5q-6 4 -11.5 8t-11.5 8q-2 -1 -4 -2.5t-5 -3.5q-42 -27 -87.5 -39t-101.5 -12q-114 0 -168.5 36.5t-74.5 81.5q-10 24 -13.5 47.5t-3.5 40.5q0 21 5.5 48.5t22.5 56.5q18 33 54.5 64
t98.5 52q-30 38 -43.5 65t-15.5 51q-1 4 -1 7.5v6.5q0 70 55.5 123.5t172.5 53.5q86 0 124 -36.5t47 -80.5q2 -8 2.5 -16t0.5 -16q0 -57 -38 -96t-92 -70l-1 -8q18 -34 29.5 -54.5t21.5 -36.5q1 -3 2.5 -5t2.5 -4q10 -16 22 -34t31 -46h6q3 5 9 13.5t13 18.5q1 1 1.5 2.5
t1.5 2.5q8 13 15 24.5t7 15.5q0 1 -0.5 2t-2.5 3t-6.5 3.5t-12.5 1.5h-26v120v0zM447 119q-16 17 -49.5 59t-82.5 128q-16 -16 -28.5 -42t-12.5 -65q0 -59 32.5 -82.5t73.5 -23.5q9 0 19.5 2.5t20.5 7.5q7 3 13.5 7t13.5 9v0zM400 494h9q17 12 30 29t19 34q2 7 3.5 14
t1.5 13q0 30 -13.5 43t-31.5 13q-27 0 -43 -19.5t-16 -45.5q0 -4 0.5 -8.5t1.5 -9.5q4 -17 14.5 -34t24.5 -29v0z" />
    <glyph glyph-name="glyph10" unicode="'" horiz-adv-x="290" 
d="M232 700l-45 -241h-84l-45 241h174v0z" />
    <glyph glyph-name="glyph11" unicode="(" horiz-adv-x="469" 
d="M399 -132l-100 -115q-72 57 -119.5 122.5t-74.5 132.5q-26 62 -36.5 122t-10.5 113q0 48 15 126.5t63 162.5q27 49 67 96t96 89l100 -115q-59 -73 -96 -168t-37 -199q0 -110 36 -196.5t80 -146.5q4 -6 8.5 -12t8.5 -11v-1z" />
    <glyph glyph-name="glyph12" unicode=")" horiz-adv-x="468" 
d="M170 -247l-100 115q89 119 111 215.5t22 151.5q0 104 -38 199t-95 168l100 115q43 -34 76.5 -70t58.5 -72q74 -108 89.5 -203t15.5 -129q0 -154 -67 -279t-173 -210v-1z" />
    <glyph glyph-name="glyph13" unicode="*" horiz-adv-x="502" 
d="M210 468l-7 31l-36 11q-2 -2 -4 -5.5t-5 -7.5q-5 -6 -13 -11.5t-20 -5.5q-5 0 -10 0.5t-10 0.5q-21 3 -39.5 14t-18.5 37q0 32 12.5 56t38.5 24q30 0 54.5 -17t24.5 -48v-2.5v-3.5l35 -11l23 19v35q-22 6 -36 25t-14 41q0 26 18.5 46.5t46.5 20.5h1.5h1.5q24 -1 44 -19
t20 -48q0 -22 -14 -41.5t-37 -24.5v-36l25 -18l34 11v2v2v1v2q0 30 23.5 47t55.5 17q24 0 37.5 -24.5t13.5 -55.5q0 -25 -17.5 -36.5t-38.5 -14.5q-6 0 -11.5 -0.5t-10.5 -0.5t-11 2t-12 7q-5 4 -10.5 9t-9.5 12l-33 -11l-9 -31l21 -28q7 3 13.5 4.5t13.5 1.5q25 -1 44 -18
t19 -43q0 -4 -0.5 -8.5t-1.5 -9.5q-4 -21 -18.5 -39t-38.5 -18h-4.5t-5.5 1q-23 2 -42.5 17t-19.5 43q0 20 4.5 31.5t10.5 18.5l-18 30h-33l-21 -29q5 -6 8 -12.5t5 -12.5q2 -7 2.5 -13.5t0.5 -12.5q0 -24 -17 -39t-38 -20q-5 -1 -9.5 -1.5t-9.5 -0.5q-23 0 -40.5 22
t-17.5 53q0 26 19.5 43.5t44.5 17.5q7 0 13.5 -1.5t13.5 -4.5l20 28v0z" />
    <glyph glyph-name="glyph14" unicode="+" horiz-adv-x="635" 
d="M381 82h-127v194h-196v129h196v195h127v-195h196v-129h-196v-194v0z" />
    <glyph glyph-name="glyph15" unicode="," horiz-adv-x="373" 
d="M170 -15v4q-51 7 -81.5 43.5t-30.5 81.5v2.5v3.5q2 42 35.5 77t86.5 35t94 -38.5t41 -123.5q0 -55 -33.5 -130t-124.5 -163l-82 60q27 38 45.5 65.5t33.5 53.5q4 7 8 14.5t8 15.5v-1z" />
    <glyph glyph-name="glyph16" unicode="-" horiz-adv-x="473" 
d="M58 213v140h357v-140h-357v0z" />
    <glyph glyph-name="glyph17" unicode="." horiz-adv-x="373" 
d="M58 117v2.5v3.5q2 46 37.5 84t91.5 38h5.5h5.5q44 -4 80.5 -38t36.5 -90q0 -50 -35 -88.5t-93 -38.5t-93.5 39t-35.5 88v0z" />
    <glyph glyph-name="glyph18" unicode="/" horiz-adv-x="645" 
d="M186 -210l-128 69l402 880l127 -70l-401 -879v0z" />
    <glyph glyph-name="glyph19" unicode="0" horiz-adv-x="622" 
d="M311 717q80 0 138 -35.5t93 -91.5q19 -30 32 -65.5t20 -72.5q6 -26 8.5 -52t2.5 -50q0 -72 -12 -123t-27 -83q-5 -12 -10 -21.5t-10 -16.5q-6 -10 -16 -22.5t-23 -25.5q-29 -28 -77 -51t-119 -23t-119 23t-77 51q-13 13 -23 25.5t-16 22.5q-22 34 -36 82t-19 99
q-2 16 -3 32t-1 31q0 8 4 61.5t28 116.5q6 16 13.5 31.5t17.5 30.5q35 56 93.5 91.5t137.5 35.5v0zM311 122q29 0 45 36.5t16 142.5v72q0 151 -18.5 178t-42.5 27t-42.5 -27t-18.5 -178v-72q0 -106 16 -142.5t45 -36.5v0z" />
    <glyph glyph-name="glyph20" unicode="1" horiz-adv-x="622" 
d="M158 0v129h33q24 0 29.5 8.5t5.5 19.5v6v6v255h-79v122q10 5 21 11t22 14q31 21 59 52.5t45 76.5h141v-531v-0.5v-1.5q0 -16 4.5 -27t31.5 -11h28v-129h-341v0z" />
    <glyph glyph-name="glyph21" unicode="2" horiz-adv-x="622" 
d="M25 0v145q164 93 241 183.5t77 167.5q0 7 -0.5 15t-1.5 16q-4 19 -15 34.5t-35 15.5q-26 0 -42.5 -21.5t-21.5 -105.5h-199q5 101 65 184t224 83q122 0 190.5 -62t68.5 -146q0 -26 -6 -52.5t-18 -54.5q-32 -73 -105.5 -142t-184.5 -112l-1 -7h135q23 0 33 7t18 22l7 14
t8 17h129l-28 -201h-538v0z" />
    <glyph glyph-name="glyph22" unicode="3" horiz-adv-x="622" 
d="M238 491h-196q1 18 7 45t21 56q24 47 82 86t172 39q111 0 164.5 -38t71.5 -84q6 -16 8.5 -31.5t2.5 -29.5q0 -62 -36 -102.5t-89 -51.5v-5q2 0 4 -0.5t4 -1.5q51 -11 93 -52.5t42 -130.5q0 -91 -49 -134.5t-107 -58.5q-30 -8 -58 -10.5t-50 -2.5q-128 0 -189.5 45.5
t-84.5 100.5q-11 28 -14.5 54t-3.5 47h191q1 -42 13.5 -74.5t58.5 -32.5q36 0 49 23.5t14 56.5v3.5v3.5v3.5v3.5v3.5v2.5q-2 33 -17.5 48.5t-33.5 20.5q-9 3 -17.5 4t-15.5 1h-50v140h61q6 0 12 0.5t13 2.5q18 4 33.5 19t15.5 51q0 33 -11.5 46.5t-25.5 17.5q-5 1 -10.5 1.5
t-9.5 0.5q-31 0 -45.5 -16.5t-18.5 -35.5q-1 -6 -1.5 -12t-0.5 -11v-2.5t1 -2.5v-3v-3v0z" />
    <glyph glyph-name="glyph23" unicode="4" horiz-adv-x="622" 
d="M596 0h-343v129h30h0.5h0.5h5.5h5.5q9 1 17 7t8 24v19h-327v137l384 384h152v-393h72v-128h-72v-19q0 -20 8.5 -25.5t18.5 -5.5h4h3h1.5h1.5h30v-129v0zM320 453l-142 -146h142v146v0z" />
    <glyph glyph-name="glyph24" unicode="5" horiz-adv-x="622" 
d="M30 222h192v-2.5v-3.5q0 -42 13.5 -61.5t29.5 -25.5q7 -3 13.5 -4t12.5 -1q30 0 45 21t20 47q2 7 2.5 15t0.5 15v25q0 59 -44.5 74.5t-107.5 15.5q-13 0 -29 -0.5t-33 -2.5q-18 -1 -35 -2.5t-30 -3.5l24 372h417v-134q-3 -2 -12 -7t-23 -11q-19 -7 -46.5 -13t-64.5 -6
q-22 0 -48 3t-55 10l-7 -82q10 1 22.5 2t24.5 2h8.5h8.5q113 0 168 -40.5t76 -88.5q11 -27 15 -52t4 -44q0 -18 -2.5 -37.5t-8.5 -39.5q-19 -67 -80.5 -122.5t-183.5 -55.5q-169 0 -227 73.5t-60 161.5v1.5v1.5v0z" />
    <glyph glyph-name="glyph25" unicode="6" horiz-adv-x="622" 
d="M248 437v-22l11 5.5t17 7.5q16 6 40 10.5t56 4.5q113 0 164.5 -68.5t51.5 -151.5q0 -95 -68.5 -167t-195.5 -72q-151 0 -220.5 95t-69.5 243q0 167 47 248.5t104 113.5q42 24 80 28.5t57 4.5q22 0 49.5 -2.5t55.5 -13.5q47 -16 89.5 -61t60.5 -138h-194v6t-1 6
q-3 23 -18.5 43t-44.5 20q-45 0 -58 -43t-13 -97v0zM324 124q40 0 47.5 30t7.5 66v1.5v1.5q0 39 -9 64t-46 25q-41 0 -53.5 -24t-12.5 -65t11.5 -70t54.5 -29v0z" />
    <glyph glyph-name="glyph26" unicode="7" horiz-adv-x="622" 
d="M571 700v-134q-126 -186 -154.5 -284t-37.5 -178q-1 -4 -1.5 -7.5t-0.5 -7.5q-2 -15 -3 -27l-2 -24v-7v-8v-10.5t1 -12.5h-235q1 24 5 49t10 50q9 40 22.5 79t27.5 73q7 16 13.5 30t12.5 27q21 42 49.5 90.5t65.5 97.5q12 16 24.5 32t26.5 31h-132q-33 0 -49.5 -14.5
t-21.5 -66.5h-119v222h498v0z" />
    <glyph glyph-name="glyph27" unicode="8" horiz-adv-x="622" 
d="M311 717q112 0 167.5 -34t77.5 -74q13 -24 17 -46t4 -38q0 -6 -0.5 -11.5t-1.5 -11.5q-6 -40 -36.5 -76.5t-87.5 -52.5v-4q69 -16 106.5 -69t37.5 -118q0 -16 -3 -34.5t-11 -37.5q-20 -47 -80.5 -86.5t-189.5 -39.5t-189.5 39.5t-80.5 86.5q-8 19 -11 37.5t-3 34.5
q0 65 37.5 118t106.5 69v4q-57 16 -87.5 52.5t-36.5 76.5q-1 6 -1.5 11.5t-0.5 11.5q0 16 4 38t17 46q22 40 77.5 74t167.5 34v0zM311 297q-5 0 -11.5 -1t-12.5 -3q-14 -6 -25.5 -24.5t-11.5 -59.5t12.5 -63.5t48.5 -22.5q40 0 50 26t10 60v0.5v0.5q0 5 -0.5 17t-4.5 25
q-5 17 -17.5 31t-37.5 14v0zM311 438q27 0 39 13.5t15 29.5q2 9 2.5 17t0.5 14q0 31 -9 46.5t-20 21.5q-9 5 -17 6t-11 1q-4 0 -11.5 -1t-16.5 -5q-11 -6 -20.5 -21.5t-9.5 -47.5q0 -36 11.5 -51.5t25.5 -19.5q6 -2 11 -2.5t10 -0.5v0z" />
    <glyph glyph-name="glyph28" unicode="9" horiz-adv-x="622" 
d="M373 263v22q-4 -2 -10 -5.5t-16 -6.5q-15 -6 -39 -11t-58 -5q-97 0 -156.5 59.5t-59.5 157.5q0 119 79.5 181t183.5 62h8h9q102 -4 187.5 -74t85.5 -265q0 -163 -46.5 -245t-101.5 -114q-44 -25 -83 -30t-56 -5q-127 0 -188 66t-63 149h189v-6t1 -6q3 -23 18.5 -43
t44.5 -20q40 0 54 30.5t16 67.5q1 11 1 21v20v0zM302 577q-39 0 -49.5 -28t-11.5 -62v-4.5v-5.5q0 -36 10.5 -62.5t50.5 -26.5q28 0 40.5 14t16.5 31q2 7 2.5 14t0.5 13v4v3v2.5v2.5v2.5v2.5v3.5v3.5v3v3v4.5v5.5q0 6 -0.5 14.5t-2.5 16.5q-5 17 -17.5 31.5t-39.5 14.5v0z
" />
    <glyph glyph-name="glyph29" unicode=":" horiz-adv-x="373" 
d="M58 117v2.5v3.5q2 46 37.5 84t91.5 38h5.5h5.5q44 -4 80.5 -38t36.5 -90q0 -50 -35 -88.5t-93 -38.5t-93.5 39t-35.5 88v0zM58 413q0 48 36 88t93 40h5.5h5.5q44 -4 80.5 -37.5t36.5 -90.5q0 -55 -36.5 -89.5t-80.5 -38.5h-5.5h-5.5q-56 0 -91.5 38t-37.5 84v3.5v2.5v0z
" />
    <glyph glyph-name="glyph30" unicode=";" horiz-adv-x="380" 
d="M176 -15v4q-52 7 -81.5 43t-29.5 82q0 54 38 86t84 32q56 0 95.5 -41t39.5 -121q0 -85 -49 -158.5t-109 -134.5l-83 60q15 22 26.5 37.5t21.5 29.5q3 5 6.5 10t6.5 10q8 12 16 27t18 35v-1zM58 413q0 48 36 88t93 40h5.5h5.5q44 -4 80.5 -37.5t36.5 -90.5
q0 -55 -36.5 -89.5t-80.5 -38.5h-5.5h-5.5q-56 0 -91.5 38t-37.5 84v3.5v2.5v0z" />
    <glyph glyph-name="glyph31" unicode="&#x3c;" horiz-adv-x="728" 
d="M670 535l-341 -197v-6l341 -196l-65 -116l-547 315l547 317l65 -117v0z" />
    <glyph glyph-name="glyph32" unicode="=" horiz-adv-x="647" 
d="M58 301h531v-128h-531v128v0zM58 372v127h531v-127h-531v0z" />
    <glyph glyph-name="glyph33" unicode="&#x3e;" horiz-adv-x="769" 
d="M99 535l64 117l548 -317l-548 -315l-64 116l341 196v6l-341 197v0z" />
    <glyph glyph-name="glyph34" unicode="?" horiz-adv-x="632" 
d="M200 105v6.5t1 6.5q5 39 35.5 71.5t79.5 32.5q44 0 80.5 -32t36.5 -85q0 -43 -31 -79t-86 -36q-52 0 -84 36t-32 79v0zM227 457h-169v3.5v3.5v3v3q0 20 3 43t10 46q19 59 74.5 108.5t172.5 49.5q126 0 191 -59t65 -143q0 -44 -11 -75t-24 -49q-5 -7 -9.5 -12t-8.5 -9
l-2 -2l-2 -2q-21 -19 -42.5 -28t-39.5 -15q-21 -8 -37 -19t-22 -40h-152q-1 8 -1.5 15.5t-0.5 14.5q1 50 18.5 75.5t40.5 45.5q4 4 8 7t7 7q5 4 10 9l10 10q9 10 17 21t13 23q3 7 5 14.5t2 14.5q0 32 -17.5 47t-42.5 15q-44 0 -53.5 -36t-11.5 -79q-1 -2 -1 -3v-2v-3.5v-2.5
v0z" />
    <glyph glyph-name="glyph35" unicode="@" horiz-adv-x="1031" 
d="M786 540l-70 -233q-1 -3 -2 -6.5t-2 -7.5q-1 -6 -2.5 -12.5t-2.5 -13.5q-2 -11 -3.5 -21.5t-1.5 -17.5q0 -23 10 -34t21 -15q9 -3 16.5 -3.5t11.5 -0.5h1v0q61 0 94.5 57.5t36.5 125.5v7.5v6.5q0 141 -102 243t-271 102q-148 0 -262.5 -98.5t-114.5 -280.5
q0 -165 83 -251.5t183 -113.5q25 -7 50 -10t48 -3q36 0 93 14.5t133 63.5l45 -64q-76 -60 -145 -78t-118 -18q-202 0 -329.5 131.5t-127.5 318.5q0 9 0.5 18.5t0.5 18.5q13 160 128.5 292.5t332.5 132.5q207 0 330 -123.5t123 -296.5q0 -16 -1.5 -33t-4.5 -34
q-15 -77 -69 -141t-160 -64q-13 0 -30.5 2t-36.5 10q-19 7 -37.5 22t-32.5 41h-7q-46 -45 -87.5 -59.5t-76.5 -14.5h-4h-4q-67 3 -122 50.5t-55 138.5q0 108 67 197t184 89q14 0 30.5 -2t32.5 -8q21 -8 41.5 -23t37.5 -42h9l16 41h123v0zM566 232l53 196q-6 29 -26.5 46
t-47.5 17q-8 0 -15.5 -1t-15.5 -3q-50 -14 -91.5 -69t-41.5 -139q0 -47 22 -78t64 -31q27 0 52 14t47 48v0z" />
    <glyph glyph-name="glyph36" unicode="A" horiz-adv-x="754" 
d="M536 700l141 -512q1 -4 2 -7.5t2 -6.5q6 -20 15 -32.5t32 -12.5h15v-129h-334v129h24h3.5h3.5h2h2q6 1 11 4t5 12q0 4 -1 8.5t-3 11.5q0 3 -0.5 4.5t-1.5 3.5q0 1 -0.5 2t-0.5 3h-207q-1 -2 -2 -5t-2 -5q-1 -4 -1.5 -8t-0.5 -6q0 -13 5.5 -18t11.5 -6q4 -1 7 -1h5h10
v-129h-268v129h16q19 0 30 7.5t20 28.5q4 9 8 21t9 28l97 310q5 16 6.5 22.5t1.5 10.5q0 6 -5 10t-37 4h-17v129h396v0zM351 519l-61 -200h122l-56 200h-5v0z" />
    <glyph glyph-name="glyph37" unicode="B" horiz-adv-x="689" 
d="M35 700h285h1.5h1.5q128 0 228 -22t100 -155q0 -61 -40 -106.5t-103 -45.5h-12v-9h19q8 0 16 -1t16 -3q47 -10 86 -51.5t39 -116.5q0 -143 -108 -166.5t-269 -23.5h-5.5h-4.5h-250v129h38h0.5h0.5q14 0 24 5t10 34v364q0 29 -10 34t-24 5h-0.5h-0.5h-38v129v0zM317 141
h20q44 0 73 13.5t29 61.5q0 34 -17.5 47t-38.5 17q-10 1 -19 1.5t-17 0.5h-30v-141v0zM317 423h19h2h1h13t13 1q25 1 45.5 13t20.5 50q0 37 -16 51.5t-36 18.5q-9 1 -18 1.5t-16 0.5h-0.5h-0.5h-27v-136v0z" />
    <glyph glyph-name="glyph38" unicode="C" horiz-adv-x="687" 
d="M659 432h-237q-3 63 -16 104t-67 41q-68 0 -79 -61.5t-10 -135.5v-13.5v-13.5v-8v-5q1 -6 1 -16.5t1 -41.5q2 -111 25.5 -134.5t63.5 -23.5q7 0 18 1.5t22 7.5q20 10 36 41t16 99v4.5v4.5h237q-4 -128 -92 -213t-236 -85q-27 0 -59.5 4.5t-66.5 15.5q-75 27 -137 104.5
t-62 241.5q0 155 85.5 261t235.5 106q155 0 237.5 -87.5t83.5 -197.5v0z" />
    <glyph glyph-name="glyph39" unicode="D" horiz-adv-x="741" 
d="M47 700h345q175 0 253.5 -90.5t78.5 -258.5q0 -76 -19.5 -145t-69.5 -123q-55 -59 -131.5 -71t-187.5 -12h-269v129h38h0.5h0.5q14 0 24 5t10 34v364q0 29 -10 34t-24 5h-0.5h-0.5h-38v129v0zM329 502v-323q0 -20 7 -29t29 -9h44q58 0 70 50.5t12 111.5v10.5v11.5v12.5
v12.5v6v5q0 120 -15 159t-107 39q-24 0 -31 -9t-8 -19v-3.5v-3.5v-3.5v-2.5v-1.5v-1.5q-1 -4 -1 -7v-6v0z" />
    <glyph glyph-name="glyph40" unicode="E" horiz-adv-x="632" 
d="M35 0v129h38h0.5h0.5q14 0 24 5t10 34v364q0 29 -10 34t-24 5h-0.5h-0.5h-38v129h552l-1 -213h-127q0 3 -1.5 10t-2.5 14q0 2 -0.5 4t-1.5 4q0 3 -0.5 6t-1.5 5q-6 22 -17 25.5t-32 3.5h-2.5h-2.5h-80v-133h136v-141h-136v-144h76q38 0 49.5 10.5t16.5 26.5l2 8l2 8
q2 5 3 10.5t2 12.5h129v-217h-562v0z" />
    <glyph glyph-name="glyph41" unicode="F" horiz-adv-x="578" 
d="M35 700h543l-1 -213h-109q0 3 -0.5 10t-1.5 14l-2 10t-2 9q-6 22 -17 25.5t-32 3.5h-2.5h-2.5h-91v-139h142v-141h-142v-111q0 -29 10 -34t25 -5h0.5h0.5h37v-129h-355v129h38h0.5h0.5q14 0 24 5t10 34v364q0 29 -10 34t-24 5h-0.5h-0.5h-38v129v0z" />
    <glyph glyph-name="glyph42" unicode="G" horiz-adv-x="762" 
d="M676 434h-238q-1 61 -15.5 102t-66.5 41q-65 0 -76.5 -55.5t-11.5 -133.5v-72v-2v-2q0 -84 11 -136t79 -52h5.5h4.5q33 3 60.5 20.5t27.5 37.5v22q0 10 -7 14.5t-15 5.5q-6 2 -11 2h-8h-18v128h330v-128h-2.5h-3.5q-23 0 -29 -12.5t-8 -36.5v-1.5v-1.5v-174h-128l-11 54
h-8q-5 -6 -12.5 -13t-17.5 -15q-22 -16 -58 -29t-90 -13q-27 0 -60 5t-67 16q-74 28 -135.5 106t-61.5 239q0 155 84.5 261t235.5 106q145 0 231.5 -82t89.5 -201v0z" />
    <glyph glyph-name="glyph43" unicode="H" horiz-adv-x="780" 
d="M35 0v129h38h0.5h0.5q14 0 24 5t10 34v364q0 29 -10 34t-24 5h-0.5h-0.5h-38v129h321v-129h-5q-21 0 -27.5 -8.5t-6.5 -31.5v-91h145v91q0 17 -4.5 28.5t-30.5 11.5h-5v129h323v-129h-38h-0.5h-0.5h-2h-2q-12 0 -21.5 -6t-9.5 -33v-364q0 -27 9.5 -33t21.5 -6h2h2h0.5
h0.5h38v-129h-323v129h5h0.5h0.5q14 0 24 5t10 34v132h-145v-132q0 -29 8.5 -34t25.5 -5h1.5h0.5h4v-129h-322v0z" />
    <glyph glyph-name="glyph44" unicode="I" horiz-adv-x="425" 
d="M35 0v129h38h0.5h0.5q14 0 24 5t10 34v364q0 29 -10 34t-24 5h-0.5h-0.5h-38v129h355v-129h-37h-0.5h-0.5q-15 0 -25 -5t-10 -34v-364q0 -29 10 -34t25 -5h0.5h0.5h37v-129h-355v0z" />
    <glyph glyph-name="glyph45" unicode="J" horiz-adv-x="398" 
d="M363 700v-129h-29q-25 0 -29.5 -11.5t-4.5 -28.5v-293q0 -134 -40 -185t-88 -62q-18 -5 -35.5 -6t-32.5 -1h-8.5h-9.5q-20 1 -40.5 6t-45.5 18v143q12 -13 25 -20.5t30 -7.5q3 0 7 0.5t9 2.5q8 3 14 13t6 31v362q0 29 -10 34t-25 5h-0.5h-0.5h-38v129h346v0z" />
    <glyph glyph-name="glyph46" unicode="K" horiz-adv-x="756" 
d="M412 700h307v-129h-30q-7 0 -17 -2t-20 -6q-12 -4 -23.5 -10t-18.5 -13l-77 -76l125 -241q30 -57 54 -74.5t44 -19.5v-129h-344v129q2 -1 4.5 -1h4.5q14 0 21.5 7.5t7.5 17.5q0 2 -3 10.5t-15 30.5l-48 93h-10l-57 -65v-52v-1.5v-1.5q0 -14 6 -26t27 -12h7v-129h-322v129
h38h0.5h0.5q14 0 24 5t10 34v364q0 29 -10 34t-24 5h-0.5h-0.5h-38v129h331v-129h-13q-21 0 -28.5 -7.5t-7.5 -25.5l1 -114h4l96 108l1.5 1.5t0.5 1.5q1 0 1 0.5t1 0.5q0 1 1 2.5t2 2.5l3.5 3.5l2.5 2.5q2 2 3 3.5t3 2.5l3.5 7t1.5 5t-1 3t-3 2h-0.5h-1.5q-3 1 -5 1h-4h-2.5
h-3.5h-9v129v0z" />
    <glyph glyph-name="glyph47" unicode="L" horiz-adv-x="611" 
d="M47 0v129h38h0.5h0.5q14 0 24 5t10 34v364q0 29 -10 34t-24 5h-0.5h-0.5h-38v129h349v-129h-35h-3h-4h-2.5h-3.5q-7 -2 -13 -9.5t-6 -29.5v-391h83q34 0 52.5 11.5t22.5 81.5h124v-234h-564v0z" />
    <glyph glyph-name="glyph48" unicode="M" horiz-adv-x="880" 
d="M518 0v129h19h0.5h0.5q14 0 24 5t10 34l1 243h-11l-122 -302h-89l-129 297h-6v-238v-2.5v-2.5v-3v-3q0 -10 6 -19t28 -9h19v-129h-234v129h29q17 0 26 6t9 33v363q0 17 -4.5 28.5t-30.5 11.5h-29v129h274l118 -274h15l111 274h292v-129h-28q-27 0 -31.5 -11t-4.5 -27
v-1.5v-0.5v-363q0 -29 10 -34t25 -5h0.5h0.5h28v-129h-327v0z" />
    <glyph glyph-name="glyph49" unicode="N" horiz-adv-x="764" 
d="M296 700l225 -381h6v212q0 23 -6.5 31.5t-28.5 8.5h-27v129h252v-129h-27q-22 0 -28.5 -8.5t-6.5 -31.5v-531h-190l-222 375h-6v-207q0 -29 8.5 -34t23.5 -5h1.5h0.5h28v-129h-252v129h27h0.5h1.5q15 0 23.5 5t8.5 34v363q0 23 -5.5 31.5t-28.5 8.5h-27v129h249v0z" />
    <glyph glyph-name="glyph50" unicode="O" horiz-adv-x="718" 
d="M359 717q89 0 147 -33t92 -73q4 -5 8 -10.5t8 -10.5q8 -11 15 -23t13 -24q29 -58 35 -111.5t6 -81.5q0 -21 -1.5 -42.5t-4.5 -43.5q-7 -43 -21 -84t-38 -74q-24 -34 -51.5 -56t-56.5 -36q-43 -19 -83.5 -24.5t-67.5 -5.5q-99 0 -160 35.5t-94 78.5q-2 2 -3.5 4t-2.5 4
q-31 44 -48 107.5t-16 136.5q1 36 9.5 100t55.5 134q1 2 2 3.5t2 2.5q7 11 19 25t29 29q31 27 81.5 50t125.5 23v0zM359 577q-62 0 -76.5 -60t-14.5 -134v-67v-25t1 -26q3 -53 20 -97.5t70 -44.5q54 0 71 46t19 101q1 12 1 23.5v22.5v67v27t-1 28q-3 52 -20.5 95.5
t-69.5 43.5v0z" />
    <glyph glyph-name="glyph51" unicode="P" horiz-adv-x="663" 
d="M317 251v-83q0 -29 10 -34t25 -5h0.5h0.5h37v-129h-355v129h38h0.5h0.5q14 0 24 5t10 34v364q0 29 -10 34t-24 5h-0.5h-0.5h-38v129h267q154 0 252 -43.5t98 -192.5q0 -127 -81.5 -170.5t-209.5 -43.5h-21.5t-22.5 1v0zM317 559v-167h4.5h4.5q47 0 73.5 19t26.5 66
q0 45 -25 63.5t-72 18.5h-6h-6v0z" />
    <glyph glyph-name="glyph52" unicode="Q" horiz-adv-x="681" 
d="M341 717q27 0 67 -6t82 -28q28 -14 55.5 -36.5t50.5 -56.5q2 -3 4.5 -6.5t4.5 -6.5q43 -69 50.5 -131t8.5 -91v-2.5v-2.5v-10v-10q0 -10 0.5 -20t-0.5 -20q-2 -23 -11 -61.5t-30 -80.5q-31 -62 -95 -113t-177 -51h-2.5h-2.5h-3h-3v-4q10 -1 17.5 -4t14.5 -7
q8 -4 16.5 -9.5t20.5 -12.5q26 -15 46.5 -23.5t38.5 -8.5h3.5t3.5 1q10 2 20 9.5t17 17.5l73 -53q-21 -46 -44 -74t-46 -40q-11 -7 -22.5 -10t-22.5 -3q-7 0 -19 3t-25 8q-10 4 -20 8.5t-17 8.5q-1 1 -2 1.5t-2 1.5q-2 2 -4 3.5t-4 2.5v0v1q-4 2 -8 5t-14 8l-6 3t-4 3h-0.5
h-0.5q-1 1 -2 1.5l-3 1.5q-8 5 -17 9t-18 6q-11 3 -21 4.5t-19 1.5q-13 0 -20.5 -5t-12.5 -14l-69 49q7 15 14 27t14 21q27 38 51.5 49t37.5 13v2q-65 11 -108 36t-70 53q-7 8 -13.5 16t-11.5 15q-4 6 -12.5 20.5t-18.5 38.5q-13 31 -23.5 77t-10.5 108q0 28 6 81.5
t35 111.5q6 12 13 24t15 23q4 5 8 10.5t8 10.5q33 40 91.5 73t147.5 33v0zM341 577q-52 0 -69.5 -43.5t-20.5 -95.5q-1 -14 -1 -28v-27v-67q0 -115 21 -150.5t46 -39.5q6 -2 12 -2h12h12t12 2q25 4 46 39.5t21 150.5v67q0 74 -14.5 134t-76.5 60v0z" />
    <glyph glyph-name="glyph53" unicode="R" horiz-adv-x="702" 
d="M35 700h349q117 0 170 -37.5t70 -82.5q10 -24 12.5 -46.5t2.5 -39.5q0 -46 -23.5 -88t-70.5 -66l58 -102l4 -8l4 -8q3 -4 5.5 -9l4.5 -9q14 -26 32 -48.5t49 -26.5v-129h-324v129q18 1 27.5 6t9.5 19q0 4 -2.5 14t-14.5 31l-39 75h-56v-106v-6.5t1 -7.5q1 -10 6 -18
t20 -7h3.5h2.5v-129h-301v129h28h2h2q17 0 24 6.5t7 48.5v332v1.5v1.5q0 28 -4.5 40.5t-30.5 12.5h-28v128v0zM303 559v-144h22q38 0 59.5 20.5t21.5 58.5q0 33 -16 46t-35 17q-9 1 -18 1.5t-16 0.5h-18v0z" />
    <glyph glyph-name="glyph54" unicode="S" horiz-adv-x="638" 
d="M17 198h224q-1 -4 -1 -7.5v-7.5v-4v-3q2 -20 18 -36t55 -16q30 0 44.5 9t20.5 20q3 8 4 14.5t1 10.5q0 18 -12 29.5t-26 18.5q-6 3 -11.5 5.5t-10.5 4.5q-31 12 -58.5 23.5t-52.5 22.5q-83 36 -129.5 80.5t-46.5 130.5q0 101 52 148t114 63q33 8 64.5 10.5t55.5 2.5
q22 0 46.5 -1t49.5 -4q75 -10 138 -53t63 -153v-7v-6h-222v24q0 5 -0.5 11t-1.5 12q-4 14 -17 25.5t-45 11.5q-29 0 -44 -14.5t-15 -43.5q0 -22 10 -35t41 -25q6 -2 13 -4.5t15 -4.5q108 -31 188 -76.5t80 -155.5q0 -98 -50.5 -147t-111.5 -68q-44 -13 -84.5 -16t-61.5 -3
q-25 0 -56.5 1.5t-64.5 8.5q-66 12 -121 56.5t-54 147.5v0z" />
    <glyph glyph-name="glyph55" unicode="T" horiz-adv-x="652" 
d="M17 700h618v-235h-117q-1 6 -2.5 13.5t-2.5 14.5q-2 8 -3 16t-3 16q-3 19 -11 26.5t-43 7.5h-22v-392q0 -29 10 -34t24 -5h0.5h0.5h38v-129h-356v129h38h0.5h0.5q15 0 25 5t10 34v392h-22h-2.5h-2.5q-26 0 -36 -6t-17 -41q-1 -9 -3 -21t-4 -26h-118v235v0z" />
    <glyph glyph-name="glyph56" unicode="U" horiz-adv-x="738" 
d="M370 700v-129h-28q-19 0 -27.5 -7.5t-8.5 -32.5l1 -221q0 -74 13 -130.5t89 -56.5q64 0 78 52.5t13 134.5v221q0 20 -5 30t-30 10h-28v129h266v-129h-28q-25 0 -29.5 -9.5t-5.5 -22.5v-1.5v-0.5v-9v-5q-1 0 -1 -0.5v-1.5v-2.5v-3.5v-280q0 -107 -41.5 -159.5t-91.5 -73.5
q-28 -10 -54.5 -14t-45.5 -4q-169 0 -229.5 67.5t-72.5 149.5q-4 28 -5 56t-1 53v221v5v6v3.5v2.5q-2 9 -8.5 16t-25.5 7h-29v129h335v0z" />
    <glyph glyph-name="glyph57" unicode="V" horiz-adv-x="673" 
d="M278 0l-196 499q-1 1 -1.5 2.5t-0.5 2.5q-1 4 -2.5 7.5t-2.5 7.5q-7 21 -18.5 36.5t-43.5 15.5h-13v129h337v-129h-28q-7 0 -10.5 -3.5t-4.5 -7.5v-0.5v-1.5v0v-1q0 -2 2.5 -7.5t8.5 -22.5l70 -178h12l56 170q8 22 10 29.5t2 11.5q0 8 -4.5 10t-9.5 1h-5.5h-4.5h-17v129
h259v-129h-26q-10 0 -18 -2t-16 -11q-7 -9 -14.5 -25t-16.5 -43l-164 -490h-140v0z" />
    <glyph glyph-name="W" unicode="W" horiz-adv-x="1048" 
d="M356 700v-129h-39q-1 0 -2.5 -0.5t-3.5 -0.5q-3 -2 -5 -4.5t-2 -6.5t2 -9l4 -10q4 -9 4.5 -11.5t0.5 -3.5v0v0v0v0q0 -1 1.5 -4.5t5.5 -15.5l55 -137h11l112 332h114l129 -325h9l43 131q8 24 11 32t4 13v2.5v3.5q0 8 -4.5 11t-33.5 3h-24v129h300v-129h-17
q-18 0 -28 -4.5t-19 -20.5q-6 -12 -13 -30.5t-17 -47.5l-158 -468h-143l-118 300h-7l-106 -300h-144l-181 476q-3 8 -7 16.5t-9 21.5q-3 7 -6 13.5t-6 11.5q-10 18 -22 25t-37 7h-9l-1 129h356v0z" />
    <glyph glyph-name="glyph59" unicode="X" horiz-adv-x="756" 
d="M362 700v-129h-12q-1 0 -3 -0.5t-4 -0.5q-3 -2 -6 -5t-3 -9q0 -4 2.5 -9t6.5 -10l40 -61h7l42 63q8 12 10 16.5t2 6.5q0 7 -3 8t-8 1h-13v129h271v-129h-27q-18 0 -31.5 -11.5t-26.5 -28.5q-5 -8 -10.5 -16t-11.5 -17l-73 -110l125 -192q4 -6 8 -12.5t9 -14.5
q10 -15 23.5 -27.5t29.5 -12.5h27v-129h-352v129h3.5h2.5h2.5h2.5q6 1 10 4.5t4 11.5q0 2 -1.5 6t-3.5 9q-1 1 -2 2.5t-1 3.5q-2 2 -3 4t-2 3l-40 61h-6l-46 -69q-1 -1 -2 -2.5t-2 -4.5q-1 -2 -2 -4.5t-2 -4.5q0 -2 -0.5 -3.5t-0.5 -3.5q0 -5 5 -9t15 -4h1.5h1.5v-129h-291
v129h27q25 0 39.5 9.5t27.5 26.5q6 7 11.5 16t12.5 19l85 129l-118 181q-20 30 -29.5 42.5t-16.5 16.5q-4 1 -8 1.5t-10 0.5h-1.5h-1.5h-19v129h339v0z" />
    <glyph glyph-name="glyph60" unicode="Y" horiz-adv-x="645" 
d="M507 0h-343v129h34h4.5h4.5q9 1 16.5 6.5t7.5 21.5v24l-151 318q-14 29 -23 44t-17 21q-7 5 -14.5 6t-18.5 1h-0.5h-0.5h-6v128h333v-128h-11q-18 0 -23.5 -2t-5.5 -9q0 -9 5 -19.5t11 -22.5l56 -118h5l40 104q1 2 1 3t1 2v0.5v0.5l2 4t2 6q0 2 0.5 3.5t1.5 2.5l1.5 3
t0.5 2q2 4 3.5 6.5t1.5 5.5v1t1 1v1.5v1.5q0 2 0.5 3t0.5 2t0.5 1.5t0.5 1.5t0.5 1.5t0.5 1.5q1 0 1 0.5v1.5q0 5 -3.5 7t-8.5 2q-2 1 -4.5 1h-4.5h-21v129h257v-129h-21h-2.5h-2.5q-8 0 -14 -0.5t-11 -5.5q-7 -7 -14.5 -23.5t-21.5 -51.5l-118 -305v-28q0 -16 5 -22t11 -6
h2h2h1.5h1.5h3.5h2.5h38v-129v0z" />
    <glyph glyph-name="glyph61" unicode="Z" horiz-adv-x="650" 
d="M597 700v-170l-327 -389h152h4.5h4.5q24 0 34.5 7t18.5 53l9 56h122v-257h-580v161l337 398h-133q-38 0 -46.5 -9t-11.5 -28q0 -5 -1 -11l-2 -12l-10 -56h-122v257h551v0z" />
    <glyph glyph-name="glyph62" unicode="[" horiz-adv-x="459" 
d="M47 -247v964h295v-127h-57q-27 0 -31.5 -12t-4.5 -27v-1.5v-0.5v-628q0 -16 5 -27.5t31 -11.5l57 -1v-128h-295v0z" />
    <glyph glyph-name="glyph63" unicode="\" horiz-adv-x="645" 
d="M460 -210l-402 879l128 70l401 -880l-127 -69v0z" />
    <glyph glyph-name="glyph64" unicode="]" horiz-adv-x="459" 
d="M412 -247h-295v128h57q19 1 27.5 8t8.5 33v627q0 23 -6.5 32t-29.5 9h-57v127h295v-964v0z" />
    <glyph glyph-name="glyph65" unicode="^" horiz-adv-x="618" 
d="M306 717l254 -252h-149l-105 103l-100 -102h-148l248 251v0z" />
    <glyph glyph-name="glyph66" unicode="_" horiz-adv-x="619" 
d="M0 -247h619v-128h-619v128v0z" />
    <glyph glyph-name="glyph67" unicode="`" horiz-adv-x="300" 
d="M202 801l16 -177l-70 -1l-137 178h191v0z" />
    <glyph glyph-name="glyph68" unicode="a" horiz-adv-x="591" 
d="M561 126v-126q-7 -1 -14 -2.5t-14 -2.5q-13 -3 -27 -4t-29 -1q-41 0 -71.5 11t-37.5 45l-9 -1q-35 -31 -72 -43t-80 -12q-90 0 -128.5 45t-42.5 100q-1 4 -1 8v8q0 110 83.5 142t200.5 31h11h12v53q0 3 -1 9.5t-5 13.5q-5 9 -18 17t-40 8q-29 0 -45.5 -14.5t-16.5 -39.5
h-158v3.5v2.5q0 12 2 26t7 28q15 41 69.5 75.5t180.5 34.5q129 0 165 -51t39 -111q1 -10 1 -20v-20v-177q0 -19 6 -28.5t20 -8.5h6t7 1v0zM342 135v98h-2.5h-2.5h-2.5h-2.5q-46 0 -70 -23t-24 -52v-3.5v-3.5q2 -17 14.5 -31.5t38.5 -14.5h3.5h3.5q17 2 30.5 9.5t13.5 20.5v0
z" />
    <glyph glyph-name="glyph69" unicode="b" horiz-adv-x="638" 
d="M47 0v105h19q18 0 24.5 8t6.5 24v527q0 22 -9 26.5t-22 4.5h-19v105h230v-292h7q30 21 58 27t53 6q114 0 164.5 -79t54.5 -174q1 -5 1 -10.5v-10.5q0 -21 -2.5 -45t-9.5 -49q-17 -69 -66 -126t-144 -57q-15 0 -35.5 2.5t-41.5 11.5q-13 6 -25.5 16t-24.5 25h-5l-17 -45
h-197v0zM277 375v-249q15 -12 31.5 -16t35.5 -4q36 0 48 24.5t13 91.5v12v12q0 10 -0.5 17t-0.5 14q-1 8 -1 16.5v21.5v1.5v1.5v19.5t-2 22.5q-3 24 -15.5 44.5t-44.5 20.5h-4.5t-4.5 -1q-19 -2 -34.5 -13.5t-20.5 -35.5v0z" />
    <glyph glyph-name="glyph70" unicode="c" horiz-adv-x="571" 
d="M354 212h194q-1 -92 -66.5 -157t-187.5 -65q-11 0 -21.5 0.5t-21.5 2.5q-50 7 -97 29t-76 60q-31 41 -43 87t-12 96q0 12 1 24t3 24q6 37 20 72t35 61q32 41 85 68t126 27q94 0 145 -35.5t75 -77.5q18 -31 24 -59.5t8 -42.5h-192v5.5v4.5q0 37 -15 63t-44 26
q-42 0 -52 -39.5t-10 -94.5v-51q0 -88 18 -111t44 -23q4 0 12 1t17 8q12 7 21.5 27t9.5 59v3v3v2.5v2.5v0z" />
    <glyph glyph-name="glyph71" unicode="d" horiz-adv-x="652" 
d="M289 800h250v-663q0 -24 8.5 -28t19.5 -4h2h2h34v-105h-241l-7 42h-5l-3.5 -3.5l-3.5 -3.5q-18 -17 -48 -31t-77 -14q-16 0 -38.5 4t-46.5 16q-42 22 -77 80t-35 175q0 112 64.5 194t178.5 82q18 0 33 -2.5t30 -8.5q5 -2 11 -5t12 -7h7v146q0 22 -9 26.5t-22 4.5h-39v105
v0zM359 135v253q-4 16 -14 24.5t-20 12.5q-9 3 -17 4t-13 1q-40 0 -50 -27.5t-12 -60.5v-4.5v-5.5v-15.5v-13.5q-1 -7 -1 -13v-12v-27v-7.5v-4.5v-1.5v-0.5q1 -3 1 -8.5v-17.5v-1.5v-0.5v-6.5t1 -6.5q1 -34 12 -62.5t54 -28.5q6 0 12.5 1.5t13.5 4.5q9 3 17.5 9.5t15.5 14.5
v0z" />
    <glyph glyph-name="glyph72" unicode="e" horiz-adv-x="566" 
d="M366 163h170q-4 -12 -9 -25.5t-12 -26.5q-25 -46 -78 -83.5t-149 -37.5q-11 0 -48.5 3.5t-79.5 22.5q-22 11 -43 26.5t-39 38.5q-31 41 -43 86t-12 94q0 6 0.5 12.5t0.5 12.5q4 43 19 85t39 73q25 33 56 53t63 30q25 8 48.5 11t44.5 3h4.5h5.5q109 0 172.5 -84t66.5 -230
h-314v-25q0 -50 14.5 -73t56.5 -23q30 0 44.5 14.5t19.5 31.5q0 3 1 5.5t1 5.5v0zM229 332h137v4.5v3.5q0 44 -20 64.5t-46 20.5q-28 0 -49.5 -22.5t-21.5 -70.5v0z" />
    <glyph glyph-name="glyph73" unicode="f" horiz-adv-x="450" 
d="M57 0v105h17q16 0 24.5 5t8.5 24v1.5v1.5v278h-60v116h60v80q0 16 2 37.5t11 44.5q15 41 60 75t144 34q39 0 67.5 -10t52.5 -24v-147h-104q0 3 -0.5 5.5t-0.5 4.5t-0.5 4.5t-0.5 5.5v1.5v0.5v4t-1 4q0 13 -4.5 24t-19.5 11q-17 0 -22 -16t-4 -37v-8v-7v-8v-8v-71h77v-116
h-77v-278q0 -15 7 -23.5t32 -8.5h21v-105h-290v0z" />
    <glyph glyph-name="glyph74" unicode="g" horiz-adv-x="676" 
d="M518 -210h-137q4 8 7.5 18t5.5 21q1 6 2 12.5t1 12.5q0 14 -8 19.5t-23 7.5q-5 1 -10.5 1h-10.5h-6h-6q-4 0 -7 -0.5t-6 -0.5q-5 0 -10 -0.5t-10 -1.5q-5 0 -10 -0.5t-9 -0.5q-10 -1 -20 -1.5t-20 -0.5q-92 0 -133 33.5t-54 74.5q-6 17 -8 35t-2 33q0 36 24.5 63.5
t55.5 43.5v4q-44 33 -66.5 70t-22.5 92q0 92 67.5 154t191.5 62q33 0 70 -8.5t75 -36.5q5 -4 10.5 -8.5t10.5 -9.5q20 23 48 34.5t59 11.5q11 0 21.5 -1.5t21.5 -4.5t22 -7.5t21 -10.5v-134h-85q-1 4 -2 10.5t-4 14.5q-4 11 -11.5 19.5t-19.5 8.5q-4 0 -9.5 -1.5t-11.5 -5.5
q11 -19 15.5 -40.5t4.5 -49.5q0 -11 -1.5 -22.5t-3.5 -23.5q-14 -60 -67.5 -110t-159.5 -50q-21 0 -37 1.5t-32 5.5l-6 2l-6 2q-16 -2 -23.5 -9.5t-9.5 -15.5q0 -2 -0.5 -4t-0.5 -4q0 -38 32.5 -44.5t77.5 -6.5h4.5h4.5q9 0 17 0.5t16 0.5h4h4q5 1 10 1h11q92 0 148 -17
t56 -106q0 -33 -13 -62.5t-28 -54.5q-2 -4 -4.5 -7.5t-4.5 -6.5v-1zM282 446q-37 0 -50.5 -25.5t-13.5 -75.5v-38q0 -36 8.5 -66t42.5 -34h1.5h1.5h0.5h1.5h4.5h3.5h0.5h0.5q4 0 8 0.5t8 0.5q18 3 33 21.5t15 79.5v35q0 43 -11 72.5t-54 29.5v0z" />
    <glyph glyph-name="glyph75" unicode="h" horiz-adv-x="659" 
d="M277 800v-298h5q47 24 82 31.5t63 7.5q94 0 120.5 -43t26.5 -95v-271q0 -15 7 -20.5t15 -6.5h4.5h4.5h19v-105h-263v105h4.5h3.5q14 0 19 6.5t6 13.5v5.5v5.5v0.5v0.5v218q0 27 -10 48.5t-51 21.5q-25 0 -40 -14.5t-15 -35.5v0v0v-1v0v-1.5v-0.5v-1.5v-1.5v-4.5v-5.5
q-1 -2 -1 -4.5v-4.5v-213q0 -23 8.5 -27.5t22.5 -4.5h4v-105h-265v105h18q14 0 23 5t9 27v527q0 22 -9 26.5t-23 4.5h-18v105h230v0z" />
    <glyph glyph-name="glyph76" unicode="i" horiz-adv-x="372" 
d="M51 0v105h13q18 0 24 6t7 13v3.5v2.5v4v3v256v3.5v2.5v3.5v3.5q-2 7 -8 13t-23 6h-17v105h278v-105h-18q-22 0 -27 -8.5t-5 -23.5v-256q0 -19 6.5 -25.5t25.5 -6.5h18v-105h-274v0zM87 703v1.5v1.5q1 36 28.5 66t70.5 30q44 0 70 -28.5t29 -62.5v-4v-4q0 -44 -30 -71.5
t-66 -28.5h-1.5h-1.5q-40 0 -67 28t-31 62q-1 2 -1 4.5v5.5v0z" />
    <glyph glyph-name="glyph77" unicode="j" horiz-adv-x="384" 
d="M305 530v-555q0 -122 -57 -166t-126 -47h-5.5h-5.5q-25 0 -49 3.5t-45 8.5l20 135q8 -5 16.5 -9t19.5 -5q2 -1 4.5 -1h4.5h2h2q1 1 2 1h2q23 4 29 23t6 45v430q0 21 -9.5 26.5t-24.5 5.5h-36v105h250v0zM98 701v1.5v1.5q1 36 29 66t71 30h4h4q34 -3 62.5 -29t28.5 -70
v-1.5v-1.5q-1 -36 -28 -66t-71 -30q-42 0 -69.5 28.5t-30.5 62.5v4v4v0z" />
    <glyph glyph-name="glyph78" unicode="k" horiz-adv-x="681" 
d="M271 800v-495l91 91q2 2 4 3.5t4 3.5l2 2t3 2q3 2 5 4.5t2 5.5q0 6 -6 7t-14 1v0v0h-1.5h-1.5h-7v105h262v-105h-31q-32 0 -57 -15.5t-49 -37.5l-3.5 -3.5l-3.5 -3.5l94 -195q3 -6 6 -11.5t5 -9.5q15 -24 32.5 -32.5t50.5 -11.5v-105h-306v105h11q13 0 18 2t6 8v1v1v0v1
v0.5v1.5t-0.5 1.5t-0.5 1.5q-1 0 -1.5 0.5t-0.5 1.5t-0.5 1.5t-0.5 1.5v0h-1q0 2 -1 4.5t-3 6.5l-45 93l-62 -59v-36q0 -23 8.5 -27.5t22.5 -4.5h4v-105h-265v105h19q13 0 22 5t9 27v527q0 22 -9 26.5t-22 4.5h-19v105h230v0z" />
    <glyph glyph-name="glyph79" unicode="l" horiz-adv-x="369" 
d="M277 800v-663q0 -22 9.5 -27t22.5 -5h13v-105h-275v105h19q13 0 22 5t9 27v527q0 22 -9 26.5t-23 4.5h-18v105h230v0z" />
    <glyph glyph-name="glyph80" unicode="m" horiz-adv-x="954" 
d="M48 0v105h19q19 0 25 6.5t6 25.5v256q0 17 -5.5 24.5t-27.5 7.5h-18v105h231v-28q49 24 84.5 31.5t65.5 7.5q42 0 72.5 -9.5t53.5 -40.5l8 -1q20 15 49.5 27.5t60.5 18.5q12 2 25 3.5t25 1.5q74 0 104.5 -27t38.5 -59q4 -14 5 -27.5t1 -24.5v-266q0 -22 9 -27t23 -5h16
v-105h-263v105h6q16 0 22.5 7.5t6.5 24.5v206v5t-1 4v1.5v1.5q0 2 -0.5 6.5t-0.5 11.5q-1 22 -12 33t-23 15q-7 2 -14 3t-12 1q-22 0 -33 -10.5t-15 -23.5q-3 -8 -4 -15.5t-1 -12.5v-8.5v-5.5q-1 -1 -1 -2v-2v-3.5v-3.5v-201q0 -15 5.5 -23.5t20.5 -8.5h8v-105h-247v105h8
q15 0 19.5 7t5.5 15v4.5v4.5v0.5v0.5v206v0.5v0.5q0 6 -0.5 16t-3.5 21q-4 16 -17 30t-41 14q-24 0 -35 -11t-15 -23q-3 -10 -3.5 -18.5t-0.5 -12.5v-0.5v-0.5v-3.5v-3.5v-7.5v-6.5v-201v-0.5v-0.5v-4.5v-4.5q1 -8 6 -15t20 -7h9v-105h-265v0z" />
    <glyph glyph-name="glyph81" unicode="n" horiz-adv-x="665" 
d="M47 0v105h18q14 0 23 5t9 27v256q0 15 -5 23.5t-27 8.5h-18v105h230v-40h5q38 27 83 39t94 12q83 0 101.5 -48t19.5 -106v-10v-10v-230q0 -17 6.5 -24.5t24.5 -7.5h19v-105h-263v105h7q14 0 19 6t6 13q1 2 1 4v4v1.5v1.5v0.5v1.5v222q0 6 -0.5 13t-2.5 14q-4 15 -15.5 27
t-36.5 12q-6 0 -12.5 -0.5t-13.5 -2.5q-16 -3 -29 -17t-13 -46v-222q0 -13 4.5 -22.5t26.5 -9.5h4v-105h-265v0z" />
    <glyph glyph-name="glyph82" unicode="o" horiz-adv-x="588" 
d="M294 541q19 0 38 -2t39 -7q36 -9 71 -29.5t64 -56.5q23 -28 37 -65t19 -76q2 -10 2.5 -20t0.5 -20q0 -50 -12 -96t-43 -87q-32 -43 -91.5 -67.5t-124.5 -24.5t-124.5 24.5t-91.5 67.5q-31 41 -43 87t-12 96q0 13 1.5 27t3.5 28q7 35 20.5 68t33.5 58l8 10t9 9
q28 29 76 52.5t119 23.5v0zM294 425q-35 0 -47 -30.5t-14 -66.5q-1 -10 -1 -19.5v-18.5v-50q0 -84 16.5 -108t36.5 -27h4.5h4.5h4.5h4.5q20 3 36.5 27t16.5 108v50v18.5t-1 19.5q-2 36 -14 66.5t-47 30.5v0z" />
    <glyph glyph-name="glyph83" unicode="p" horiz-adv-x="634" 
d="M277 20v-93q0 -21 9 -26t22 -5l39 -1v-105h-300v105h17q0 1 0.5 1h0.5h4h4q9 1 16.5 6.5t7.5 25.5v465q0 22 -9.5 27t-23.5 5h-17v105h197l18 -49h4q15 12 27 21.5t24 16.5q17 11 35.5 16.5t44.5 5.5q99 0 145 -57.5t60 -126.5q5 -23 7 -45.5t2 -43.5q0 -19 -5 -55.5
t-21 -75.5q-22 -56 -71.5 -101.5t-141.5 -45.5q-34 0 -56 9t-39 21v0zM277 373v-231q1 -2 2.5 -4t2.5 -4q7 -11 19 -19.5t32 -8.5q28 0 41.5 14.5t19.5 32.5q3 11 4 21.5t1 17.5q0 5 0.5 9.5t0.5 7.5q1 6 1.5 10.5t0.5 9.5v3.5v3.5v51v8.5v8.5q0 50 -7.5 85.5t-54.5 35.5
q-20 0 -37.5 -10.5t-25.5 -41.5v0z" />
    <glyph glyph-name="glyph84" unicode="q" horiz-adv-x="634" 
d="M587 530v-105h-17q-18 0 -24.5 -7t-7.5 -15q-1 -3 -1 -5.5v-4.5v-466q0 -19 7.5 -24.5t16.5 -6.5h4h4h0.5h0.5l17 -1v-105h-299v105h38q14 1 22.5 6t8.5 27v92q-16 -12 -38 -21t-57 -9q-102 0 -154.5 56t-71.5 124q-7 26 -10 51t-3 47q0 21 2 44t7 47q15 68 61 125
t144 57q28 0 46 -5t34 -16q12 -7 24 -17t27 -22h4l18 49h197v0zM357 142v231q-5 26 -23 39t-40 13q-47 0 -55 -34.5t-7 -84.5v-9.5v-9.5v-51v-2v-2q0 -9 1 -18.5t2 -22.5q0 -7 1 -16t4 -18q5 -19 18.5 -35t42.5 -16q20 0 32 8.5t19 19.5q1 2 2.5 4t2.5 4v0z" />
    <glyph glyph-name="glyph85" unicode="r" horiz-adv-x="489" 
d="M47 0v105h18q14 0 23 5t9 27v256q0 15 -5 23.5t-27 8.5h-18v105h230v-40h5q40 30 67.5 40t52.5 11h3h2q5 0 10.5 -0.5t10.5 -1.5q10 -1 20.5 -6t21.5 -15v-171h-105q-1 47 -13.5 62.5t-33.5 15.5q-16 0 -24.5 -6.5t-11.5 -13.5q-3 -6 -3.5 -11t-0.5 -8v-5v-5q-1 -2 -1 -4
v-4v-231q0 -13 4.5 -22.5t26.5 -9.5h23v-105h-284v0z" />
    <glyph glyph-name="glyph86" unicode="s" horiz-adv-x="506" 
d="M23 147h172q1 -18 10.5 -26.5t20.5 -11.5q7 -2 14.5 -2.5t11.5 -0.5h11t12 1q13 2 24 7.5t11 19.5q0 15 -15.5 25.5t-33.5 18.5q-10 4 -19 7t-16 5q-76 26 -133 63.5t-57 119.5q0 73 56 120.5t168 47.5q89 0 153.5 -28t68.5 -132l-170 -1l-1.5 6t-0.5 4v1.5v1.5
q-1 12 -8.5 19t-16.5 9q-8 3 -15.5 3.5t-9.5 0.5q-27 0 -38 -9.5t-11 -21.5q0 -20 18.5 -30t48.5 -18q13 -3 27.5 -6.5t30.5 -7.5q12 -3 27 -8t31 -13q33 -16 61 -48t28 -90q0 -13 -3.5 -37t-18.5 -50q-21 -36 -72 -66t-153 -30q-113 0 -158 40.5t-53 89.5q-1 6 -1.5 13
t-0.5 14v0z" />
    <glyph glyph-name="glyph87" unicode="t" horiz-adv-x="435" 
d="M194 762h104v-232h114v-117h-114v-263q0 -20 4.5 -29.5t9.5 -12.5q3 -2 5.5 -2.5t4.5 -0.5q3 0 7 1t7 3q6 4 12 9t11 11q4 3 6.5 6.5t5.5 6.5l47 -53q-3 -6 -7 -12t-9 -12q-21 -29 -57 -52t-92 -23q-85 0 -110 55t-25 164v204h-95v117q69 4 116 56t55 176v0z" />
    <glyph glyph-name="glyph88" unicode="u" horiz-adv-x="659" 
d="M612 0h-218l-12 46q-32 -28 -70 -42t-87 -14q-60 0 -89 23t-40 51q-7 19 -8.5 36.5t-1.5 27.5v5v4v4v5q0 4 -0.5 7.5t-0.5 7.5v6.5v7.5v222q0 19 -9.5 23.5t-21.5 4.5h-19v105h230v-348v-4v-4q1 -23 11.5 -42t49.5 -19q25 0 36 9.5t15 20.5q2 6 3 12t1 10v8t1 6v1v2v2v3
v206q0 23 -9 27.5t-19 4.5h-1.5h-1.5h-13v105h224v-393q0 -23 8.5 -27.5t22.5 -4.5h19v-105v0z" />
    <glyph glyph-name="glyph89" unicode="v" horiz-adv-x="607" 
d="M323 530v-105h-30q-9 0 -15 -2t-6 -10q0 -2 1.5 -6.5t2.5 -9.5q0 -1 0.5 -1.5t0.5 -1.5q2 -4 3 -7.5t2 -5.5l58 -140h7l53 135q1 2 2 4.5t2 5.5q1 2 2 5l2 6l2 8t1 7v2t-1 3q-1 3 -3.5 5.5t-7.5 2.5h-30v105h238v-105h-33q-12 0 -20 -15t-14 -33q-1 -1 -1.5 -2.5
t-0.5 -3.5q-2 -3 -3 -6l-2 -6l-141 -359h-154l-159 389q-1 3 -2 5.5t-2 5.5q-4 9 -12 17t-24 8h-28v105h312v0z" />
    <glyph glyph-name="glyph90" unicode="w" horiz-adv-x="890" 
d="M11 530h302v-105h-20h-4.5h-4.5h-3.5h-3.5h-2h-1h-2h-2h-0.5h-1.5h-1.5h-0.5l-1 -0.5t-1 -1.5q-1 0 -1.5 -0.5t-0.5 -1.5l-1.5 -1.5t-0.5 -1.5q0 -2 2.5 -9t5.5 -15v-0.5v-0.5q2 -3 3 -6l2 -6l51 -135l114 284h86l123 -276l35 122q1 2 1 3.5v3.5q0 1 0.5 3l1.5 6
q0 2 1.5 4.5t2.5 6.5l1.5 4.5t0.5 3.5l0.5 0.5t0.5 1.5q1 2 1 4.5t-1 3.5q-1 3 -5 3.5t-9 0.5h-6h-5h-18v105h241v-105h-22q-10 0 -18.5 -4t-16.5 -18q-4 -8 -8 -18.5t-8 -25.5l-102 -359h-160l-90 204l-83 -204h-156l-140 377q-1 4 -2.5 7.5t-2.5 6.5q-7 18 -16.5 26
t-31.5 8h-22v105v0z" />
    <glyph glyph-name="glyph91" unicode="x" horiz-adv-x="592" 
d="M282 530v-105h-12h-0.5h-1.5l-2.5 -2.5l-2.5 -2.5v-1.5v-0.5q0 -2 1 -4t3 -3l1.5 -3t1.5 -2l37 -53h2l32 53q0 1 1 2.5t2 4.5h0.5h0.5q1 2 2 4.5l1 2.5v0.5v0.5v0v0q-1 0 -1 0.5v1.5l-0.5 0.5l-0.5 0.5l-0.5 0.5t-1.5 0.5h-16v105h227v-105h-1.5h-1.5q-21 -1 -35 -4
t-26 -19q-2 -2 -3 -4.5t-3 -4.5l-69 -113l99 -129q2 -2 3.5 -4t3.5 -4t3.5 -4t3.5 -4l3 -4.5t2 -3.5q1 0 1.5 -0.5t0.5 -1.5q5 -7 9.5 -11.5t8.5 -5.5q3 -2 7.5 -2.5t9.5 -0.5h10v-105h-282v105h17q5 0 7 1.5t3 3.5v1.5v1.5q0 6 -1 8.5t-3 4.5l-0.5 0.5l-1.5 1.5l-0.5 0.5
l-0.5 0.5l-47 60l-37 -60l-1.5 -3t-0.5 -2v0v0q-1 -1 -1.5 -2.5t-2.5 -3.5l-0.5 -0.5t-0.5 -1.5l-1.5 -1.5t-0.5 -2.5q0 -4 4 -5.5t8 -1.5h10v-105h-237v105h19q20 0 30.5 3.5t18.5 13.5q3 4 6 8.5l7 10.5l71 117l-93 132q-3 4 -5.5 8t-5.5 7q-8 10 -16.5 15t-21.5 5h-9v105
h270v0z" />
    <glyph glyph-name="glyph92" unicode="y" horiz-adv-x="593" 
d="M593 530v-105h-21q-11 0 -17 -3.5t-10 -13.5q-3 -8 -6.5 -19t-9.5 -27l-132 -382q-33 -96 -76 -161t-136 -65q-12 0 -27.5 3t-38.5 15l1 152q14 -6 26 -7.5t16 -1.5t7.5 0.5t7.5 1.5q17 4 31 21.5t18 61.5l-166 387q-5 12 -9.5 19.5t-8.5 11.5q-6 5 -12 6t-15 1h-2h-2
h-11v105h313v-105h-32q-8 0 -14 -2t-6 -10q0 -2 1 -5t2 -8q2 -5 2.5 -8.5t1.5 -5.5q0 -1 0.5 -1.5t0.5 -1.5l0.5 -0.5t0.5 -1.5l71 -164h10l55 172q0 1 0.5 2.5t1.5 3.5q0 1 0.5 2t0.5 3q1 3 1.5 6.5t0.5 5.5v1.5v0.5q-1 4 -3.5 7.5t-7.5 3.5h-33v105h226v0z" />
    <glyph glyph-name="glyph93" unicode="z" horiz-adv-x="547" 
d="M54 530h452v-126l-267 -287h106q26 0 33.5 4t12.5 24q0 3 1 8l2 10l7 38h105v-201h-465v120l264 293h-89q-31 0 -38 -7.5t-9 -22.5q0 -3 -0.5 -7t-1.5 -9l-7 -38h-106v201v0z" />
    <glyph glyph-name="glyph94" unicode="{" horiz-adv-x="479" 
d="M409 723v-58q-6 -1 -12 -2.5t-12 -3.5q-23 -8 -42 -31t-19 -67v-14.5v-14.5t0.5 -14.5t1.5 -14.5q0 -4 0.5 -8t1.5 -8q0 -5 0.5 -10.5t1.5 -10.5q0 -6 0.5 -12.5t0.5 -12.5q0 -79 -36.5 -125t-103.5 -75v-6q67 -28 103.5 -74t36.5 -126q0 -6 -0.5 -12t-0.5 -13
q-1 -5 -1.5 -10t-0.5 -10q-1 -4 -1.5 -8t-0.5 -8q-1 -14 -1.5 -28.5t-0.5 -29.5q0 -44 19 -67t42 -31q6 -2 12 -3.5t12 -2.5v-59q-4 1 -8.5 1h-9.5h-4h-5q-79 2 -145.5 40t-66.5 144v14.5t1 14.5q0 7 0.5 14.5t0.5 14.5t0.5 14t0.5 15q1 7 1 14.5v14.5q0 64 -24 95.5
t-52 43.5q-11 4 -21 6t-19 3v73q46 0 81 35.5t35 111.5q0 15 -0.5 30t-1.5 30q-1 14 -1.5 28.5t-0.5 28.5q0 85 44.5 124.5t97.5 52.5q20 4 39.5 6t36.5 2h5.5h5.5q2 -1 4.5 -1h5.5v0z" />
    <glyph glyph-name="glyph95" unicode="|" horiz-adv-x="228" 
d="M58 -247v983h112v-983h-112v0z" />
    <glyph glyph-name="glyph96" unicode="}" horiz-adv-x="478" 
d="M70 665v58h9.5h9.5q18 0 39 -2t43 -7q51 -13 94.5 -52t43.5 -123q0 -9 -0.5 -19t-1.5 -19q0 -5 -0.5 -9.5t-0.5 -9.5q-1 -15 -1.5 -30t-0.5 -30q0 -76 35 -111.5t81 -35.5v-73q-9 -1 -19 -3t-21 -6q-28 -12 -52 -43.5t-24 -95.5v-14.5t1 -14.5q0 -8 0.5 -15t0.5 -14
q1 -14 1.5 -28.5t0.5 -29.5q0 -102 -63 -140.5t-139 -42.5q-6 -1 -11.5 -1h-11.5h-7h-6v57q3 1 5.5 1.5t4.5 1.5q28 6 51 29t23 73q0 15 -0.5 29.5t-1.5 28.5q-1 8 -1.5 15.5t-1.5 14.5q0 8 -0.5 15.5t-0.5 15.5q0 79 36 125.5t103 74.5v6q-67 29 -103 75t-36 125
q0 8 0.5 15.5t0.5 15.5q1 8 1.5 15.5t1.5 15.5q0 7 0.5 14.5t0.5 14.5q1 7 1 14.5v14.5q0 50 -23 73t-51 29q-2 1 -4.5 1.5t-5.5 0.5v0z" />
    <glyph glyph-name="glyph97" unicode="~" horiz-adv-x="700" 
d="M550 447l92 -27q-6 -11 -16.5 -29.5t-27.5 -39.5q-23 -30 -57.5 -54.5t-78.5 -24.5q-25 0 -40 2t-28 7q-11 3 -22 8t-28 11q-41 16 -69.5 21t-48.5 5q-25 0 -44.5 -13t-30.5 -36l-93 27q31 56 75 99.5t105 43.5q29 0 49 -4.5t35 -9.5q3 -1 5.5 -2t5.5 -2q6 -2 19.5 -7
t31.5 -10l14 -4l14 -4q16 -4 31.5 -7t27.5 -3q30 0 49 15.5t29 34.5q0 1 0.5 1.5t0.5 1.5v0z" />
    <glyph glyph-name="uni007F" 
 />
    <glyph glyph-name="F" horiz-adv-x="834" 
d="M148 0v129h38q17 0 25.5 4t9.5 29v8t1 6v1v2v2v3v376h-23q-38 0 -47.5 -14t-13.5 -47q-1 -7 -2 -15.5t-2 -17.5h-117v234h622v-203h-130q-2 8 -3 15t-3 13q-4 22 -13.5 28.5t-40.5 6.5h-18v-129q13 4 27 7.5t28 6.5q18 4 35.5 6t32.5 2q22 0 52 -3t61 -12
q56 -17 103 -61.5t47 -137.5q0 -99 -69.5 -177t-206.5 -78l-32 -1v140h3.5h3.5q35 0 51 26.5t16 60.5q0 45 -25 63t-55 22q-6 0 -11.5 0.5t-11.5 0.5q-12 0 -22.5 -1t-17.5 -2q-3 -1 -5 -1.5t-4 -0.5l-1 -291h-282v0z" />
    <glyph glyph-name="uni0081" horiz-adv-x="555" 
d="M555 700v-241h-122q-1 9 -2 17t-1 15q-4 34 -13 51t-45 17h-55v-391q0 -29 10 -34t25 -5h0.5h0.5h37v-129h-355v129h38h0.5h0.5q14 0 24 5t10 34v364q0 29 -10 34t-24 5h-0.5h-0.5h-38v129h520v0z" />
    <glyph glyph-name="D" horiz-adv-x="712" 
d="M316 294v-124q0 -30 12 -35.5t26 -5.5h16v-129h-335v129h37h0.5h0.5q14 0 24 5t10 34v364q0 29 -10 34t-24 5h-0.5h-0.5h-37v129h335v-129h-16h-0.5h-0.5h-6.5t-6.5 -1q-9 -2 -16.5 -10t-7.5 -31v-94h18h5.5h4.5q4 0 7.5 1t6.5 3q8 7 17 28t26 70q4 11 8 23t8 23
q18 50 51.5 92t105.5 42q19 0 36.5 -2.5t31.5 -5.5q8 -2 14.5 -4t10.5 -3v-166q-4 2 -7.5 2h-7.5q-20 0 -32 -16.5t-22 -36.5q0 -1 -0.5 -1.5l-1.5 -1.5q0 -1 -0.5 -1.5t-0.5 -1.5q-1 -2 -2 -4.5t-2 -4.5q-17 -33 -40.5 -59t-79.5 -34v-13h4.5h3.5q7 0 14.5 -1t15.5 -2
q30 -7 57.5 -32.5t38.5 -77.5q1 -5 2 -11t3 -12q4 -13 12.5 -23.5t26.5 -10.5q3 0 5.5 0.5t5.5 0.5q3 1 5.5 1.5t5.5 0.5q2 1 3.5 1.5t2.5 0.5v-199q-7 -2 -14 -4.5t-14 -4.5q-14 -4 -27.5 -5.5t-28.5 -1.5q-81 0 -119 48.5t-67 134.5q-3 8 -5.5 16.5t-5.5 17.5
q-5 16 -9 28.5t-8 22.5q-8 22 -17.5 32t-26.5 10h-19v0z" />
    <glyph glyph-name="N" horiz-adv-x="818" 
d="M17 700h618v-203h-117q-6 13 -8 18.5t-3 10.5v0v0q0 1 -0.5 2t-0.5 2t-0.5 2t-0.5 2q-2 11 -10 18t-42 7h-22v-139q51 23 87 30t69 8q4 1 8.5 1h8.5h6h7h6h6q53 -3 78 -25t35 -48q7 -19 8 -36.5t1 -27.5v-167q0 -17 7.5 -21.5t17.5 -5.5h2.5h3.5h19v-129h-292v129h4h3
q14 0 20.5 7t6.5 24v70q0 3 -0.5 6t-0.5 7q0 3 -0.5 6.5t-0.5 6.5q-1 22 -16.5 32t-33.5 12h-5.5h-4.5h-5.5t-5.5 -1q-12 -2 -23 -9t-16 -20v-270h-283v129h38h0.5h0.5q15 0 25 5t10 34v392h-22h-2.5h-2.5q-26 0 -36 -6t-17 -41q-1 -9 -3 -21t-4 -26h-118v235v0z" />
    <glyph glyph-name="bullet" horiz-adv-x="778" 
d="M35 700h322v-129h-5q-22 0 -28.5 -8.5t-6.5 -31.5v-390h144v390q0 23 -6 31.5t-30 8.5h-5v129h323v-129h-38h-0.5h-0.5q-14 0 -24 -5t-10 -34v-364q0 -29 10 -34t24 -5h0.5h0.5h38v-129h-285v-243h-138v243h-285v129h38h0.5h0.5q14 0 24 5t10 34v364q0 29 -10 34t-24 5
h-0.5h-0.5h-38v129v0z" />
    <glyph glyph-name="guilsinglleft" horiz-adv-x="656" 
d="M35 800h231v-148h131v-82h-131v-96q5 3 12 6.5t16 7.5q18 6 44 12t60 6q141 0 182 -98t41 -256q0 -163 -41 -280.5t-184 -117.5q-46 0 -76.5 11t-49.5 24q-8 5 -14.5 10.5t-10.5 10.5l13 81q24 -13 47.5 -16.5t42.5 -3.5q29 0 45 19.5t16 88.5v268v4.5v4.5q0 56 -8.5 96
t-59.5 40q-8 0 -17 -1.5t-19 -4.5q-10 -4 -20.5 -10.5t-18.5 -17.5v-221v-3.5v-4.5v-2v-2q1 -8 7 -14t24 -6h3v-105h-265v105h19q19 0 25.5 6.5t6.5 25.5v433h-51v82h51v12q0 23 -9.5 27t-22.5 4h-19v105v0z" />
    <glyph glyph-name="O" horiz-adv-x="629" 
d="M277 333h23q14 0 22 9.5t15 27.5q4 8 7.5 18t7.5 21l2 6t3 6q18 50 48.5 85t123.5 35q6 0 16 -1t20 -3q5 -1 9.5 -1.5t9.5 -1.5q2 0 5 -0.5t5 -1.5v-127q-23 -5 -34 -12.5t-20 -18.5l-6 -8t-6 -9q-3 -4 -6 -8.5t-6 -8.5q-13 -18 -34 -33.5t-59 -21.5v-10h4.5h5.5
q35 0 63.5 -21t37.5 -60q1 -5 2 -9t2 -7q5 -17 10.5 -21t15.5 -4h3.5h2.5h5.5h4.5q3 1 6.5 1.5t7.5 2.5v-152q-10 -4 -19 -6.5t-18 -4.5q-11 -2 -22.5 -3t-23.5 -1h-6.5h-7.5q-43 3 -83.5 32t-67.5 126q-2 6 -3.5 11.5t-3.5 10.5q-7 23 -16.5 34.5t-26.5 11.5h-19v-79
q0 -22 9.5 -27t22.5 -5h7v-105h-269v105h18h1.5h1.5h4h5q7 1 13.5 7t6.5 25v256v1.5v0.5v1.5v1.5q0 10 -4.5 18.5t-27.5 8.5h-18v105h275v-105h-13q-14 0 -23 -5t-9 -27v-60v0z" />
    <glyph glyph-name="tilde" horiz-adv-x="666" 
d="M47 0v105h19q17 0 24.5 6t7.5 23v1.5v1.5v433h-51v82h51v12q0 23 -9.5 27t-22.5 4h-19v105h231v-148h132v-82h-132v-80h5q53 38 101 44.5t71 6.5h3h2q53 0 78 -21.5t34 -47.5q6 -18 7 -34.5t1 -25.5v-20.5t1 -9.5v-2v-1v-4.5v-7.5v-230q0 -22 9 -27t22 -5h19v-105h-263
v105h7q17 0 21.5 8t4.5 24v222q0 6 -0.5 13t-2.5 14q-4 15 -15.5 27t-36.5 12q-6 0 -12.5 -0.5t-13.5 -2.5q-16 -3 -29 -17t-13 -46v-222v-2v-1v-2v-2v-1.5v-1.5q0 -8 6 -15t25 -7h4v-105h-266v0z" />
    <glyph glyph-name="uni00A0" unicode="&#xa0;" 
 />
    <glyph glyph-name="Z" unicode="&#xa1;" horiz-adv-x="692" 
d="M11 700h342v-129h-12h-4.5t-4.5 -1q-5 -1 -9 -4.5t-4 -11.5q0 -5 1 -9t3 -8q1 -3 3 -6t4 -7l72 -139l47 126q1 3 2.5 6.5t3.5 7.5q1 3 1.5 5.5t1.5 5.5q2 5 3 10t1 9q0 10 -6 13t-13 3h-4h-4h-1.5h-1.5h-12v129h261v-129q-41 -1 -52.5 -10.5t-17.5 -29.5q0 -1 -0.5 -1.5
t-0.5 -1.5q-1 -2 -1.5 -3.5t-0.5 -3.5v0v-1q-1 -1 -1.5 -3t-1.5 -5t-2 -5.5t-2 -5.5q-2 -3 -3 -5.5t-2 -5.5l-75 -202q-40 -107 -72.5 -168t-63.5 -92q-32 -30 -66 -37t-76 -7q-27 0 -49.5 2t-44.5 7q-7 2 -13.5 4t-13.5 3l-1 182q26 -19 46 -24t30 -5q27 0 42.5 9t25.5 32
l-161 305q-10 20 -17 33t-14 21q-7 9 -16 12.5t-24 4.5l-22 1v129v0zM426 895h142q-1 -67 -58.5 -114t-143.5 -47q-91 0 -144 47t-59 114h143q6 -26 19 -42.5t41 -16.5h6t6 1q14 3 27.5 15.5t20.5 42.5v0z" />
    <glyph glyph-name="cent" unicode="&#xa2;" horiz-adv-x="593" 
d="M593 530v-105h-22q-12 0 -18 -5t-10 -17q-3 -8 -6 -18t-8 -23l-132 -382q-33 -95 -76 -160.5t-136 -65.5q-14 0 -30.5 3.5t-35.5 14.5v152q5 -1 10.5 -3t11.5 -3q5 -2 10.5 -2.5t10.5 -0.5q4 0 7.5 0.5t7.5 1.5q17 4 31 21.5t18 61.5l-167 387q-2 4 -3.5 8t-2.5 7
q-5 12 -13 17.5t-29 5.5h-11v105h313v-105h-18h-1.5h-0.5h-1.5h-1.5h-1.5h-0.5h-1.5h-1.5h-5.5h-4.5q-1 -1 -1.5 -1h-1.5h-0.5h-0.5q-4 -1 -6.5 -2.5t-3.5 -8.5v-2.5v-3.5q0 -1 0.5 -3t1.5 -3q1 -2 1.5 -3.5t1.5 -3.5t1.5 -3.5t0.5 -3.5q0 -1 0.5 -2.5t1.5 -3.5l71 -164h10
l54 172q3 10 4.5 14t1.5 8v0.5v0.5q0 9 -5.5 11t-12.5 2h-4.5h-4.5h-17v105h226v0zM95 745h148q0 -5 1 -11t3 -12q6 -14 20 -26.5t42 -12.5q32 0 47.5 18t15.5 42v0.5v0.5v0.5v0.5h149q-4 -76 -65.5 -123.5t-147.5 -47.5q-10 0 -20 1l-20 2q-65 11 -118.5 54t-54.5 114v0z
" />
    <glyph glyph-name="endash" unicode="&#xa3;" horiz-adv-x="398" 
d="M363 700v-129h-29q-25 0 -29.5 -11.5t-4.5 -28.5v-293q0 -134 -40 -185t-88 -62q-18 -5 -35.5 -6t-32.5 -1h-8.5h-9.5q-20 1 -40.5 6t-45.5 18v143q12 -13 25 -20.5t30 -7.5q3 0 7 0.5t9 2.5q8 3 14 13t6 31v362q0 29 -10 34t-25 5h-0.5h-0.5h-38v129h346v0z" />
    <glyph glyph-name="currency" unicode="&#xa4;" horiz-adv-x="781" 
d="M118 680l99 -99q36 25 81 41.5t93 16.5q19 0 39.5 -3t41.5 -9q24 -7 47 -18.5t44 -27.5l101 100l59 -60l-100 -100q3 -4 6 -8.5t6 -8.5q32 -48 39 -92t7 -63q0 -22 -4 -46.5t-13 -49.5q-6 -20 -16.5 -39.5t-24.5 -38.5l99 -99l-58 -60l-100 99q-21 -15 -42.5 -26
t-43.5 -17q-23 -7 -44.5 -10.5t-42.5 -3.5q-48 0 -93 16t-81 41l-99 -99l-60 60l100 100q-15 21 -26 42.5t-17 44.5q-7 22 -10.5 43.5t-3.5 42.5t3.5 44t11.5 47q7 21 17.5 41.5t24.5 39.5l-100 100l60 59v0zM217 349q0 -75 49.5 -121t108.5 -52q4 -1 8 -1h8h6.5t6.5 1
q60 5 110 51.5t50 121.5q0 74 -50 120.5t-110 51.5q-3 1 -6.5 1h-6.5h-5.5h-5.5q-61 -5 -112 -51.5t-51 -121.5v0z" />
    <glyph glyph-name="emdash" unicode="&#xa5;" horiz-adv-x="566" 
d="M35 0v129h38h0.5h0.5q14 0 24 5t10 34v364q0 29 -10 34t-24 5h-0.5h-0.5h-38v129h337q36 0 45 17t13 51q0 7 1 15t2 17h122v-241h-238v-390q0 -23 6.5 -31.5t28.5 -8.5h38v-129h-355v0z" />
    <glyph glyph-name="circumflex" unicode="&#xa6;" horiz-adv-x="373" 
d="M58 117v2.5v3.5q2 46 37.5 84t91.5 38h5.5h5.5q44 -4 80.5 -38t36.5 -90q0 -50 -35 -88.5t-93 -38.5t-93.5 39t-35.5 88v0zM58 413q0 48 36 88t93 40h5.5h5.5q44 -4 80.5 -37.5t36.5 -90.5q0 -55 -36.5 -89.5t-80.5 -38.5h-5.5h-5.5q-56 0 -91.5 38t-37.5 84v3.5v2.5v0z
" />
    <glyph glyph-name="scaron" unicode="&#xa7;" horiz-adv-x="696" 
d="M602 503h-149v5.5t1 5.5v4.5v5.5q-1 40 -15 63.5t-61 23.5q-33 0 -50 -13t-23 -28q-2 -6 -3 -12.5t-1 -11.5q0 -37 40.5 -65.5t89.5 -51.5q20 -10 39 -19t36 -18l14 -8t13 -7q44 -26 68.5 -56t24.5 -82q0 -5 -0.5 -9.5t-0.5 -9.5q-6 -40 -29.5 -78.5t-50.5 -65.5
q-2 -1 -4 -3l-4 -4v-5q3 -3 6 -5.5t6 -6.5q13 -15 23.5 -38.5t10.5 -60.5q0 -77 -78 -129.5t-200 -52.5q-21 0 -49.5 4t-58.5 15q-35 12 -67.5 34.5t-53.5 59.5v101h150v-30q0 -35 12.5 -57t58.5 -22q5 0 9.5 0.5t9.5 0.5q23 4 42.5 18t19.5 43q0 31 -19.5 49.5t-49.5 34.5
q-10 5 -20.5 10t-21.5 11q-1 0 -1.5 0.5t-1.5 0.5q-11 6 -21.5 11t-21.5 10q-60 29 -105.5 64.5t-45.5 101.5v4.5v4.5q3 39 29.5 76t84.5 65v11q-12 9 -21 18t-17 18q-26 33 -31 63.5t-5 51.5q0 4 0.5 8t0.5 8q8 59 70.5 108.5t176.5 49.5h3.5h2.5q70 -1 134.5 -29
t103.5 -84v-101v0zM302 207l132 -74l3.5 3.5l3.5 3.5q9 11 14.5 22.5t5.5 25.5q0 16 -13.5 29t-34.5 25q-10 6 -21.5 12.5t-23.5 12.5q-2 1 -4 2.5t-4 2.5l-94 56q-12 -3 -19 -13t-10 -20q-1 -4 -1.5 -8t-0.5 -8q0 -21 16.5 -36.5t35.5 -27.5q4 -2 7.5 -4t7.5 -4v0z" />
    <glyph glyph-name="H" unicode="&#xa8;" horiz-adv-x="633" 
d="M35 700h552v-213h-128q-2 12 -3 19.5t-1 12.5q-1 3 -1.5 5.5t-1.5 4.5v0.5v0.5q-7 22 -16.5 25.5t-31.5 3.5h-3.5h-2.5h-81v-133h137v-141h-137v-144h76q39 0 51 10.5t16 26.5q2 5 3 9.5t2 10.5q1 5 1.5 10t1.5 9h130v-217h-563v129h38h0.5h0.5q14 0 24 5t10 34v364
q0 29 -10 34t-24 5h-0.5h-0.5h-38v129v0zM82 839q0 38 26.5 68.5t72.5 30.5q44 0 71.5 -30.5t27.5 -68.5v-1.5v-1.5q-1 -36 -28.5 -66t-70.5 -30q-44 0 -70 28.5t-29 62.5v4v4v0zM349 839q0 44 28.5 70t62.5 29h4h4q45 0 71.5 -30t27.5 -66v-1.5v-1.5v-4v-4
q-3 -34 -29 -62.5t-70 -28.5h-1.5h-1.5q-36 1 -66 28t-30 71v0z" />
    <glyph glyph-name="I" unicode="&#xa9;" horiz-adv-x="946" 
d="M58 360q0 181 122 292.5t268 120.5q6 1 12.5 1h12.5h10t10 -1q148 -7 271.5 -119t123.5 -294q0 -183 -122 -293.5t-268 -119.5q-6 -1 -12.5 -1h-12.5q-183 0 -295 123t-119 271q-1 5 -1 10v10v0zM158 360q0 -118 86.5 -216.5t228.5 -98.5q143 0 229.5 98.5t86.5 216.5
v4.5v4.5q-4 115 -89.5 210.5t-226.5 95.5q-140 0 -225.5 -95.5t-89.5 -210.5v-4.5v-4.5v0zM529 317h160q-1 -9 -2.5 -18.5t-3.5 -18.5q-14 -56 -60 -102t-144 -46q-52 0 -86.5 13.5t-55.5 28.5q-13 10 -21.5 19.5t-13.5 15.5q-8 10 -14 20.5t-10 21.5q-14 31 -17.5 60
t-3.5 48q0 37 8 65.5t17 47.5q7 14 13.5 23t9.5 13q14 17 28.5 29.5t29.5 20.5q35 20 66.5 24t48.5 4q104 0 152.5 -55t55.5 -122h-158v3.5v3.5q0 33 -9 49t-20 21q-5 3 -10.5 4t-9.5 1q-29 0 -39 -25t-11 -55q-1 -8 -1 -15.5v-14.5v-42q0 -73 16 -92t35 -19q25 0 36.5 18.5
t13.5 70.5v0z" />
    <glyph glyph-name="J" unicode="&#xaa;" horiz-adv-x="709" 
d="M453 280h221q-1 -14 -2.5 -29t-5.5 -30q-19 -89 -92.5 -163t-225.5 -74q-24 0 -63 6t-82 27q-26 14 -52 36t-48 54q-15 23 -26.5 47.5t-19.5 49.5q-12 40 -17 78t-5 68q0 26 4 73.5t22 98.5q25 73 90.5 134t198.5 61q151 0 230.5 -76.5t84.5 -186.5h-222q0 10 -1.5 24.5
t-6.5 30.5q-7 26 -26 47t-57 21q-36 0 -60 -22t-24 -90v-36h141v-152h-141v-22q0 -60 15.5 -87.5t34.5 -35.5q11 -6 22 -7t18 -1t18.5 1t24.5 7q19 9 35.5 34t16.5 80v34v0z" />
    <glyph glyph-name="ampersand" unicode="&#xab;" horiz-adv-x="748" 
d="M58 306l199 286l134 -40l-143 -258l108 -270l-126 -24l-172 306v0zM359 298l171 245l125 -37l-106 -218l93 -229l-135 -26l-148 265v0z" />
    <glyph glyph-name="quotesingle" unicode="&#xac;" horiz-adv-x="647" 
d="M460 163v113h-402v129h531v-242h-129v0z" />
    <glyph glyph-name="daggerdbl" unicode="&#xad;" horiz-adv-x="473" 
d="M58 213v140h357v-140h-357v0z" />
    <glyph glyph-name="dagger" unicode="&#xae;" horiz-adv-x="992" 
d="M58 360q0 190 126.5 307.5t279.5 129.5q8 0 16 0.5t16 0.5h11.5t10.5 -1q156 -8 286 -126t130 -311q0 -194 -131.5 -311.5t-289.5 -124.5h-8.5h-8.5h-14t-13 1q-154 10 -282.5 127t-128.5 308v0zM161 360v-10t1 -9q7 -119 97 -217.5t237 -98.5t237 98.5t97 217.5q1 4 1 9
v10v12t-1 12q-9 117 -99 214t-235 97h-7.5h-6.5q-120 -6 -220.5 -97t-100.5 -238v0zM306 584h156q99 0 156 -20t57 -105q0 -29 -11 -48t-25 -31q-5 -4 -10 -7.5t-10 -6.5l33 -69q20 -42 37 -50.5t21 -9.5h1.5h1.5q2 0 4 -0.5l6 -1.5v-78h-207v78q3 2 5 2h3t3 0.5t4 1.5
q3 2 5 4.5t2 7.5q0 2 -0.5 4.5t-1.5 4.5q-1 4 -3 8t-4 7q0 1 -0.5 1.5l-1.5 1.5l-23 47h-35v-56v-1.5v-1.5v0l1 -1v-2v-3v-2.5v-2.5v-0.5v-0.5q0 -8 2.5 -12.5t17.5 -6.5v-78h-184v78h17q9 0 13.5 2.5t6.5 6.5q0 1 0.5 2.5t0.5 2.5v3v3v2.5v2.5v1.5v1.5v3.5v2.5v203v2.5v2.5
v2.5v2.5v4v3v2.5v1.5q-1 6 -4 8.5t-7 3.5q-3 1 -5 1h-4h-0.5h-0.5h-17v78v0zM469 496v-86h4.5h4.5q33 0 44 14.5t11 31.5q0 26 -16.5 33t-39.5 7h-2h-2h-2h-2v0z" />
    <glyph glyph-name="macron" unicode="&#xaf;" horiz-adv-x="513" 
d="M425 700v-129h-28q-27 0 -31.5 -11t-4.5 -27v-1.5v-0.5v-363q0 -29 10 -34t25 -5h0.5h0.5h28v-129h-336v129h28h0.5h0.5q14 0 24 5t10 34v363q0 17 -4.5 28.5t-30.5 11.5h-28v129h336v0zM23 839q0 46 31.5 72.5t68.5 26.5q44 0 71.5 -30.5t27.5 -68.5v-1.5v-1.5
q-1 -36 -28.5 -66t-70.5 -30q-37 0 -68.5 27t-31.5 72v0zM291 839q0 44 28.5 70t62.5 29h4h4q43 0 71 -30t29 -66v-1.5v-1.5v-4v-4q-3 -34 -30 -62.5t-70 -28.5q-45 0 -71.5 30t-27.5 66v1.5v1.5v0z" />
    <glyph glyph-name="degree" unicode="&#xb0;" horiz-adv-x="408" 
d="M58 572q0 68 45.5 106.5t100.5 38.5q66 0 106 -44.5t40 -100.5q0 -64 -44 -104t-96 -42h-3.5h-2.5q-55 0 -100.5 40t-45.5 106v0zM141 572q0 -29 19 -45.5t41 -17.5h1.5h1.5q25 0 44.5 16.5t19.5 46.5q0 28 -18.5 45t-40.5 19h-2.5h-2.5h-4h-4q-20 -3 -37.5 -19.5
t-17.5 -44.5v0z" />
    <glyph glyph-name="at" unicode="&#xb1;" horiz-adv-x="635" 
d="M58 0v129h519v-129h-519v0zM382 175h-128v195h-196v128h196v195h128v-195h195v-128h-195v-195v0z" />
    <glyph glyph-name="P" unicode="&#xb2;" horiz-adv-x="425" 
d="M35 0v129h38h0.5h0.5q14 0 24 5t10 34v364q0 29 -10 34t-24 5h-0.5h-0.5h-38v129h355v-129h-37h-0.5h-0.5q-15 0 -25 -5t-10 -34v-364q0 -29 10 -34t25 -5h0.5h0.5h37v-129h-355v0z" />
    <glyph glyph-name="S" unicode="&#xb3;" horiz-adv-x="372" 
d="M51 0v105h13q18 0 24 6t7 13v3.5v2.5v4v3v256v3.5v2.5v3.5v3.5q-2 7 -8 13t-23 6h-17v105h278v-105h-18q-22 0 -27 -8.5t-5 -23.5v-256q0 -19 6.5 -25.5t25.5 -6.5h18v-105h-274v0zM87 703v1.5v1.5q1 36 28.5 66t70.5 30q44 0 70 -28.5t29 -62.5v-4v-4q0 -44 -30 -71.5
t-66 -28.5h-1.5h-1.5q-40 0 -67 28t-31 62q-1 2 -1 4.5v5.5v0z" />
    <glyph glyph-name="T" unicode="&#xb4;" horiz-adv-x="501" 
d="M47 530h269h4.5h4.5q2 -1 4 -1h4q11 0 20.5 8.5t14.5 39.5l4 25h106v-189h-201v-276q0 -22 9.5 -27t22.5 -5h28v-105h-290v105h18q14 0 23 5t9 27v256q0 15 -5 23.5t-27 8.5h-18v105v0z" />
    <glyph glyph-name="U" unicode="&#xb5;" horiz-adv-x="609" 
d="M35 530h181v-276v-1.5v-1.5q0 -12 0.5 -28.5t3.5 -34.5q5 -30 21.5 -56t55.5 -26q7 0 17 2.5t21 10.5q17 13 31.5 45t14.5 93v273h181v-530h-137v119h-3q-11 -49 -46.5 -89t-87.5 -40q-40 0 -66.5 20.5t-41.5 46.5q-6 10 -10.5 19.5t-7.5 17.5v-334l-127 1v769v0z" />
    <glyph glyph-name="V" unicode="&#xb6;" horiz-adv-x="848" 
d="M551 -247v822h-123v-822h-125v622h-18q-14 0 -32 2t-37 8q-37 12 -68 44.5t-31 100.5q0 86 43.5 120.5t96.5 43.5q23 4 45.5 5t41.5 1h387v-125h-55v-822h-125v0z" />
    <glyph glyph-name="quoteleft" unicode="&#xb8;" horiz-adv-x="513" 
d="M340 163h169q-15 -67 -75.5 -120t-171.5 -53q-65 0 -108 17.5t-70 39.5q-11 9 -19 18t-14 16q-26 32 -39 77.5t-14 94.5v4v4q0 27 5 61.5t21 69.5q6 13 13.5 26t17.5 26q5 6 10.5 12.5t12.5 12.5q28 27 73.5 49.5t111.5 22.5h1.5h1.5h0.5h1.5h2h2h2h2q125 0 182.5 -97.5
t57.5 -216.5h-313v-25q0 -48 13.5 -72t57.5 -24q6 0 12 1t12 3q13 4 25 16t17 37v0zM207 332h133q-1 41 -15.5 67t-50.5 26q-4 0 -7.5 -0.5t-7.5 -1.5q-19 -5 -35.5 -24.5t-16.5 -57.5v-4.5v-4.5v0zM23 703v4v4q3 34 30.5 62.5t69.5 28.5q46 0 72 -30t27 -66v-1.5v-1.5
q0 -44 -30 -71.5t-66 -28.5h-1.5h-1.5q-41 0 -68 28t-31 62q-1 2 -1 4.5v5.5v0zM291 703q0 45 30 71.5t66 27.5h1.5h1.5q43 0 70 -28.5t30 -62.5v-4v-4q0 -4 -0.5 -7.5t-0.5 -6.5q-6 -33 -32.5 -59.5t-66.5 -26.5h-4h-4q-34 3 -62.5 30.5t-28.5 69.5v0z" />
    <glyph glyph-name="one" unicode="&#xb9;" horiz-adv-x="1247" 
d="M307 700l226 -381h5v212q0 17 -4.5 28.5t-30.5 11.5h-27v129h253v-129h-27q-26 0 -30.5 -11.5t-4.5 -28.5v-531h-191l-222 375h-5l-1 -207q0 -29 10 -34t23 -5h0.5h0.5h28v-129h-252v129h28h0.5h0.5q13 0 23 5t10 34v363q0 17 -4 28.5t-30 11.5h-28v129h249v0zM799 0v132
h354v-132h-354v0zM756 440q0 20 3 46t12 53q16 53 61.5 97t139.5 44q96 0 141.5 -44t61.5 -97q9 -27 11.5 -53t2.5 -46t-2.5 -45.5t-10.5 -51.5q-16 -53 -61.5 -97.5t-142.5 -44.5q-95 0 -140.5 44.5t-61.5 97.5q-8 26 -11 51.5t-3 45.5v0zM972 567q-19 0 -31 -15.5
t-11 -68.5v-43.5v-42.5v-7.5v-7.5v-4v-4q1 -23 8.5 -42t33.5 -19q21 0 29.5 15t10.5 33q1 8 1 16v15v2.5v2.5v86q0 55 -11.5 69.5t-29.5 14.5v0z" />
    <glyph glyph-name="G" unicode="&#xba;" horiz-adv-x="575" 
d="M543 355h-191q-4 32 -16.5 51t-44.5 19q-37 0 -48 -23.5t-11 -59.5v-2v-2v-2v-2h100v-117h-100q-1 -49 11 -80.5t50 -31.5q5 0 12 1.5t15 4.5q13 7 23.5 22.5t10.5 45.5v22h198v-2.5v-2.5v-3v-3q0 -7 -0.5 -13.5t-1.5 -13.5q-10 -65 -71.5 -119t-185.5 -54
q-67 0 -125 24.5t-90 67.5l-11 16.5t-14 25.5q-11 23 -20.5 58.5t-9.5 83.5q0 24 2.5 40t6.5 30q1 4 2 8.5t2 8.5q2 9 11.5 35.5t32.5 56.5q28 36 81 66t143 30q104 0 166.5 -53.5t72.5 -132.5v0z" />
    <glyph glyph-name="bracketleft" unicode="&#xbb;" horiz-adv-x="747" 
d="M689 306l-171 -306l-126 24l107 270l-143 258l134 40l199 -286v0zM388 298l-147 -265l-135 26l92 229l-105 218l125 37l170 -245v0z" />
    <glyph glyph-name="w" unicode="&#xbc;" horiz-adv-x="384" 
d="M305 530v-555q0 -122 -57 -166t-126 -47h-5.5h-5.5q-25 0 -49 3.5t-45 8.5l20 135q8 -5 16.5 -9t19.5 -5q2 -1 4.5 -1h4.5h2h2q1 1 2 1h2q23 4 29 23t6 45v430q0 21 -9.5 26.5t-24.5 5.5h-36v105h250v0zM98 701v1.5v1.5q1 36 29 66t71 30h4h4q34 -3 62.5 -29t28.5 -70
v-1.5v-1.5q-1 -36 -28 -66t-71 -30q-42 0 -69.5 28.5t-30.5 62.5v4v4v0z" />
    <glyph glyph-name="bracketright" unicode="&#xbd;" horiz-adv-x="638" 
d="M17 198h224q-1 -4 -1 -7.5v-7.5v-4v-3q2 -20 18 -36t55 -16q30 0 44.5 9t20.5 20q3 8 4 14.5t1 10.5q0 18 -12 29.5t-26 18.5q-6 3 -11.5 5.5t-10.5 4.5q-31 12 -58.5 23.5t-52.5 22.5q-83 36 -129.5 80.5t-46.5 130.5q0 101 52 148t114 63q33 8 64.5 10.5t55.5 2.5
q22 0 46.5 -1t49.5 -4q75 -10 138 -53t63 -153v-7v-6h-222v24q0 5 -0.5 11t-1.5 12q-4 14 -17 25.5t-45 11.5q-29 0 -44 -14.5t-15 -43.5q0 -22 10 -35t41 -25q6 -2 13 -4.5t15 -4.5q108 -31 188 -76.5t80 -155.5q0 -98 -50.5 -147t-111.5 -68q-44 -13 -84.5 -16t-61.5 -3
q-25 0 -56.5 1.5t-64.5 8.5q-66 12 -121 56.5t-54 147.5v0z" />
    <glyph glyph-name="R" unicode="&#xbe;" horiz-adv-x="506" 
d="M23 147h172q1 -18 10.5 -26.5t20.5 -11.5q7 -2 14.5 -2.5t11.5 -0.5h11t12 1q13 2 24 7.5t11 19.5q0 15 -15.5 25.5t-33.5 18.5q-10 4 -19 7t-16 5q-76 26 -133 63.5t-57 119.5q0 73 56 120.5t168 47.5q89 0 153.5 -28t68.5 -132l-170 -1l-1.5 6t-0.5 4v1.5v1.5
q-1 12 -8.5 19t-16.5 9q-8 3 -15.5 3.5t-9.5 0.5q-27 0 -38 -9.5t-11 -21.5q0 -20 18.5 -30t48.5 -18q13 -3 27.5 -6.5t30.5 -7.5q12 -3 27 -8t31 -13q33 -16 61 -48t28 -90q0 -13 -3.5 -37t-18.5 -50q-21 -36 -72 -66t-153 -30q-113 0 -158 40.5t-53 89.5q-1 6 -1.5 13
t-0.5 14v0z" />
    <glyph glyph-name="underscore" unicode="&#xbf;" horiz-adv-x="489" 
d="M109 0v105h14q20 0 25.5 7t5.5 15v1.5v1.5v2v2v1v2v256v4.5v5.5v2v2q-1 7 -7 12.5t-24 5.5h-18v105h279v-105h-18q-22 0 -27 -8.5t-5 -23.5v-256q0 -19 6.5 -25.5t25.5 -6.5h18v-105h-275v0zM11 703v1.5v1.5q1 36 28.5 66t70.5 30q38 0 69 -27t31 -72q0 -43 -29.5 -70.5
t-64.5 -29.5h-3.5h-2.5q-40 0 -67 28t-31 62q-1 2 -1 4.5v5.5v0zM279 703v1.5v1.5q1 36 28.5 66t70.5 30q38 0 69 -27t31 -72q0 -43 -29.5 -70.5t-64.5 -29.5h-3.5h-2.5q-40 0 -67 28t-31 62q-1 2 -1 4.5v5.5v0z" />
    <glyph glyph-name="grave" unicode="&#xc0;" horiz-adv-x="754" 
d="M536 700l141 -512q1 -4 2 -7.5t2 -6.5q6 -20 15 -32.5t32 -12.5h15v-129h-334v129h24h3.5h3.5h2h2q6 1 11 4t5 12q0 4 -1 8.5t-3 11.5q0 3 -0.5 4.5t-1.5 3.5q0 1 -0.5 2t-0.5 3h-207q-1 -2 -2 -5t-2 -5q-1 -4 -1.5 -8t-0.5 -6q0 -13 5.5 -18t11.5 -6q4 -1 7 -1h5h10
v-129h-268v129h16q19 0 30 7.5t20 28.5q4 9 8 21t9 28l97 310q5 16 6.5 22.5t1.5 10.5q0 6 -5 10t-37 4h-17v129h396v0zM351 519l-61 -200h122l-56 200h-5v0z" />
    <glyph glyph-name="grave" unicode="&#x410;" horiz-adv-x="754" 
d="M536 700l141 -512q1 -4 2 -7.5t2 -6.5q6 -20 15 -32.5t32 -12.5h15v-129h-334v129h24h3.5h3.5h2h2q6 1 11 4t5 12q0 4 -1 8.5t-3 11.5q0 3 -0.5 4.5t-1.5 3.5q0 1 -0.5 2t-0.5 3h-207q-1 -2 -2 -5t-2 -5q-1 -4 -1.5 -8t-0.5 -6q0 -13 5.5 -18t11.5 -6q4 -1 7 -1h5h10
v-129h-268v129h16q19 0 30 7.5t20 28.5q4 9 8 21t9 28l97 310q5 16 6.5 22.5t1.5 10.5q0 6 -5 10t-37 4h-17v129h396v0zM351 519l-61 -200h122l-56 200h-5v0z" />
    <glyph glyph-name="a" unicode="&#xc1;" horiz-adv-x="687" 
d="M599 700v-200h-123l-2 15v0.5v1.5q-3 21 -11.5 32t-43.5 11h-102v-133h77q131 0 200.5 -51t69.5 -161q0 -144 -106 -179.5t-264 -35.5h-259v129h38h0.5h0.5q14 0 24 5t10 34v364q0 29 -10 34t-24 5h-0.5h-0.5h-38v129h564v0zM317 141h12h2.5h2.5q8 0 19 0.5t22 2.5
q21 4 38.5 19.5t17.5 52.5q0 41 -26.5 55.5t-57.5 15.5h-3.5h-2.5h-12t-12 -1v-145v0z" />
    <glyph glyph-name="a" unicode="&#x411;" horiz-adv-x="687" 
d="M599 700v-200h-123l-2 15v0.5v1.5q-3 21 -11.5 32t-43.5 11h-102v-133h77q131 0 200.5 -51t69.5 -161q0 -144 -106 -179.5t-264 -35.5h-259v129h38h0.5h0.5q14 0 24 5t10 34v364q0 29 -10 34t-24 5h-0.5h-0.5h-38v129h564v0zM317 141h12h2.5h2.5q8 0 19 0.5t22 2.5
q21 4 38.5 19.5t17.5 52.5q0 41 -26.5 55.5t-57.5 15.5h-3.5h-2.5h-12t-12 -1v-145v0z" />
    <glyph glyph-name="b" unicode="&#xc2;" horiz-adv-x="689" 
d="M35 700h285h1.5h1.5q128 0 228 -22t100 -155q0 -61 -40 -106.5t-103 -45.5h-12v-9h19q8 0 16 -1t16 -3q47 -10 86 -51.5t39 -116.5q0 -143 -108 -166.5t-269 -23.5h-5.5h-4.5h-250v129h38h0.5h0.5q14 0 24 5t10 34v364q0 29 -10 34t-24 5h-0.5h-0.5h-38v129v0zM317 141
h20q44 0 73 13.5t29 61.5q0 34 -17.5 47t-38.5 17q-10 1 -19 1.5t-17 0.5h-30v-141v0zM317 423h19h2h1h13t13 1q25 1 45.5 13t20.5 50q0 37 -16 51.5t-36 18.5q-9 1 -18 1.5t-16 0.5h-0.5h-0.5h-27v-136v0z" />
    <glyph glyph-name="b" unicode="&#x412;" horiz-adv-x="689" 
d="M35 700h285h1.5h1.5q128 0 228 -22t100 -155q0 -61 -40 -106.5t-103 -45.5h-12v-9h19q8 0 16 -1t16 -3q47 -10 86 -51.5t39 -116.5q0 -143 -108 -166.5t-269 -23.5h-5.5h-4.5h-250v129h38h0.5h0.5q14 0 24 5t10 34v364q0 29 -10 34t-24 5h-0.5h-0.5h-38v129v0zM317 141
h20q44 0 73 13.5t29 61.5q0 34 -17.5 47t-38.5 17q-10 1 -19 1.5t-17 0.5h-30v-141v0zM317 423h19h2h1h13t13 1q25 1 45.5 13t20.5 50q0 37 -16 51.5t-36 18.5q-9 1 -18 1.5t-16 0.5h-0.5h-0.5h-27v-136v0z" />
    <glyph glyph-name="c" unicode="&#xc3;" horiz-adv-x="555" 
d="M555 700v-241h-122q-1 9 -2 17t-1 15q-4 34 -13 51t-45 17h-55v-391q0 -29 10 -34t25 -5h0.5h0.5h37v-129h-355v129h38h0.5h0.5q14 0 24 5t10 34v364q0 29 -10 34t-24 5h-0.5h-0.5h-38v129h520v0z" />
    <glyph glyph-name="c" unicode="&#x413;" horiz-adv-x="555" 
d="M555 700v-241h-122q-1 9 -2 17t-1 15q-4 34 -13 51t-45 17h-55v-391q0 -29 10 -34t25 -5h0.5h0.5h37v-129h-355v129h38h0.5h0.5q14 0 24 5t10 34v364q0 29 -10 34t-24 5h-0.5h-0.5h-38v129h520v0z" />
    <glyph glyph-name="d" unicode="&#xc4;" horiz-adv-x="734" 
d="M72 700h628v-129h-27q-25 0 -30.5 -8.5t-5.5 -31.5v-340q0 -23 6.5 -31.5t29.5 -8.5h36v-305h-123q-1 18 -2 28t-2 17q0 1 -0.5 2.5t-0.5 3.5t-0.5 4t-0.5 4q-2 18 -3 26t-1 12v2v2t-0.5 3t-0.5 4q-4 32 -14.5 39t-27.5 7h-8.5h-9.5h-321h-7h-6q-10 0 -15.5 -6t-9.5 -33
l-18 -115h-123v305q62 9 81.5 51t30.5 111q2 9 3 18t3 19q1 8 2.5 17l3.5 21q3 22 6 52t3 65v9.5v8.5v5.5v4.5v4.5v5.5v0.5v0.5q0 14 -7 20.5t-49 6.5h-20v129v0zM428 141v418h-118q-1 -37 -2.5 -66t-3.5 -55q-1 -2 -1 -3.5v-3.5q-1 -13 -1.5 -21t-1.5 -14q0 -3 -0.5 -7
t-0.5 -8q0 -6 -0.5 -11.5t-1.5 -10.5q0 -3 -0.5 -6t-0.5 -6q-1 -13 -3 -29t-6 -45q-1 -4 -1.5 -8.5t-0.5 -8.5q-1 -5 -1.5 -10t-1.5 -10q-3 -21 -8 -43.5t-14 -51.5h168v0z" />
    <glyph glyph-name="d" unicode="&#x414;" horiz-adv-x="734" 
d="M72 700h628v-129h-27q-25 0 -30.5 -8.5t-5.5 -31.5v-340q0 -23 6.5 -31.5t29.5 -8.5h36v-305h-123q-1 18 -2 28t-2 17q0 1 -0.5 2.5t-0.5 3.5t-0.5 4t-0.5 4q-2 18 -3 26t-1 12v2v2t-0.5 3t-0.5 4q-4 32 -14.5 39t-27.5 7h-8.5h-9.5h-321h-7h-6q-10 0 -15.5 -6t-9.5 -33
l-18 -115h-123v305q62 9 81.5 51t30.5 111q2 9 3 18t3 19q1 8 2.5 17l3.5 21q3 22 6 52t3 65v9.5v8.5v5.5v4.5v4.5v5.5v0.5v0.5q0 14 -7 20.5t-49 6.5h-20v129v0zM428 141v418h-118q-1 -37 -2.5 -66t-3.5 -55q-1 -2 -1 -3.5v-3.5q-1 -13 -1.5 -21t-1.5 -14q0 -3 -0.5 -7
t-0.5 -8q0 -6 -0.5 -11.5t-1.5 -10.5q0 -3 -0.5 -6t-0.5 -6q-1 -13 -3 -29t-6 -45q-1 -4 -1.5 -8.5t-0.5 -8.5q-1 -5 -1.5 -10t-1.5 -10q-3 -21 -8 -43.5t-14 -51.5h168v0z" />
    <glyph glyph-name="e" unicode="&#xc5;" horiz-adv-x="632" 
d="M35 0v129h38h0.5h0.5q14 0 24 5t10 34v364q0 29 -10 34t-24 5h-0.5h-0.5h-38v129h552l-1 -213h-127q0 3 -1.5 10t-2.5 14q0 2 -0.5 4t-1.5 4q0 3 -0.5 6t-1.5 5q-6 22 -17 25.5t-32 3.5h-2.5h-2.5h-80v-133h136v-141h-136v-144h76q38 0 49.5 10.5t16.5 26.5l2 8l2 8
q2 5 3 10.5t2 12.5h129v-217h-562v0z" />
    <glyph glyph-name="e" unicode="&#x415;" horiz-adv-x="632" 
d="M35 0v129h38h0.5h0.5q14 0 24 5t10 34v364q0 29 -10 34t-24 5h-0.5h-0.5h-38v129h552l-1 -213h-127q0 3 -1.5 10t-2.5 14q0 2 -0.5 4t-1.5 4q0 3 -0.5 6t-1.5 5q-6 22 -17 25.5t-32 3.5h-2.5h-2.5h-80v-133h136v-141h-136v-144h76q38 0 49.5 10.5t16.5 26.5l2 8l2 8
q2 5 3 10.5t2 12.5h129v-217h-562v0z" />
    <glyph glyph-name="f" unicode="&#xc6;" horiz-adv-x="995" 
d="M658 700v-129h-24h-0.5h-0.5q-14 0 -24 -5t-10 -34v-97h16h5.5h4.5q5 0 8.5 1t7.5 5q7 7 15.5 28t24.5 68q9 26 17.5 47.5t17.5 38.5q28 56 59.5 73.5t77.5 20.5q2 0 4 0.5t4 0.5h4h4h3.5h3.5q2 -1 3.5 -1h3.5q6 -1 15 -3t19 -4q2 -1 4.5 -1.5t4.5 -0.5q6 -2 11.5 -3.5
t9.5 -2.5v-166q-4 2 -8.5 3t-8.5 0q-4 0 -8.5 -1t-8.5 -4q-11 -6 -22.5 -21.5t-25.5 -43.5q-1 -1 -1.5 -2.5t-0.5 -2.5q-16 -31 -38 -53.5t-74 -33.5v-13h4.5h4.5q45 0 79 -30.5t46 -87.5v-1.5t1 -1.5q3 -19 11 -34.5t32 -15.5q2 0 5.5 0.5t6.5 1.5q1 0 3 0.5t3 0.5q4 1 7 2
t4 1l2 -199q-30 -11 -55 -13.5t-39 -2.5q-84 0 -120.5 56t-63.5 144q-1 4 -2.5 8.5t-2.5 8.5l-4 14t-4 13q-10 29 -21 47.5t-32 18.5h-17v-126q0 -29 10 -34t24 -5h0.5h0.5h24v-129h-322v129h24h0.5h0.5q15 0 25 5t10 34v126h-18q-19 0 -29.5 -16t-19.5 -41q-2 -8 -5 -17
t-6 -19q-3 -9 -5.5 -17.5t-5.5 -16.5q-27 -81 -62.5 -132t-116.5 -51q-19 0 -42.5 3t-50.5 13l1 199q2 0 4 -1t5 -1q2 -1 4 -1.5t4 -0.5q3 -1 6.5 -1.5t6.5 -0.5q20 0 28 12.5t12 26.5q1 4 1.5 7.5t1.5 6.5q14 63 49 90t75 28h2h2h3.5h2.5v13q-50 11 -71.5 31.5t-36.5 49.5
q-2 3 -3.5 5.5t-2.5 5.5q-10 20 -18.5 34t-17.5 23q-7 7 -14 10.5t-15 3.5q-4 0 -8 -1t-9 -3v166q4 1 11 3t16 4q2 1 4 1.5t3 0.5q9 2 17 3.5t13 2.5q2 0 4 0.5t4 0.5h4h4h4h4q1 -1 3 -1h4q46 -3 74.5 -18t53.5 -60q11 -21 23 -49.5t25 -66.5q12 -35 19.5 -53t13.5 -26
q5 -7 11.5 -8t15.5 -1h0.5h0.5h17v97q0 29 -10 34t-25 5h-0.5h-0.5h-24v129h322v0z" />
    <glyph glyph-name="f" unicode="&#x416;" horiz-adv-x="995" 
d="M658 700v-129h-24h-0.5h-0.5q-14 0 -24 -5t-10 -34v-97h16h5.5h4.5q5 0 8.5 1t7.5 5q7 7 15.5 28t24.5 68q9 26 17.5 47.5t17.5 38.5q28 56 59.5 73.5t77.5 20.5q2 0 4 0.5t4 0.5h4h4h3.5h3.5q2 -1 3.5 -1h3.5q6 -1 15 -3t19 -4q2 -1 4.5 -1.5t4.5 -0.5q6 -2 11.5 -3.5
t9.5 -2.5v-166q-4 2 -8.5 3t-8.5 0q-4 0 -8.5 -1t-8.5 -4q-11 -6 -22.5 -21.5t-25.5 -43.5q-1 -1 -1.5 -2.5t-0.5 -2.5q-16 -31 -38 -53.5t-74 -33.5v-13h4.5h4.5q45 0 79 -30.5t46 -87.5v-1.5t1 -1.5q3 -19 11 -34.5t32 -15.5q2 0 5.5 0.5t6.5 1.5q1 0 3 0.5t3 0.5q4 1 7 2
t4 1l2 -199q-30 -11 -55 -13.5t-39 -2.5q-84 0 -120.5 56t-63.5 144q-1 4 -2.5 8.5t-2.5 8.5l-4 14t-4 13q-10 29 -21 47.5t-32 18.5h-17v-126q0 -29 10 -34t24 -5h0.5h0.5h24v-129h-322v129h24h0.5h0.5q15 0 25 5t10 34v126h-18q-19 0 -29.5 -16t-19.5 -41q-2 -8 -5 -17
t-6 -19q-3 -9 -5.5 -17.5t-5.5 -16.5q-27 -81 -62.5 -132t-116.5 -51q-19 0 -42.5 3t-50.5 13l1 199q2 0 4 -1t5 -1q2 -1 4 -1.5t4 -0.5q3 -1 6.5 -1.5t6.5 -0.5q20 0 28 12.5t12 26.5q1 4 1.5 7.5t1.5 6.5q14 63 49 90t75 28h2h2h3.5h2.5v13q-50 11 -71.5 31.5t-36.5 49.5
q-2 3 -3.5 5.5t-2.5 5.5q-10 20 -18.5 34t-17.5 23q-7 7 -14 10.5t-15 3.5q-4 0 -8 -1t-9 -3v166q4 1 11 3t16 4q2 1 4 1.5t3 0.5q9 2 17 3.5t13 2.5q2 0 4 0.5t4 0.5h4h4h4h4q1 -1 3 -1h4q46 -3 74.5 -18t53.5 -60q11 -21 23 -49.5t25 -66.5q12 -35 19.5 -53t13.5 -26
q5 -7 11.5 -8t15.5 -1h0.5h0.5h17v97q0 29 -10 34t-25 5h-0.5h-0.5h-24v129h322v0z" />
    <glyph glyph-name="g" unicode="&#xc7;" horiz-adv-x="690" 
d="M35 280h216v-33q0 -68 20.5 -92t45.5 -29q7 -1 14 -1.5t13 -0.5q7 0 14.5 0.5t15.5 2.5q16 4 30.5 17.5t17.5 46.5v2v2v1v2v7.5v7.5q0 6 -1 13t-3 14q-5 22 -25.5 40t-72.5 17h-4.5h-5.5h-2.5h-2.5v140q56 -1 82.5 11.5t26.5 64.5q0 34 -16 47t-35 16q-5 0 -9.5 0.5
t-9.5 0.5q-37 0 -55 -18t-26 -91h-205q1 20 4.5 42.5t11.5 45.5q21 60 84.5 110.5t200.5 50.5q23 0 54 -2t63 -10q59 -14 108 -51.5t49 -117.5q0 -67 -36 -106t-84 -50v-7q1 0 2.5 -0.5t3.5 -0.5q51 -7 93.5 -46t42.5 -113q0 -126 -86 -177.5t-196 -51.5q-161 0 -233 63
t-93 139q-7 24 -9.5 48t-2.5 46v0z" />
    <glyph glyph-name="g" unicode="&#x417;" horiz-adv-x="690" 
d="M35 280h216v-33q0 -68 20.5 -92t45.5 -29q7 -1 14 -1.5t13 -0.5q7 0 14.5 0.5t15.5 2.5q16 4 30.5 17.5t17.5 46.5v2v2v1v2v7.5v7.5q0 6 -1 13t-3 14q-5 22 -25.5 40t-72.5 17h-4.5h-5.5h-2.5h-2.5v140q56 -1 82.5 11.5t26.5 64.5q0 34 -16 47t-35 16q-5 0 -9.5 0.5
t-9.5 0.5q-37 0 -55 -18t-26 -91h-205q1 20 4.5 42.5t11.5 45.5q21 60 84.5 110.5t200.5 50.5q23 0 54 -2t63 -10q59 -14 108 -51.5t49 -117.5q0 -67 -36 -106t-84 -50v-7q1 0 2.5 -0.5t3.5 -0.5q51 -7 93.5 -46t42.5 -113q0 -126 -86 -177.5t-196 -51.5q-161 0 -233 63
t-93 139q-7 24 -9.5 48t-2.5 46v0z" />
    <glyph glyph-name="h" unicode="&#xc8;" horiz-adv-x="768" 
d="M478 700h255v-129h-38h-0.5h-0.5q-15 0 -25 -5t-10 -34v-364q0 -29 10 -34t25 -5h0.5h0.5h38v-129h-336v129h18q20 0 27 7t8 16v2.5v3.5v6v5v176h-7l-149 -345h-259v129h38q24 0 29.5 8.5t5.5 31.5v363q0 29 -10 34t-24 5h-0.5h-0.5h-38v129h335v-129h-17h-0.5h-0.5
q-15 0 -25 -5t-10 -34v-194h7l154 362v0z" />
    <glyph glyph-name="h" unicode="&#x418;" horiz-adv-x="768" 
d="M478 700h255v-129h-38h-0.5h-0.5q-15 0 -25 -5t-10 -34v-364q0 -29 10 -34t25 -5h0.5h0.5h38v-129h-336v129h18q20 0 27 7t8 16v2.5v3.5v6v5v176h-7l-149 -345h-259v129h38q24 0 29.5 8.5t5.5 31.5v363q0 29 -10 34t-24 5h-0.5h-0.5h-38v129h335v-129h-17h-0.5h-0.5
q-15 0 -25 -5t-10 -34v-194h7l154 362v0z" />
    <glyph glyph-name="i" unicode="&#xc9;" horiz-adv-x="715" 
d="M451 700h256v-129h-38h-0.5h-0.5q-15 0 -25 -5t-10 -34v-364q0 -29 10 -34t25 -5h0.5h0.5h38v-129h-336v129h18q20 0 27 7t8 16v2.5v3.5v6v5v176h-8l-149 -345h-259v129h38q20 0 28 7t8 33v363q0 29 -10 34t-25 5h-0.5h-0.5h-38v129h336v-129h-17q-23 0 -29.5 -8
t-6.5 -18v-1.5v-1.5v-2.5v-2.5v-2.5v-2.5v-194h6l154 362v0zM422 901h142q-1 -67 -58.5 -114t-143.5 -47q-92 0 -144 47t-59 114h143q6 -26 19 -42.5t41 -16.5q27 0 38 14t20 38q0 2 0.5 3.5t1.5 3.5v0z" />
    <glyph glyph-name="i" unicode="&#x419;" horiz-adv-x="715" 
d="M451 700h256v-129h-38h-0.5h-0.5q-15 0 -25 -5t-10 -34v-364q0 -29 10 -34t25 -5h0.5h0.5h38v-129h-336v129h18q20 0 27 7t8 16v2.5v3.5v6v5v176h-8l-149 -345h-259v129h38q20 0 28 7t8 33v363q0 29 -10 34t-25 5h-0.5h-0.5h-38v129h336v-129h-17q-23 0 -29.5 -8
t-6.5 -18v-1.5v-1.5v-2.5v-2.5v-2.5v-2.5v-194h6l154 362v0zM422 901h142q-1 -67 -58.5 -114t-143.5 -47q-92 0 -144 47t-59 114h143q6 -26 19 -42.5t41 -16.5q27 0 38 14t20 38q0 2 0.5 3.5t1.5 3.5v0z" />
    <glyph glyph-name="j" unicode="&#xca;" horiz-adv-x="712" 
d="M316 294v-124q0 -30 12 -35.5t26 -5.5h16v-129h-335v129h37h0.5h0.5q14 0 24 5t10 34v364q0 29 -10 34t-24 5h-0.5h-0.5h-37v129h335v-129h-16h-0.5h-0.5h-6.5t-6.5 -1q-9 -2 -16.5 -10t-7.5 -31v-94h18h5.5h4.5q4 0 7.5 1t6.5 3q8 7 17 28t26 70q4 11 8 23t8 23
q18 50 51.5 92t105.5 42q19 0 36.5 -2.5t31.5 -5.5q8 -2 14.5 -4t10.5 -3v-166q-4 2 -7.5 2h-7.5q-20 0 -32 -16.5t-22 -36.5q0 -1 -0.5 -1.5l-1.5 -1.5q0 -1 -0.5 -1.5t-0.5 -1.5q-1 -2 -2 -4.5t-2 -4.5q-17 -33 -40.5 -59t-79.5 -34v-13h4.5h3.5q7 0 14.5 -1t15.5 -2
q30 -7 57.5 -32.5t38.5 -77.5q1 -5 2 -11t3 -12q4 -13 12.5 -23.5t26.5 -10.5q3 0 5.5 0.5t5.5 0.5q3 1 5.5 1.5t5.5 0.5q2 1 3.5 1.5t2.5 0.5v-199q-7 -2 -14 -4.5t-14 -4.5q-14 -4 -27.5 -5.5t-28.5 -1.5q-81 0 -119 48.5t-67 134.5q-3 8 -5.5 16.5t-5.5 17.5
q-5 16 -9 28.5t-8 22.5q-8 22 -17.5 32t-26.5 10h-19v0z" />
    <glyph glyph-name="j" unicode="&#x41a;" horiz-adv-x="712" 
d="M316 294v-124q0 -30 12 -35.5t26 -5.5h16v-129h-335v129h37h0.5h0.5q14 0 24 5t10 34v364q0 29 -10 34t-24 5h-0.5h-0.5h-37v129h335v-129h-16h-0.5h-0.5h-6.5t-6.5 -1q-9 -2 -16.5 -10t-7.5 -31v-94h18h5.5h4.5q4 0 7.5 1t6.5 3q8 7 17 28t26 70q4 11 8 23t8 23
q18 50 51.5 92t105.5 42q19 0 36.5 -2.5t31.5 -5.5q8 -2 14.5 -4t10.5 -3v-166q-4 2 -7.5 2h-7.5q-20 0 -32 -16.5t-22 -36.5q0 -1 -0.5 -1.5l-1.5 -1.5q0 -1 -0.5 -1.5t-0.5 -1.5q-1 -2 -2 -4.5t-2 -4.5q-17 -33 -40.5 -59t-79.5 -34v-13h4.5h3.5q7 0 14.5 -1t15.5 -2
q30 -7 57.5 -32.5t38.5 -77.5q1 -5 2 -11t3 -12q4 -13 12.5 -23.5t26.5 -10.5q3 0 5.5 0.5t5.5 0.5q3 1 5.5 1.5t5.5 0.5q2 1 3.5 1.5t2.5 0.5v-199q-7 -2 -14 -4.5t-14 -4.5q-14 -4 -27.5 -5.5t-28.5 -1.5q-81 0 -119 48.5t-67 134.5q-3 8 -5.5 16.5t-5.5 17.5
q-5 16 -9 28.5t-8 22.5q-8 22 -17.5 32t-26.5 10h-19v0z" />
    <glyph glyph-name="k" unicode="&#xcb;" horiz-adv-x="755" 
d="M719 700v-129h-24h-1.5h-0.5h-4.5h-4.5q-11 -1 -20 -8.5t-9 -33.5v-358q0 -32 12 -37t27 -5h0.5h0.5h25v-129h-326v129h12h1.5h0.5h4.5h4.5q11 1 20 8t9 33v389h-113q-1 -40 -2 -69.5t-2 -57.5q-1 -16 -1.5 -32.5t-1.5 -34.5v-2.5v-2.5q-1 -28 -2.5 -59.5t-5.5 -64.5
q-9 -95 -48 -173.5t-144 -78.5q-6 0 -12 0.5t-11 0.5q-18 3 -35.5 8t-32.5 12v199q3 -1 7.5 -2t10.5 -2q2 -1 5 -1.5t6 -1.5q7 -1 13.5 -2t11.5 -1q47 0 59 46t15 102q0 6 0.5 12t0.5 12v2v2q1 14 1.5 21.5t0.5 14.5v1.5v0.5q0 4 0.5 8t0.5 9q2 23 2.5 35.5t0.5 22.5v8v8
q0 50 -7 61t-22 11h-7.5h-7.5h-37v129h630v0z" />
    <glyph glyph-name="k" unicode="&#x41b;" horiz-adv-x="755" 
d="M719 700v-129h-24h-1.5h-0.5h-4.5h-4.5q-11 -1 -20 -8.5t-9 -33.5v-358q0 -32 12 -37t27 -5h0.5h0.5h25v-129h-326v129h12h1.5h0.5h4.5h4.5q11 1 20 8t9 33v389h-113q-1 -40 -2 -69.5t-2 -57.5q-1 -16 -1.5 -32.5t-1.5 -34.5v-2.5v-2.5q-1 -28 -2.5 -59.5t-5.5 -64.5
q-9 -95 -48 -173.5t-144 -78.5q-6 0 -12 0.5t-11 0.5q-18 3 -35.5 8t-32.5 12v199q3 -1 7.5 -2t10.5 -2q2 -1 5 -1.5t6 -1.5q7 -1 13.5 -2t11.5 -1q47 0 59 46t15 102q0 6 0.5 12t0.5 12v2v2q1 14 1.5 21.5t0.5 14.5v1.5v0.5q0 4 0.5 8t0.5 9q2 23 2.5 35.5t0.5 22.5v8v8
q0 50 -7 61t-22 11h-7.5h-7.5h-37v129h630v0z" />
    <glyph glyph-name="l" unicode="&#xcc;" horiz-adv-x="880" 
d="M518 0v129h19h0.5h0.5q14 0 24 5t10 34l1 243h-11l-122 -302h-89l-129 297h-6v-238v-2.5v-2.5v-3v-3q0 -10 6 -19t28 -9h19v-129h-234v129h29q17 0 26 6t9 33v363q0 17 -4.5 28.5t-30.5 11.5h-29v129h274l118 -274h15l111 274h292v-129h-28q-27 0 -31.5 -11t-4.5 -27
v-1.5v-0.5v-363q0 -29 10 -34t25 -5h0.5h0.5h28v-129h-327v0z" />
    <glyph glyph-name="l" unicode="&#x41c;" horiz-adv-x="880" 
d="M518 0v129h19h0.5h0.5q14 0 24 5t10 34l1 243h-11l-122 -302h-89l-129 297h-6v-238v-2.5v-2.5v-3v-3q0 -10 6 -19t28 -9h19v-129h-234v129h29q17 0 26 6t9 33v363q0 17 -4.5 28.5t-30.5 11.5h-29v129h274l118 -274h15l111 274h292v-129h-28q-27 0 -31.5 -11t-4.5 -27
v-1.5v-0.5v-363q0 -29 10 -34t25 -5h0.5h0.5h28v-129h-327v0z" />
    <glyph glyph-name="m" unicode="&#xcd;" horiz-adv-x="780" 
d="M35 0v129h38h0.5h0.5q14 0 24 5t10 34v364q0 29 -10 34t-24 5h-0.5h-0.5h-38v129h321v-129h-5q-21 0 -27.5 -8.5t-6.5 -31.5v-91h145v91q0 17 -4.5 28.5t-30.5 11.5h-5v129h323v-129h-38h-0.5h-0.5h-2h-2q-12 0 -21.5 -6t-9.5 -33v-364q0 -27 9.5 -33t21.5 -6h2h2h0.5
h0.5h38v-129h-323v129h5h0.5h0.5q14 0 24 5t10 34v132h-145v-132q0 -29 8.5 -34t25.5 -5h1.5h0.5h4v-129h-322v0z" />
    <glyph glyph-name="m" unicode="&#x41d;" horiz-adv-x="780" 
d="M35 0v129h38h0.5h0.5q14 0 24 5t10 34v364q0 29 -10 34t-24 5h-0.5h-0.5h-38v129h321v-129h-5q-21 0 -27.5 -8.5t-6.5 -31.5v-91h145v91q0 17 -4.5 28.5t-30.5 11.5h-5v129h323v-129h-38h-0.5h-0.5h-2h-2q-12 0 -21.5 -6t-9.5 -33v-364q0 -27 9.5 -33t21.5 -6h2h2h0.5
h0.5h38v-129h-323v129h5h0.5h0.5q14 0 24 5t10 34v132h-145v-132q0 -29 8.5 -34t25.5 -5h1.5h0.5h4v-129h-322v0z" />
    <glyph glyph-name="n" unicode="&#xce;" horiz-adv-x="718" 
d="M359 717q89 0 147 -33t92 -73q4 -5 8 -10.5t8 -10.5q8 -11 15 -23t13 -24q29 -58 35 -111.5t6 -81.5q0 -21 -1.5 -42.5t-4.5 -43.5q-7 -43 -21 -84t-38 -74q-24 -34 -51.5 -56t-56.5 -36q-43 -19 -83.5 -24.5t-67.5 -5.5q-99 0 -160 35.5t-94 78.5q-2 2 -3.5 4t-2.5 4
q-31 44 -48 107.5t-16 136.5q1 36 9.5 100t55.5 134q1 2 2 3.5t2 2.5q7 11 19 25t29 29q31 27 81.5 50t125.5 23v0zM359 577q-62 0 -76.5 -60t-14.5 -134v-67v-25t1 -26q3 -53 20 -97.5t70 -44.5q54 0 71 46t19 101q1 12 1 23.5v22.5v67v27t-1 28q-3 52 -20.5 95.5
t-69.5 43.5v0z" />
    <glyph glyph-name="n" unicode="&#x41e;" horiz-adv-x="718" 
d="M359 717q89 0 147 -33t92 -73q4 -5 8 -10.5t8 -10.5q8 -11 15 -23t13 -24q29 -58 35 -111.5t6 -81.5q0 -21 -1.5 -42.5t-4.5 -43.5q-7 -43 -21 -84t-38 -74q-24 -34 -51.5 -56t-56.5 -36q-43 -19 -83.5 -24.5t-67.5 -5.5q-99 0 -160 35.5t-94 78.5q-2 2 -3.5 4t-2.5 4
q-31 44 -48 107.5t-16 136.5q1 36 9.5 100t55.5 134q1 2 2 3.5t2 2.5q7 11 19 25t29 29q31 27 81.5 50t125.5 23v0zM359 577q-62 0 -76.5 -60t-14.5 -134v-67v-25t1 -26q3 -53 20 -97.5t70 -44.5q54 0 71 46t19 101q1 12 1 23.5v22.5v67v27t-1 28q-3 52 -20.5 95.5
t-69.5 43.5v0z" />
    <glyph glyph-name="o" unicode="&#xcf;" horiz-adv-x="778" 
d="M743 700v-129h-38h-0.5h-0.5q-14 0 -24 -5t-10 -34v-363q0 -30 10 -35t24 -5h0.5h0.5h38v-130h-323v130h5h2h1q13 0 23 4.5t10 34.5v391h-144v-391q0 -29 10 -34t24 -5h0.5h0.5h5v-129h-322v129h38h0.5h0.5q14 0 24 5t10 34v364q0 29 -10 34t-24 5h-0.5h-0.5h-38v129h708
v0z" />
    <glyph glyph-name="o" unicode="&#x41f;" horiz-adv-x="778" 
d="M743 700v-129h-38h-0.5h-0.5q-14 0 -24 -5t-10 -34v-363q0 -30 10 -35t24 -5h0.5h0.5h38v-130h-323v130h5h2h1q13 0 23 4.5t10 34.5v391h-144v-391q0 -29 10 -34t24 -5h0.5h0.5h5v-129h-322v129h38h0.5h0.5q14 0 24 5t10 34v364q0 29 -10 34t-24 5h-0.5h-0.5h-38v129h708
v0z" />
    <glyph glyph-name="p" unicode="&#xd0;" horiz-adv-x="663" 
d="M317 251v-83q0 -29 10 -34t25 -5h0.5h0.5h37v-129h-355v129h38h0.5h0.5q14 0 24 5t10 34v364q0 29 -10 34t-24 5h-0.5h-0.5h-38v129h267q154 0 252 -43.5t98 -192.5q0 -127 -81.5 -170.5t-209.5 -43.5h-21.5t-22.5 1v0zM317 559v-167h4.5h4.5q47 0 73.5 19t26.5 66
q0 45 -25 63.5t-72 18.5h-6h-6v0z" />
    <glyph glyph-name="p" unicode="&#x420;" horiz-adv-x="663" 
d="M317 251v-83q0 -29 10 -34t25 -5h0.5h0.5h37v-129h-355v129h38h0.5h0.5q14 0 24 5t10 34v364q0 29 -10 34t-24 5h-0.5h-0.5h-38v129h267q154 0 252 -43.5t98 -192.5q0 -127 -81.5 -170.5t-209.5 -43.5h-21.5t-22.5 1v0zM317 559v-167h4.5h4.5q47 0 73.5 19t26.5 66
q0 45 -25 63.5t-72 18.5h-6h-6v0z" />
    <glyph glyph-name="q" unicode="&#xd1;" horiz-adv-x="687" 
d="M659 432h-237q-3 63 -16 104t-67 41q-68 0 -79 -61.5t-10 -135.5v-13.5v-13.5v-8v-5q1 -6 1 -16.5t1 -41.5q2 -111 25.5 -134.5t63.5 -23.5q7 0 18 1.5t22 7.5q20 10 36 41t16 99v4.5v4.5h237q-4 -128 -92 -213t-236 -85q-27 0 -59.5 4.5t-66.5 15.5q-75 27 -137 104.5
t-62 241.5q0 155 85.5 261t235.5 106q155 0 237.5 -87.5t83.5 -197.5v0z" />
    <glyph glyph-name="q" unicode="&#x421;" horiz-adv-x="687" 
d="M659 432h-237q-3 63 -16 104t-67 41q-68 0 -79 -61.5t-10 -135.5v-13.5v-13.5v-8v-5q1 -6 1 -16.5t1 -41.5q2 -111 25.5 -134.5t63.5 -23.5q7 0 18 1.5t22 7.5q20 10 36 41t16 99v4.5v4.5h237q-4 -128 -92 -213t-236 -85q-27 0 -59.5 4.5t-66.5 15.5q-75 27 -137 104.5
t-62 241.5q0 155 85.5 261t235.5 106q155 0 237.5 -87.5t83.5 -197.5v0z" />
    <glyph glyph-name="Scaron" unicode="&#xd2;" horiz-adv-x="652" 
d="M17 700h618v-235h-117q-1 6 -2.5 13.5t-2.5 14.5q-2 8 -3 16t-3 16q-3 19 -11 26.5t-43 7.5h-22v-392q0 -29 10 -34t24 -5h0.5h0.5h38v-129h-356v129h38h0.5h0.5q15 0 25 5t10 34v392h-22h-2.5h-2.5q-26 0 -36 -6t-17 -41q-1 -9 -3 -21t-4 -26h-118v235v0z" />
    <glyph glyph-name="Scaron" unicode="&#x422;" horiz-adv-x="652" 
d="M17 700h618v-235h-117q-1 6 -2.5 13.5t-2.5 14.5q-2 8 -3 16t-3 16q-3 19 -11 26.5t-43 7.5h-22v-392q0 -29 10 -34t24 -5h0.5h0.5h38v-129h-356v129h38h0.5h0.5q15 0 25 5t10 34v392h-22h-2.5h-2.5q-26 0 -36 -6t-17 -41q-1 -9 -3 -21t-4 -26h-118v235v0z" />
    <glyph glyph-name="r" unicode="&#xd3;" horiz-adv-x="692" 
d="M11 700h342v-129h-12h-4.5t-4.5 -1q-5 -1 -9 -4.5t-4 -11.5q0 -5 1 -9t3 -8q1 -3 3 -6t4 -7l72 -139l47 126q1 3 2.5 6.5t3.5 7.5q1 3 1.5 5.5t1.5 5.5q2 5 3 10t1 9q0 10 -6 13t-13 3h-4h-4h-1.5h-1.5h-12v129h261v-129q-41 -1 -52.5 -10.5t-17.5 -29.5q0 -1 -0.5 -1.5
t-0.5 -1.5q-1 -2 -1.5 -3.5t-0.5 -3.5v0v-1q-1 -1 -1.5 -3t-1.5 -5t-2 -5.5t-2 -5.5q-2 -3 -3 -5.5t-2 -5.5l-75 -202q-40 -107 -72.5 -168t-63.5 -92q-32 -30 -66 -37t-76 -7q-27 0 -49.5 2t-44.5 7q-7 2 -13.5 4t-13.5 3l-1 182q26 -19 46 -24t30 -5q27 0 42.5 9t25.5 32
l-161 307q-3 6 -6 12.5t-6 12.5q-10 19 -22 32t-37 13h-22v129v0z" />
    <glyph glyph-name="r" unicode="&#x423;" horiz-adv-x="692" 
d="M11 700h342v-129h-12h-4.5t-4.5 -1q-5 -1 -9 -4.5t-4 -11.5q0 -5 1 -9t3 -8q1 -3 3 -6t4 -7l72 -139l47 126q1 3 2.5 6.5t3.5 7.5q1 3 1.5 5.5t1.5 5.5q2 5 3 10t1 9q0 10 -6 13t-13 3h-4h-4h-1.5h-1.5h-12v129h261v-129q-41 -1 -52.5 -10.5t-17.5 -29.5q0 -1 -0.5 -1.5
t-0.5 -1.5q-1 -2 -1.5 -3.5t-0.5 -3.5v0v-1q-1 -1 -1.5 -3t-1.5 -5t-2 -5.5t-2 -5.5q-2 -3 -3 -5.5t-2 -5.5l-75 -202q-40 -107 -72.5 -168t-63.5 -92q-32 -30 -66 -37t-76 -7q-27 0 -49.5 2t-44.5 7q-7 2 -13.5 4t-13.5 3l-1 182q26 -19 46 -24t30 -5q27 0 42.5 9t25.5 32
l-161 307q-3 6 -6 12.5t-6 12.5q-10 19 -22 32t-37 13h-22v129v0z" />
    <glyph glyph-name="t" unicode="&#xd4;" horiz-adv-x="826" 
d="M255 730h316v-129h-16q-35 0 -40.5 -3.5t-5.5 -14.5v-1.5v-0.5v-13h52q20 0 48.5 -3t58.5 -13q53 -17 97 -61.5t44 -134.5q0 -110 -83.5 -152t-216.5 -44v-12q0 -11 4 -14.5t10 -4.5h2.5h2.5h0.5h0.5h2.5h2.5h2.5h2.5h33v-129h-318v129h34q23 0 26.5 4.5t3.5 13.5v0.5
v0.5v12q-133 2 -217 44.5t-84 151.5q0 91 44.5 135.5t97.5 60.5q30 10 58.5 13t48.5 3h52v13q0 13 -6 16.5t-41 3.5h-16v129v0zM318 445h-26q-6 0 -13.5 -1t-14.5 -3q-18 -6 -33 -24.5t-15 -60.5q0 -37 20.5 -55t52.5 -18h29v162v0zM509 445v-162h28q39 0 55 19t18 42
q1 3 1 6v6q0 40 -14.5 58.5t-31.5 25.5q-8 3 -16.5 4t-14.5 1h-25v0z" />
    <glyph glyph-name="t" unicode="&#x424;" horiz-adv-x="826" 
d="M255 730h316v-129h-16q-35 0 -40.5 -3.5t-5.5 -14.5v-1.5v-0.5v-13h52q20 0 48.5 -3t58.5 -13q53 -17 97 -61.5t44 -134.5q0 -110 -83.5 -152t-216.5 -44v-12q0 -11 4 -14.5t10 -4.5h2.5h2.5h0.5h0.5h2.5h2.5h2.5h2.5h33v-129h-318v129h34q23 0 26.5 4.5t3.5 13.5v0.5
v0.5v12q-133 2 -217 44.5t-84 151.5q0 91 44.5 135.5t97.5 60.5q30 10 58.5 13t48.5 3h52v13q0 13 -6 16.5t-41 3.5h-16v129v0zM318 445h-26q-6 0 -13.5 -1t-14.5 -3q-18 -6 -33 -24.5t-15 -60.5q0 -37 20.5 -55t52.5 -18h29v162v0zM509 445v-162h28q39 0 55 19t18 42
q1 3 1 6v6q0 40 -14.5 58.5t-31.5 25.5q-8 3 -16.5 4t-14.5 1h-25v0z" />
    <glyph glyph-name="u" unicode="&#xd5;" horiz-adv-x="756" 
d="M362 700v-129h-12q-1 0 -3 -0.5t-4 -0.5q-3 -2 -6 -5t-3 -9q0 -4 2.5 -9t6.5 -10l40 -61h7l42 63q8 12 10 16.5t2 6.5q0 7 -3 8t-8 1h-13v129h271v-129h-27q-18 0 -31.5 -11.5t-26.5 -28.5q-5 -8 -10.5 -16t-11.5 -17l-73 -110l125 -192q4 -6 8 -12.5t9 -14.5
q10 -15 23.5 -27.5t29.5 -12.5h27v-129h-352v129h3.5h2.5h2.5h2.5q6 1 10 4.5t4 11.5q0 2 -1.5 6t-3.5 9q-1 1 -2 2.5t-1 3.5q-2 2 -3 4t-2 3l-40 61h-6l-46 -69q-1 -1 -2 -2.5t-2 -4.5q-1 -2 -2 -4.5t-2 -4.5q0 -2 -0.5 -3.5t-0.5 -3.5q0 -5 5 -9t15 -4h1.5h1.5v-129h-291
v129h27q25 0 39.5 9.5t27.5 26.5q6 7 11.5 16t12.5 19l85 129l-118 181q-20 30 -29.5 42.5t-16.5 16.5q-4 1 -8 1.5t-10 0.5h-1.5h-1.5h-19v129h339v0z" />
    <glyph glyph-name="u" unicode="&#x425;" horiz-adv-x="756" 
d="M362 700v-129h-12q-1 0 -3 -0.5t-4 -0.5q-3 -2 -6 -5t-3 -9q0 -4 2.5 -9t6.5 -10l40 -61h7l42 63q8 12 10 16.5t2 6.5q0 7 -3 8t-8 1h-13v129h271v-129h-27q-18 0 -31.5 -11.5t-26.5 -28.5q-5 -8 -10.5 -16t-11.5 -17l-73 -110l125 -192q4 -6 8 -12.5t9 -14.5
q10 -15 23.5 -27.5t29.5 -12.5h27v-129h-352v129h3.5h2.5h2.5h2.5q6 1 10 4.5t4 11.5q0 2 -1.5 6t-3.5 9q-1 1 -2 2.5t-1 3.5q-2 2 -3 4t-2 3l-40 61h-6l-46 -69q-1 -1 -2 -2.5t-2 -4.5q-1 -2 -2 -4.5t-2 -4.5q0 -2 -0.5 -3.5t-0.5 -3.5q0 -5 5 -9t15 -4h1.5h1.5v-129h-291
v129h27q25 0 39.5 9.5t27.5 26.5q6 7 11.5 16t12.5 19l85 129l-118 181q-20 30 -29.5 42.5t-16.5 16.5q-4 1 -8 1.5t-10 0.5h-1.5h-1.5h-19v129h339v0z" />
    <glyph glyph-name="zero" unicode="&#xd6;" horiz-adv-x="784" 
d="M35 700h322v-129h-5q-26 0 -30.5 -11.5t-4.5 -28.5v-390h144v390q0 23 -6 31.5t-30 8.5h-5v129h323v-129h-38h-0.5h-0.5q-14 0 -24 -5t-10 -34v-363q0 -17 4.5 -28.5t30.5 -11.5h44v-293h-129l-10 76q-1 12 -2 15.5t-1 4.5q0 2 -1 6t-3 22q-3 24 -11 32t-43 8h-514v129
h38h0.5h0.5q14 0 24 5t10 34v364q0 29 -10 34t-24 5h-0.5h-0.5h-38v129v0z" />
    <glyph glyph-name="zero" unicode="&#x426;" horiz-adv-x="784" 
d="M35 700h322v-129h-5q-26 0 -30.5 -11.5t-4.5 -28.5v-390h144v390q0 23 -6 31.5t-30 8.5h-5v129h323v-129h-38h-0.5h-0.5q-14 0 -24 -5t-10 -34v-363q0 -17 4.5 -28.5t30.5 -11.5h44v-293h-129l-10 76q-1 12 -2 15.5t-1 4.5q0 2 -1 6t-3 22q-3 24 -11 32t-43 8h-514v129
h38h0.5h0.5q14 0 24 5t10 34v364q0 29 -10 34t-24 5h-0.5h-0.5h-38v129v0z" />
    <glyph glyph-name="parenright" unicode="&#xd7;" horiz-adv-x="748" 
d="M357 0v129h38h0.5h0.5q15 0 25 5t10 34v107q-28 -4 -47.5 -5t-24.5 -1h-24h-24q-17 0 -35 1.5t-36 3.5q-58 9 -106 43t-48 121v96q0 14 -4.5 25.5t-30.5 11.5h-28v129h315v-129h-8q-24 0 -29.5 -8.5t-5.5 -31.5v-56q0 -38 25.5 -51t61.5 -12q12 0 24 1t25 2v116
q0 15 -3.5 27.5t-24.5 12.5h-10v129h320v-129h-38h-0.5h-0.5h-2h-2q-12 0 -21.5 -6t-9.5 -33v-364q0 -27 9.5 -33t21.5 -6h2h2h0.5h0.5h38v-129h-356v0z" />
    <glyph glyph-name="parenright" unicode="&#x427;" horiz-adv-x="748" 
d="M357 0v129h38h0.5h0.5q15 0 25 5t10 34v107q-28 -4 -47.5 -5t-24.5 -1h-24h-24q-17 0 -35 1.5t-36 3.5q-58 9 -106 43t-48 121v96q0 14 -4.5 25.5t-30.5 11.5h-28v129h315v-129h-8q-24 0 -29.5 -8.5t-5.5 -31.5v-56q0 -38 25.5 -51t61.5 -12q12 0 24 1t25 2v116
q0 15 -3.5 27.5t-24.5 12.5h-10v129h320v-129h-38h-0.5h-0.5h-2h-2q-12 0 -21.5 -6t-9.5 -33v-364q0 -27 9.5 -33t21.5 -6h2h2h0.5h0.5h38v-129h-356v0z" />
    <glyph glyph-name="x" unicode="&#xd8;" horiz-adv-x="1057" 
d="M35 0v129h29h0.5h0.5q14 0 24 5t10 34v363q0 17 -4.5 28.5t-30.5 11.5h-29v129h310v-129h-2q-24 0 -29.5 -8.5t-5.5 -31.5v-390h116v390q0 17 -4.5 28.5t-30.5 11.5h-2v129h283v-129h-3q-24 0 -29 -9.5t-5 -20.5v-2.5v-2.5v-2.5v-2.5v-390h115v390q0 20 -5.5 30t-29.5 10
h-2v129h311v-129h-29q-24 0 -30 -8.5t-6 -31.5v-363q0 -30 10 -34.5t23 -4.5h1h2h29v-129h-987v0z" />
    <glyph glyph-name="x" unicode="&#x428;" horiz-adv-x="1057" 
d="M35 0v129h29h0.5h0.5q14 0 24 5t10 34v363q0 17 -4.5 28.5t-30.5 11.5h-29v129h310v-129h-2q-24 0 -29.5 -8.5t-5.5 -31.5v-390h116v390q0 17 -4.5 28.5t-30.5 11.5h-2v129h283v-129h-3q-24 0 -29 -9.5t-5 -20.5v-2.5v-2.5v-2.5v-2.5v-390h115v390q0 20 -5.5 30t-29.5 10
h-2v129h311v-129h-29q-24 0 -30 -8.5t-6 -31.5v-363q0 -30 10 -34.5t23 -4.5h1h2h29v-129h-987v0z" />
    <glyph glyph-name="y" unicode="&#xd9;" horiz-adv-x="1072" 
d="M1022 700v-129h-29q-24 0 -30 -8.5t-6 -31.5v-362v-4.5t1 -4.5t1 -4.5v-4.5v0v0v-1v0q0 -1 0.5 -3t1.5 -3q0 -1 0.5 -2t0.5 -2q2 -5 8.5 -7.5t13.5 -2.5q2 -1 4.5 -1h4.5h44v-293h-109l-14 85q-2 11 -2.5 19.5t-1.5 15.5q-2 23 -9 33.5t-37 10.5h-829v129h29h0.5h0.5
q14 0 24 5t10 34v363q0 17 -4.5 28.5t-30.5 11.5h-29v129h310v-129h-2q-24 0 -29.5 -8.5t-5.5 -31.5v-390h116v390q0 17 -4.5 28.5t-30.5 11.5h-2v129h283v-129h-3q-24 0 -29 -9.5t-5 -20.5v-2.5v-2.5v-2.5v-2.5v-390h115v390q0 20 -5.5 30t-29.5 10h-2v129h311v0z" />
    <glyph glyph-name="y" unicode="&#x429;" horiz-adv-x="1072" 
d="M1022 700v-129h-29q-24 0 -30 -8.5t-6 -31.5v-362v-4.5t1 -4.5t1 -4.5v-4.5v0v0v-1v0q0 -1 0.5 -3t1.5 -3q0 -1 0.5 -2t0.5 -2q2 -5 8.5 -7.5t13.5 -2.5q2 -1 4.5 -1h4.5h44v-293h-109l-14 85q-2 11 -2.5 19.5t-1.5 15.5q-2 23 -9 33.5t-37 10.5h-829v129h29h0.5h0.5
q14 0 24 5t10 34v363q0 17 -4.5 28.5t-30.5 11.5h-29v129h310v-129h-2q-24 0 -29.5 -8.5t-5.5 -31.5v-390h116v390q0 17 -4.5 28.5t-30.5 11.5h-2v129h283v-129h-3q-24 0 -29 -9.5t-5 -20.5v-2.5v-2.5v-2.5v-2.5v-390h115v390q0 20 -5.5 30t-29.5 10h-2v129h311v0z" />
    <glyph glyph-name="z" unicode="&#xda;" horiz-adv-x="781" 
d="M145 0v129h28h0.5h0.5q14 0 24 5t10 34v381h-22q-36 0 -45 -9.5t-13 -36.5q-1 -10 -2.5 -21.5t-4.5 -26.5h-104v245h473v-129h-37q-23 0 -29 -8t-6 -19v-2.5v-3.5v-2v-1v-2v-2v-5v-4q-1 0 -1 -0.5v-0.5v-2.5v-3.5v-78h10t9 1h10h9q138 -1 223.5 -46t85.5 -176
q0 -130 -99 -173t-228 -43h-292v0zM417 296v-155h30h10t10 1q24 3 44 18t20 56q0 46 -25 63.5t-71 17.5h-4.5h-4.5q-2 -1 -4.5 -1h-4.5v0z" />
    <glyph glyph-name="z" unicode="&#x42a;" horiz-adv-x="781" 
d="M145 0v129h28h0.5h0.5q14 0 24 5t10 34v381h-22q-36 0 -45 -9.5t-13 -36.5q-1 -10 -2.5 -21.5t-4.5 -26.5h-104v245h473v-129h-37q-23 0 -29 -8t-6 -19v-2.5v-3.5v-2v-1v-2v-2v-5v-4q-1 0 -1 -0.5v-0.5v-2.5v-3.5v-78h10t9 1h10h9q138 -1 223.5 -46t85.5 -176
q0 -130 -99 -173t-228 -43h-292v0zM417 296v-155h30h10t10 1q24 3 44 18t20 56q0 46 -25 63.5t-71 17.5h-4.5h-4.5q-2 -1 -4.5 -1h-4.5v0z" />
    <glyph glyph-name="braceleft" unicode="&#xdb;" horiz-adv-x="1076" 
d="M390 700v-129h-37h-0.5h-0.5q-15 0 -25 -5t-10 -34v-95h25h1.5h1.5q26 0 61 -1t72 -8q70 -13 128 -58.5t58 -154.5q0 -129 -101 -172t-226 -43h-302v129h38h0.5h0.5q14 0 24 5t10 34v364q0 29 -10 34t-24 5h-0.5h-0.5h-38v129h355v0zM317 296v-155h30q37 0 54.5 13
t23.5 29q4 9 5 18t1 15q0 46 -24 63.5t-71 17.5h-4.5h-4.5q-2 -1 -4.5 -1h-5.5v0zM1041 700v-129h-38h-0.5h-0.5q-15 0 -25 -5t-10 -34v-364q0 -29 10 -34t25 -5h0.5h0.5h38v-129h-356v129h38h0.5h0.5q14 0 24 5t10 34v364q0 29 -10 34t-24 5h-0.5h-0.5h-38v129h356v0z" />
    <glyph glyph-name="braceleft" unicode="&#x42b;" horiz-adv-x="1076" 
d="M390 700v-129h-37h-0.5h-0.5q-15 0 -25 -5t-10 -34v-95h25h1.5h1.5q26 0 61 -1t72 -8q70 -13 128 -58.5t58 -154.5q0 -129 -101 -172t-226 -43h-302v129h38h0.5h0.5q14 0 24 5t10 34v364q0 29 -10 34t-24 5h-0.5h-0.5h-38v129h355v0zM317 296v-155h30q37 0 54.5 13
t23.5 29q4 9 5 18t1 15q0 46 -24 63.5t-71 17.5h-4.5h-4.5q-2 -1 -4.5 -1h-5.5v0zM1041 700v-129h-38h-0.5h-0.5q-15 0 -25 -5t-10 -34v-364q0 -29 10 -34t25 -5h0.5h0.5h38v-129h-356v129h38h0.5h0.5q14 0 24 5t10 34v364q0 29 -10 34t-24 5h-0.5h-0.5h-38v129h356v0z" />
    <glyph glyph-name="bar" unicode="&#xdc;" horiz-adv-x="681" 
d="M390 700v-129h-37h-0.5h-0.5q-15 0 -25 -5t-10 -34v-95h25h1.5h1.5q26 0 61 -1t72 -8q70 -13 128 -58.5t58 -154.5q0 -129 -101 -172t-226 -43h-302v129h38h0.5h0.5q14 0 24 5t10 34v364q0 29 -10 34t-24 5h-0.5h-0.5h-38v129h355v0zM317 296v-155h30q37 0 54.5 13
t23.5 29q4 9 5 18t1 15q0 46 -24 63.5t-71 17.5h-4.5h-4.5q-2 -1 -4.5 -1h-5.5v0z" />
    <glyph glyph-name="bar" unicode="&#x42c;" horiz-adv-x="681" 
d="M390 700v-129h-37h-0.5h-0.5q-15 0 -25 -5t-10 -34v-95h25h1.5h1.5q26 0 61 -1t72 -8q70 -13 128 -58.5t58 -154.5q0 -129 -101 -172t-226 -43h-302v129h38h0.5h0.5q14 0 24 5t10 34v364q0 29 -10 34t-24 5h-0.5h-0.5h-38v129h355v0zM317 296v-155h30q37 0 54.5 13
t23.5 29q4 9 5 18t1 15q0 46 -24 63.5t-71 17.5h-4.5h-4.5q-2 -1 -4.5 -1h-5.5v0z" />
    <glyph glyph-name="braceright" unicode="&#xdd;" horiz-adv-x="673" 
d="M238 280v-34q0 -55 16.5 -80t35.5 -34q13 -6 24.5 -7t18.5 -1t18 1t22 7q19 8 34.5 35.5t15.5 87.5v22h-141v152h141v36q0 68 -24 90t-60 22q-7 0 -18.5 -1.5t-24.5 -8.5q-17 -9 -32 -34.5t-17 -78.5h-221q5 110 84.5 186.5t230.5 76.5q133 0 198.5 -61t90.5 -134
q18 -51 22 -98.5t4 -73.5q0 -30 -5 -68t-17 -78q-8 -25 -19.5 -49.5t-26.5 -47.5q-22 -32 -48 -54t-52 -36q-43 -21 -82 -27t-63 -6q-152 0 -225.5 74t-92.5 163q-4 15 -5.5 30t-2.5 29h221v0z" />
    <glyph glyph-name="braceright" unicode="&#x42d;" horiz-adv-x="673" 
d="M238 280v-34q0 -55 16.5 -80t35.5 -34q13 -6 24.5 -7t18.5 -1t18 1t22 7q19 8 34.5 35.5t15.5 87.5v22h-141v152h141v36q0 68 -24 90t-60 22q-7 0 -18.5 -1.5t-24.5 -8.5q-17 -9 -32 -34.5t-17 -78.5h-221q5 110 84.5 186.5t230.5 76.5q133 0 198.5 -61t90.5 -134
q18 -51 22 -98.5t4 -73.5q0 -30 -5 -68t-17 -78q-8 -25 -19.5 -49.5t-26.5 -47.5q-22 -32 -48 -54t-52 -36q-43 -21 -82 -27t-63 -6q-152 0 -225.5 74t-92.5 163q-4 15 -5.5 30t-2.5 29h221v0z" />
    <glyph glyph-name="asciitilde" unicode="&#xde;" horiz-adv-x="1088" 
d="M318 446h90q2 13 5.5 25.5t8.5 25.5q28 83 101 151.5t203 68.5q75 0 125.5 -23t82.5 -50q17 -15 29 -29t20 -25q23 -33 38.5 -72t22.5 -79q5 -23 7 -45.5t2 -43.5q0 -70 -14.5 -132t-50.5 -112q-1 -2 -3 -4t-3 -4q-33 -43 -94.5 -78.5t-161.5 -35.5q-27 0 -68 5.5
t-86 25.5q-28 14 -55.5 36t-51.5 55q-16 23 -28 50t-20 54q-7 22 -10.5 43t-5.5 41h-83l-1 -126q0 -29 9 -34t24 -5h1.5h0.5h29v-129h-346v129h38h0.5h0.5q14 0 24 5t10 34v364q0 29 -10 34t-24 5h-0.5h-0.5h-38v129h346v-129h-29q-23 0 -29 -8.5t-6 -31.5l1 -85v0zM726 577
q-62 0 -76.5 -60t-14.5 -134v-67q0 -115 21 -150.5t46 -39.5q6 -2 12 -2h12h12t12 2q25 4 46 39.5t21 150.5v67v27t-1 28q-3 52 -20.5 95.5t-69.5 43.5v0z" />
    <glyph glyph-name="asciitilde" unicode="&#x42e;" horiz-adv-x="1088" 
d="M318 446h90q2 13 5.5 25.5t8.5 25.5q28 83 101 151.5t203 68.5q75 0 125.5 -23t82.5 -50q17 -15 29 -29t20 -25q23 -33 38.5 -72t22.5 -79q5 -23 7 -45.5t2 -43.5q0 -70 -14.5 -132t-50.5 -112q-1 -2 -3 -4t-3 -4q-33 -43 -94.5 -78.5t-161.5 -35.5q-27 0 -68 5.5
t-86 25.5q-28 14 -55.5 36t-51.5 55q-16 23 -28 50t-20 54q-7 22 -10.5 43t-5.5 41h-83l-1 -126q0 -29 9 -34t24 -5h1.5h0.5h29v-129h-346v129h38h0.5h0.5q14 0 24 5t10 34v364q0 29 -10 34t-24 5h-0.5h-0.5h-38v129h346v-129h-29q-23 0 -29 -8.5t-6 -31.5l1 -85v0zM726 577
q-62 0 -76.5 -60t-14.5 -134v-67q0 -115 21 -150.5t46 -39.5q6 -2 12 -2h12h12t12 2q25 4 46 39.5t21 150.5v67v27t-1 28q-3 52 -20.5 95.5t-69.5 43.5v0z" />
    <glyph glyph-name="germandbls" unicode="&#xdf;" horiz-adv-x="699" 
d="M664 700v-129h-38h-0.5h-0.5q-15 0 -25 -5t-10 -34v-364q0 -29 10 -34t25 -5h0.5h0.5h38v-129h-326l1 129h8q23 0 28.5 8.5t5.5 20.5v2.5v2.5v2.5v2.5v102h-7q-16 0 -27.5 -3t-21.5 -19q-7 -11 -14 -29t-15 -46q-2 -5 -3.5 -10.5t-2.5 -10.5q-25 -80 -59.5 -124
t-120.5 -44q-9 0 -17 0.5t-16 1.5q-10 2 -20.5 5.5t-21.5 8.5l1 204q2 0 5 -1t8 -2q2 0 4.5 -0.5t4.5 -1.5q4 0 7 -0.5t6 -0.5q20 0 27.5 9.5t10.5 21.5q0 1 0.5 2.5t0.5 2.5t0.5 1.5t0.5 1.5q7 28 28 52.5t111 40.5v9h-5.5t-5.5 1q-67 4 -123 44.5t-56 128.5q0 98 62 135.5
t137 46.5q33 4 64.5 4.5t57.5 0.5h6h6h271v0zM381 560h-17q-7 0 -17 -1t-21 -4q-18 -6 -33 -22.5t-15 -51.5q0 -43 25.5 -57.5t62.5 -13.5h7.5h7.5v150v0z" />
    <glyph glyph-name="germandbls" unicode="&#x42f;" horiz-adv-x="699" 
d="M664 700v-129h-38h-0.5h-0.5q-15 0 -25 -5t-10 -34v-364q0 -29 10 -34t25 -5h0.5h0.5h38v-129h-326l1 129h8q23 0 28.5 8.5t5.5 20.5v2.5v2.5v2.5v2.5v102h-7q-16 0 -27.5 -3t-21.5 -19q-7 -11 -14 -29t-15 -46q-2 -5 -3.5 -10.5t-2.5 -10.5q-25 -80 -59.5 -124
t-120.5 -44q-9 0 -17 0.5t-16 1.5q-10 2 -20.5 5.5t-21.5 8.5l1 204q2 0 5 -1t8 -2q2 0 4.5 -0.5t4.5 -1.5q4 0 7 -0.5t6 -0.5q20 0 27.5 9.5t10.5 21.5q0 1 0.5 2.5t0.5 2.5t0.5 1.5t0.5 1.5q7 28 28 52.5t111 40.5v9h-5.5t-5.5 1q-67 4 -123 44.5t-56 128.5q0 98 62 135.5
t137 46.5q33 4 64.5 4.5t57.5 0.5h6h6h271v0zM381 560h-17q-7 0 -17 -1t-21 -4q-18 -6 -33 -22.5t-15 -51.5q0 -43 25.5 -57.5t62.5 -13.5h7.5h7.5v150v0z" />
    <glyph glyph-name="agrave" unicode="&#xe0;" horiz-adv-x="591" 
d="M561 126v-126q-7 -1 -14 -2.5t-14 -2.5q-13 -3 -27 -4t-29 -1q-41 0 -71.5 11t-37.5 45l-9 -1q-35 -31 -72 -43t-80 -12q-90 0 -128.5 45t-42.5 100q-1 4 -1 8v8q0 110 83.5 142t200.5 31h11h12v53q0 3 -1 9.5t-5 13.5q-5 9 -18 17t-40 8q-29 0 -45.5 -14.5t-16.5 -39.5
h-158v3.5v2.5q0 12 2 26t7 28q15 41 69.5 75.5t180.5 34.5q129 0 165 -51t39 -111q1 -10 1 -20v-20v-177q0 -19 6 -28.5t20 -8.5h6t7 1v0zM342 135v98h-2.5h-2.5h-2.5h-2.5q-46 0 -70 -23t-24 -52v-3.5v-3.5q2 -17 14.5 -31.5t38.5 -14.5h3.5h3.5q17 2 30.5 9.5t13.5 20.5v0
z" />
    <glyph glyph-name="agrave" unicode="&#x430;" horiz-adv-x="591" 
d="M561 126v-126q-7 -1 -14 -2.5t-14 -2.5q-13 -3 -27 -4t-29 -1q-41 0 -71.5 11t-37.5 45l-9 -1q-35 -31 -72 -43t-80 -12q-90 0 -128.5 45t-42.5 100q-1 4 -1 8v8q0 110 83.5 142t200.5 31h11h12v53q0 3 -1 9.5t-5 13.5q-5 9 -18 17t-40 8q-29 0 -45.5 -14.5t-16.5 -39.5
h-158v3.5v2.5q0 12 2 26t7 28q15 41 69.5 75.5t180.5 34.5q129 0 165 -51t39 -111q1 -10 1 -20v-20v-177q0 -19 6 -28.5t20 -8.5h6t7 1v0zM342 135v98h-2.5h-2.5h-2.5h-2.5q-46 0 -70 -23t-24 -52v-3.5v-3.5q2 -17 14.5 -31.5t38.5 -14.5h3.5h3.5q17 2 30.5 9.5t13.5 20.5v0
z" />
    <glyph glyph-name="K" unicode="&#xe1;" horiz-adv-x="581" 
d="M455 801l93 -1q1 -7 1 -13v-11q0 -76 -50.5 -107.5t-136.5 -54.5q-8 -2 -17.5 -4.5t-18.5 -4.5q-14 -4 -30 -8t-33 -11q-40 -14 -73.5 -41t-35.5 -75l7 -5q18 33 50 50.5t66 22.5q9 2 18 2.5t18 0.5q120 0 182.5 -79t62.5 -187q0 -121 -68.5 -203t-196.5 -82
q-148 0 -209 93t-61 235q0 239 101 320t225 118q15 5 28 8.5t24 6.5q18 5 31 11t23 19v0zM291 425q-35 0 -46 -30.5t-13 -67.5v-18.5v-18.5v-4v-4v-5.5v-4.5v-18v-18q1 -49 11.5 -89.5t47.5 -40.5t47 42t11 93v17v17v3v4v10.5v10.5q-1 46 -10.5 84t-47.5 38v0z" />
    <glyph glyph-name="K" unicode="&#x431;" horiz-adv-x="581" 
d="M455 801l93 -1q1 -7 1 -13v-11q0 -76 -50.5 -107.5t-136.5 -54.5q-8 -2 -17.5 -4.5t-18.5 -4.5q-14 -4 -30 -8t-33 -11q-40 -14 -73.5 -41t-35.5 -75l7 -5q18 33 50 50.5t66 22.5q9 2 18 2.5t18 0.5q120 0 182.5 -79t62.5 -187q0 -121 -68.5 -203t-196.5 -82
q-148 0 -209 93t-61 235q0 239 101 320t225 118q15 5 28 8.5t24 6.5q18 5 31 11t23 19v0zM291 425q-35 0 -46 -30.5t-13 -67.5v-18.5v-18.5v-4v-4v-5.5v-4.5v-18v-18q1 -49 11.5 -89.5t47.5 -40.5t47 42t11 93v17v17v3v4v10.5v10.5q-1 46 -10.5 84t-47.5 38v0z" />
    <glyph glyph-name="quotedbl" unicode="&#xe2;" horiz-adv-x="605" 
d="M47 530h266h18h18q79 -1 145 -21t66 -105q0 -47 -29 -79t-90 -40q-7 0 -10.5 -0.5t-5.5 -1.5q-2 0 -3.5 -0.5t-3.5 -0.5v-7q4 -1 6.5 -1t4.5 -1q3 0 7 -1t12 -2q10 -1 23.5 -4t28.5 -8q26 -11 48 -35t22 -71q0 -102 -68 -126.5t-149 -25.5h-10.5h-10.5h-285v105h19
q18 0 25 8t7 24v256q0 17 -7 24.5t-25 7.5h-19v105v0zM278 223v-106h19h2.5h2.5h13.5t15.5 2q15 2 28 12.5t13 36.5q0 4 -0.5 8t-1.5 8q-4 15 -18 27t-44 12h-30v0zM278 320h16h7.5h7.5q21 2 38.5 10.5t17.5 35.5q0 23 -11 33t-24 12q-8 2 -14.5 2h-11.5h-2h-2h-22v-93v0z
" />
    <glyph glyph-name="quotedbl" unicode="&#x432;" horiz-adv-x="605" 
d="M47 530h266h18h18q79 -1 145 -21t66 -105q0 -47 -29 -79t-90 -40q-7 0 -10.5 -0.5t-5.5 -1.5q-2 0 -3.5 -0.5t-3.5 -0.5v-7q4 -1 6.5 -1t4.5 -1q3 0 7 -1t12 -2q10 -1 23.5 -4t28.5 -8q26 -11 48 -35t22 -71q0 -102 -68 -126.5t-149 -25.5h-10.5h-10.5h-285v105h19
q18 0 25 8t7 24v256q0 17 -7 24.5t-25 7.5h-19v105v0zM278 223v-106h19h2.5h2.5h13.5t15.5 2q15 2 28 12.5t13 36.5q0 4 -0.5 8t-1.5 8q-4 15 -18 27t-44 12h-30v0zM278 320h16h7.5h7.5q21 2 38.5 10.5t17.5 35.5q0 23 -11 33t-24 12q-8 2 -14.5 2h-11.5h-2h-2h-22v-93v0z
" />
    <glyph glyph-name="atilde" unicode="&#xe3;" horiz-adv-x="501" 
d="M47 530h425l6 -189h-106l-4 25q-1 3 -1 6t-1 6q-2 16 -9.5 25.5t-40.5 9.5h-39v-276q0 -22 9.5 -27t22.5 -5h28v-105h-290v105h18q14 0 23 5t9 27v256q0 15 -5 23.5t-27 8.5h-18v105v0z" />
    <glyph glyph-name="atilde" unicode="&#x433;" horiz-adv-x="501" 
d="M47 530h425l6 -189h-106l-4 25q-1 3 -1 6t-1 6q-2 16 -9.5 25.5t-40.5 9.5h-39v-276q0 -22 9.5 -27t22.5 -5h28v-105h-290v105h18q14 0 23 5t9 27v256q0 15 -5 23.5t-27 8.5h-18v105v0z" />
    <glyph glyph-name="adieresis" unicode="&#xe4;" horiz-adv-x="679" 
d="M617 530v-105h-18h-0.5h-0.5q-12 0 -21.5 -4t-9.5 -28v-245q0 -22 8.5 -26.5t23.5 -4.5h33v-253h-105l-19 84q0 3 -0.5 5t-1.5 4q-8 30 -17.5 36.5t-27.5 6.5h-279q-18 0 -30 -7t-17 -34l-18 -95h-106v253h2.5h2.5q1 -1 2.5 -1h2.5q23 1 38.5 13.5t28.5 32.5
q17 25 28 59.5t18 71.5q5 28 8 54.5t4 49.5v0.5v0.5v0.5v0.5q0 14 -10 20t-22 6h-42v105h545v0zM387 413h-93q-1 -30 -3 -51t-5 -39q0 -4 -0.5 -7.5t-1.5 -6.5q-1 -5 -1.5 -8t-0.5 -6v0v-1q0 -3 -0.5 -6.5t-1.5 -8.5q-5 -35 -14.5 -75t-33.5 -87h155v296v0z" />
    <glyph glyph-name="adieresis" unicode="&#x434;" horiz-adv-x="679" 
d="M617 530v-105h-18h-0.5h-0.5q-12 0 -21.5 -4t-9.5 -28v-245q0 -22 8.5 -26.5t23.5 -4.5h33v-253h-105l-19 84q0 3 -0.5 5t-1.5 4q-8 30 -17.5 36.5t-27.5 6.5h-279q-18 0 -30 -7t-17 -34l-18 -95h-106v253h2.5h2.5q1 -1 2.5 -1h2.5q23 1 38.5 13.5t28.5 32.5
q17 25 28 59.5t18 71.5q5 28 8 54.5t4 49.5v0.5v0.5v0.5v0.5q0 14 -10 20t-22 6h-42v105h545v0zM387 413h-93q-1 -30 -3 -51t-5 -39q0 -4 -0.5 -7.5t-1.5 -6.5q-1 -5 -1.5 -8t-0.5 -6v0v-1q0 -3 -0.5 -6.5t-1.5 -8.5q-5 -35 -14.5 -75t-33.5 -87h155v296v0z" />
    <glyph glyph-name="yright" unicode="&#xe5;" horiz-adv-x="566" 
d="M366 163h170q-4 -12 -9 -25.5t-12 -26.5q-25 -46 -78 -83.5t-149 -37.5q-11 0 -48.5 3.5t-79.5 22.5q-22 11 -43 26.5t-39 38.5q-31 41 -43 86t-12 94q0 6 0.5 12.5t0.5 12.5q4 43 19 85t39 73q25 33 56 53t63 30q25 8 48.5 11t44.5 3h4.5h5.5q109 0 172.5 -84t66.5 -230
h-314v-25q0 -50 14.5 -73t56.5 -23q30 0 44.5 14.5t19.5 31.5q0 3 1 5.5t1 5.5v0zM229 332h137v4.5v3.5q0 44 -20 64.5t-46 20.5q-28 0 -49.5 -22.5t-21.5 -70.5v0z" />
    <glyph glyph-name="yright" unicode="&#x435;" horiz-adv-x="566" 
d="M366 163h170q-4 -12 -9 -25.5t-12 -26.5q-25 -46 -78 -83.5t-149 -37.5q-11 0 -48.5 3.5t-79.5 22.5q-22 11 -43 26.5t-39 38.5q-31 41 -43 86t-12 94q0 6 0.5 12.5t0.5 12.5q4 43 19 85t39 73q25 33 56 53t63 30q25 8 48.5 11t44.5 3h4.5h5.5q109 0 172.5 -84t66.5 -230
h-314v-25q0 -50 14.5 -73t56.5 -23q30 0 44.5 14.5t19.5 31.5q0 3 1 5.5t1 5.5v0zM229 332h137v4.5v3.5q0 44 -20 64.5t-46 20.5q-28 0 -49.5 -22.5t-21.5 -70.5v0z" />
    <glyph glyph-name="guilsinglright" unicode="&#xe6;" horiz-adv-x="884" 
d="M532 333h18q8 0 14 1t11 7q8 7 16 25.5t22 56.5q3 8 6 16.5t7 16.5q15 32 43 58.5t88 26.5q17 0 41.5 -2t50.5 -8v-126q-26 -5 -39.5 -16.5t-23.5 -26.5q-1 -2 -2.5 -3.5t-2.5 -3.5q-3 -5 -7 -11t-9 -12q-13 -15 -33 -28.5t-54 -18.5v-10h4.5h5.5q35 0 63.5 -21t37.5 -60
q6 -28 12.5 -35t15.5 -6h4h4h5.5h4.5q3 1 6.5 1.5t7.5 2.5v-152q-10 -4 -19 -6.5t-18 -4.5q-11 -2 -22.5 -3t-23.5 -1q-49 0 -91.5 26.5t-73.5 131.5q-2 8 -4.5 15t-4.5 13q-7 21 -16 30.5t-25 9.5h-19v-90q0 -18 7 -24t15 -7h4.5h4.5h0.5h0.5h7v-106h-258v106h7h0.5h0.5
h4.5h4.5q8 1 15 7t7 24v90h-19q-16 0 -25 -9.5t-16 -30.5q-2 -6 -4.5 -13t-4.5 -15q-31 -105 -73.5 -131.5t-91.5 -26.5q-12 0 -23.5 1t-22.5 3q-9 2 -18 4.5t-19 6.5v152q4 -2 7.5 -2.5t6.5 -1.5h4.5h5.5h4h3q9 0 14.5 4.5t10.5 19.5l2 8t2 9q9 40 38 61t64 20h4.5h4.5v10
q-34 5 -54 18.5t-33 28.5q-5 6 -9 12t-7 11q-1 2 -2.5 3.5t-2.5 3.5q-10 15 -23.5 26.5t-39.5 16.5v126q26 6 50.5 8t41.5 2q56 0 83.5 -23t42.5 -51q5 -10 9 -20t7 -19q3 -8 4.5 -12.5t3.5 -8.5v-0.5v-0.5l2.5 -5t2.5 -6q2 -4 3 -6.5t2 -4.5v-1v0q1 -2 2 -4.5t2 -5.5
t2.5 -6t2.5 -6q8 -15 16.5 -21.5t21.5 -6.5h18v60q0 12 -5 22t-27 10h-7v105h258v-105h-7q-22 0 -27 -10t-5 -22v-60v0z" />
    <glyph glyph-name="guilsinglright" unicode="&#x436;" horiz-adv-x="884" 
d="M532 333h18q8 0 14 1t11 7q8 7 16 25.5t22 56.5q3 8 6 16.5t7 16.5q15 32 43 58.5t88 26.5q17 0 41.5 -2t50.5 -8v-126q-26 -5 -39.5 -16.5t-23.5 -26.5q-1 -2 -2.5 -3.5t-2.5 -3.5q-3 -5 -7 -11t-9 -12q-13 -15 -33 -28.5t-54 -18.5v-10h4.5h5.5q35 0 63.5 -21t37.5 -60
q6 -28 12.5 -35t15.5 -6h4h4h5.5h4.5q3 1 6.5 1.5t7.5 2.5v-152q-10 -4 -19 -6.5t-18 -4.5q-11 -2 -22.5 -3t-23.5 -1q-49 0 -91.5 26.5t-73.5 131.5q-2 8 -4.5 15t-4.5 13q-7 21 -16 30.5t-25 9.5h-19v-90q0 -18 7 -24t15 -7h4.5h4.5h0.5h0.5h7v-106h-258v106h7h0.5h0.5
h4.5h4.5q8 1 15 7t7 24v90h-19q-16 0 -25 -9.5t-16 -30.5q-2 -6 -4.5 -13t-4.5 -15q-31 -105 -73.5 -131.5t-91.5 -26.5q-12 0 -23.5 1t-22.5 3q-9 2 -18 4.5t-19 6.5v152q4 -2 7.5 -2.5t6.5 -1.5h4.5h5.5h4h3q9 0 14.5 4.5t10.5 19.5l2 8t2 9q9 40 38 61t64 20h4.5h4.5v10
q-34 5 -54 18.5t-33 28.5q-5 6 -9 12t-7 11q-1 2 -2.5 3.5t-2.5 3.5q-10 15 -23.5 26.5t-39.5 16.5v126q26 6 50.5 8t41.5 2q56 0 83.5 -23t42.5 -51q5 -10 9 -20t7 -19q3 -8 4.5 -12.5t3.5 -8.5v-0.5v-0.5l2.5 -5t2.5 -6q2 -4 3 -6.5t2 -4.5v-1v0q1 -2 2 -4.5t2 -5.5
t2.5 -6t2.5 -6q8 -15 16.5 -21.5t21.5 -6.5h18v60q0 12 -5 22t-27 10h-7v105h258v-105h-7q-22 0 -27 -10t-5 -22v-60v0z" />
    <glyph glyph-name="florin" unicode="&#xe7;" horiz-adv-x="548" 
d="M30 205h168v-18q0 -6 0.5 -13t2.5 -14q5 -20 19.5 -37t44.5 -17q24 0 35 9.5t16 20.5q3 7 3.5 14t0.5 11q0 27 -20 35.5t-53 8.5h-21v123h32h4.5h5.5q20 1 37 9.5t17 37.5v4.5t-1 4.5q-2 15 -13 28t-36 13q-37 0 -50 -20.5t-15 -53.5h-165q1 14 4 30t8 32q18 48 70.5 88
t168.5 40q110 0 157.5 -34.5t58.5 -75.5q3 -9 4 -18.5t1 -18.5q0 -47 -33 -73.5t-72 -34.5q-5 0 -9.5 -1t-9.5 -1v-9h11.5t11.5 -1q39 -5 72 -30.5t33 -82.5q0 -14 -4 -33.5t-15 -40.5q-20 -36 -70 -66.5t-147 -30.5q-105 0 -157.5 34.5t-73.5 76.5q-14 29 -17.5 56t-3.5 42
v3.5v2.5v0z" />
    <glyph glyph-name="florin" unicode="&#x437;" horiz-adv-x="548" 
d="M30 205h168v-18q0 -6 0.5 -13t2.5 -14q5 -20 19.5 -37t44.5 -17q24 0 35 9.5t16 20.5q3 7 3.5 14t0.5 11q0 27 -20 35.5t-53 8.5h-21v123h32h4.5h5.5q20 1 37 9.5t17 37.5v4.5t-1 4.5q-2 15 -13 28t-36 13q-37 0 -50 -20.5t-15 -53.5h-165q1 14 4 30t8 32q18 48 70.5 88
t168.5 40q110 0 157.5 -34.5t58.5 -75.5q3 -9 4 -18.5t1 -18.5q0 -47 -33 -73.5t-72 -34.5q-5 0 -9.5 -1t-9.5 -1v-9h11.5t11.5 -1q39 -5 72 -30.5t33 -82.5q0 -14 -4 -33.5t-15 -40.5q-20 -36 -70 -66.5t-147 -30.5q-105 0 -157.5 34.5t-73.5 76.5q-14 29 -17.5 56t-3.5 42
v3.5v2.5v0z" />
    <glyph glyph-name="comma" unicode="&#xe8;" horiz-adv-x="671" 
d="M275 269h6l134 261h209v-105h-16h-0.5h-0.5q-12 0 -21.5 -4t-9.5 -28v-256q0 -24 8.5 -28t19.5 -4h2h2h16v-105h-267v105h9q17 0 23.5 6.5t6.5 25.5v129h-5l-137 -266h-207v105h17q20 0 25.5 7t5.5 15v1.5v1.5v2v2v1v2v256v4.5v5.5v2v2q-1 7 -7 12.5t-24 5.5h-17v105h267
v-105h-8q-13 0 -22 -5t-9 -27v-124v0z" />
    <glyph glyph-name="comma" unicode="&#x438;" horiz-adv-x="671" 
d="M275 269h6l134 261h209v-105h-16h-0.5h-0.5q-12 0 -21.5 -4t-9.5 -28v-256q0 -24 8.5 -28t19.5 -4h2h2h16v-105h-267v105h9q17 0 23.5 6.5t6.5 25.5v129h-5l-137 -266h-207v105h17q20 0 25.5 7t5.5 15v1.5v1.5v2v2v1v2v256v4.5v5.5v2v2q-1 7 -7 12.5t-24 5.5h-17v105h267
v-105h-8q-13 0 -22 -5t-9 -27v-124v0z" />
    <glyph glyph-name="L" unicode="&#xe9;" horiz-adv-x="673" 
d="M276 269h6l133 261h210v-105h-17q-19 0 -25 -6.5t-6 -13.5v-1.5v-1.5v-4.5v-4.5v-256v-3.5v-4.5v-2v-2q1 -8 7 -14t24 -6h17v-105h-267v105h8q14 0 22.5 4.5t8.5 27.5v129h-5l-138 -266h-206v105h16h2h2q11 0 19.5 4t8.5 28v256q0 24 -9.5 28t-21.5 4h-0.5h-0.5h-16v105
h267v-105h-9q-19 0 -24.5 -8.5t-5.5 -23.5v-124v0zM142 745h148q2 -32 17 -45t33 -16q4 0 8 -0.5t8 -0.5h1.5h1.5q22 1 40.5 13.5t19.5 48.5h148q-1 -76 -65.5 -123.5t-146.5 -47.5q-10 0 -20 1l-20 2q-65 11 -118.5 54t-54.5 114v0z" />
    <glyph glyph-name="L" unicode="&#x439;" horiz-adv-x="673" 
d="M276 269h6l133 261h210v-105h-17q-19 0 -25 -6.5t-6 -13.5v-1.5v-1.5v-4.5v-4.5v-256v-3.5v-4.5v-2v-2q1 -8 7 -14t24 -6h17v-105h-267v105h8q14 0 22.5 4.5t8.5 27.5v129h-5l-138 -266h-206v105h16h2h2q11 0 19.5 4t8.5 28v256q0 24 -9.5 28t-21.5 4h-0.5h-0.5h-16v105
h267v-105h-9q-19 0 -24.5 -8.5t-5.5 -23.5v-124v0zM142 745h148q2 -32 17 -45t33 -16q4 0 8 -0.5t8 -0.5h1.5h1.5q22 1 40.5 13.5t19.5 48.5h148q-1 -76 -65.5 -123.5t-146.5 -47.5q-10 0 -20 1l-20 2q-65 11 -118.5 54t-54.5 114v0z" />
    <glyph glyph-name="asterisk" unicode="&#xea;" horiz-adv-x="629" 
d="M277 333h23q14 0 22 9.5t15 27.5q4 8 7.5 18t7.5 21l2 6t3 6q18 50 48.5 85t123.5 35q6 0 16 -1t20 -3q5 -1 9.5 -1.5t9.5 -1.5q2 0 5 -0.5t5 -1.5v-127q-23 -5 -34 -12.5t-20 -18.5l-6 -8t-6 -9q-3 -4 -6 -8.5t-6 -8.5q-13 -18 -34 -33.5t-59 -21.5v-10h4.5h5.5
q35 0 63.5 -21t37.5 -60q1 -5 2 -9t2 -7q5 -17 10.5 -21t15.5 -4h3.5h2.5h5.5h4.5q3 1 6.5 1.5t7.5 2.5v-152q-10 -4 -19 -6.5t-18 -4.5q-11 -2 -22.5 -3t-23.5 -1h-6.5h-7.5q-43 3 -83.5 32t-67.5 126q-2 6 -3.5 11.5t-3.5 10.5q-7 23 -16.5 34.5t-26.5 11.5h-19v-79
q0 -22 9.5 -27t22.5 -5h7v-105h-269v105h18h1.5h1.5h4h5q7 1 13.5 7t6.5 25v256v1.5v0.5v1.5v1.5q0 10 -4.5 18.5t-27.5 8.5h-18v105h275v-105h-13q-14 0 -23 -5t-9 -27v-60v0z" />
    <glyph glyph-name="asterisk" unicode="&#x43a;" horiz-adv-x="629" 
d="M277 333h23q14 0 22 9.5t15 27.5q4 8 7.5 18t7.5 21l2 6t3 6q18 50 48.5 85t123.5 35q6 0 16 -1t20 -3q5 -1 9.5 -1.5t9.5 -1.5q2 0 5 -0.5t5 -1.5v-127q-23 -5 -34 -12.5t-20 -18.5l-6 -8t-6 -9q-3 -4 -6 -8.5t-6 -8.5q-13 -18 -34 -33.5t-59 -21.5v-10h4.5h5.5
q35 0 63.5 -21t37.5 -60q1 -5 2 -9t2 -7q5 -17 10.5 -21t15.5 -4h3.5h2.5h5.5h4.5q3 1 6.5 1.5t7.5 2.5v-152q-10 -4 -19 -6.5t-18 -4.5q-11 -2 -22.5 -3t-23.5 -1h-6.5h-7.5q-43 3 -83.5 32t-67.5 126q-2 6 -3.5 11.5t-3.5 10.5q-7 23 -16.5 34.5t-26.5 11.5h-19v-79
q0 -22 9.5 -27t22.5 -5h7v-105h-269v105h18h1.5h1.5h4h5q7 1 13.5 7t6.5 25v256v1.5v0.5v1.5v1.5q0 10 -4.5 18.5t-27.5 8.5h-18v105h275v-105h-13q-14 0 -23 -5t-9 -27v-60v0z" />
    <glyph glyph-name="edieresis" unicode="&#xeb;" horiz-adv-x="644" 
d="M76 530h521v-105h-18q-22 0 -27 -8.5t-5 -23.5v-256q0 -22 9.5 -27t22.5 -5h18v-105h-270v105h8q14 0 23 5t9 27v276h-88q-1 -22 -2 -38t-1 -30v-6.5v-6.5q-1 -6 -1 -12.5v-13.5q-2 -93 -9 -141t-17 -74q-15 -40 -48.5 -70.5t-95.5 -30.5q-22 0 -39.5 5t-30.5 10v152
l8 -2l8 -2q7 -2 13.5 -3t11.5 -1q39 0 48.5 42t12.5 145q0 10 0.5 21t0.5 23v3.5v2.5q0 29 -8 34t-25 5h-29v105v0z" />
    <glyph glyph-name="edieresis" unicode="&#x43b;" horiz-adv-x="644" 
d="M76 530h521v-105h-18q-22 0 -27 -8.5t-5 -23.5v-256q0 -22 9.5 -27t22.5 -5h18v-105h-270v105h8q14 0 23 5t9 27v276h-88q-1 -22 -2 -38t-1 -30v-6.5v-6.5q-1 -6 -1 -12.5v-13.5q-2 -93 -9 -141t-17 -74q-15 -40 -48.5 -70.5t-95.5 -30.5q-22 0 -39.5 5t-30.5 10v152
l8 -2l8 -2q7 -2 13.5 -3t11.5 -1q39 0 48.5 42t12.5 145q0 10 0.5 21t0.5 23v3.5v2.5q0 29 -8 34t-25 5h-29v105v0z" />
    <glyph glyph-name="igrave" unicode="&#xec;" horiz-adv-x="795" 
d="M47 530h266l94 -208l75 208h266v-105h-18h-6t-6 -1q-7 -2 -13 -8t-6 -23v-256q0 -19 7 -25t15 -7h4h4h0.5h0.5h18v-105h-268v105h8q14 0 22.5 4.5t8.5 27.5v188l-101 -277h-78l-127 277v-188v-4.5v-4.5q0 -9 5.5 -16t27.5 -7h5v-105h-204v105h17h2h2q11 0 19.5 4t8.5 28
v256q0 24 -9.5 28t-21.5 4h-0.5h-0.5h-17v105v0z" />
    <glyph glyph-name="igrave" unicode="&#x43c;" horiz-adv-x="795" 
d="M47 530h266l94 -208l75 208h266v-105h-18h-6t-6 -1q-7 -2 -13 -8t-6 -23v-256q0 -19 7 -25t15 -7h4h4h0.5h0.5h18v-105h-268v105h8q14 0 22.5 4.5t8.5 27.5v188l-101 -277h-78l-127 277v-188v-4.5v-4.5q0 -9 5.5 -16t27.5 -7h5v-105h-204v105h17h2h2q11 0 19.5 4t8.5 28
v256q0 24 -9.5 28t-21.5 4h-0.5h-0.5h-17v105v0z" />
    <glyph glyph-name="ellipsis" unicode="&#xed;" horiz-adv-x="671" 
d="M313 530v-105h-4h-6t-6 -1q-7 -1 -13.5 -7.5t-6.5 -23.5v-65h117v65v3.5v2.5v3.5v3.5q-2 7 -8 13t-23 6h-4v105h265v-105h-19q-14 0 -22.5 -5t-8.5 -27v-256q0 -22 9 -27t19 -5h1.5h1.5h19v-105h-265v105h4q18 0 24 6t7 13v3.5v2.5v4v3v74h-117v-74q0 -19 6.5 -25
t13.5 -7h5h4h1.5h1.5h4v-105h-266v105h18q14 0 23 5t9 27v256q0 15 -5 23.5t-27 8.5h-18v105h266v0z" />
    <glyph glyph-name="ellipsis" unicode="&#x43d;" horiz-adv-x="671" 
d="M313 530v-105h-4h-6t-6 -1q-7 -1 -13.5 -7.5t-6.5 -23.5v-65h117v65v3.5v2.5v3.5v3.5q-2 7 -8 13t-23 6h-4v105h265v-105h-19q-14 0 -22.5 -5t-8.5 -27v-256q0 -22 9 -27t19 -5h1.5h1.5h19v-105h-265v105h4q18 0 24 6t7 13v3.5v2.5v4v3v74h-117v-74q0 -19 6.5 -25
t13.5 -7h5h4h1.5h1.5h4v-105h-266v105h18q14 0 23 5t9 27v256q0 15 -5 23.5t-27 8.5h-18v105h266v0z" />
    <glyph glyph-name="percent" unicode="&#xee;" horiz-adv-x="588" 
d="M294 541q19 0 38 -2t39 -7q36 -9 71 -29.5t64 -56.5q23 -28 37 -65t19 -76q2 -10 2.5 -20t0.5 -20q0 -50 -12 -96t-43 -87q-32 -43 -91.5 -67.5t-124.5 -24.5t-124.5 24.5t-91.5 67.5q-31 41 -43 87t-12 96q0 13 1.5 27t3.5 28q7 35 20.5 68t33.5 58l8 10t9 9
q28 29 76 52.5t119 23.5v0zM294 425q-35 0 -47 -30.5t-14 -66.5q-1 -10 -1 -19.5v-18.5v-50q0 -84 16.5 -108t36.5 -27h4.5h4.5h4.5h4.5q20 3 36.5 27t16.5 108v50v18.5t-1 19.5q-2 36 -14 66.5t-47 30.5v0z" />
    <glyph glyph-name="percent" unicode="&#x43e;" horiz-adv-x="588" 
d="M294 541q19 0 38 -2t39 -7q36 -9 71 -29.5t64 -56.5q23 -28 37 -65t19 -76q2 -10 2.5 -20t0.5 -20q0 -50 -12 -96t-43 -87q-32 -43 -91.5 -67.5t-124.5 -24.5t-124.5 24.5t-91.5 67.5q-31 41 -43 87t-12 96q0 13 1.5 27t3.5 28q7 35 20.5 68t33.5 58l8 10t9 9
q28 29 76 52.5t119 23.5v0zM294 425q-35 0 -47 -30.5t-14 -66.5q-1 -10 -1 -19.5v-18.5v-50q0 -84 16.5 -108t36.5 -27h4.5h4.5h4.5h4.5q20 3 36.5 27t16.5 108v50v18.5t-1 19.5q-2 36 -14 66.5t-47 30.5v0z" />
    <glyph glyph-name="C" unicode="&#xef;" 
d="M48 0v105h19q20 0 25.5 7t5.5 15v1.5v1.5v2v2v1v2v256v0.5v0.5v3.5v3.5q-1 9 -6 16.5t-25 7.5h-20v105h574v-105h-19q-23 0 -27 -9t-4 -20v-1.5v-1.5v-256q0 -23 8.5 -27.5t22.5 -4.5h19v-105h-268v105h5q21 0 26.5 7.5t5.5 16.5v2.5v2.5v1.5v1.5v276h-112v-276
q0 -23 10 -27.5t22 -4.5h5v-105h-267v0z" />
    <glyph glyph-name="C" unicode="&#x43f;" 
d="M48 0v105h19q20 0 25.5 7t5.5 15v1.5v1.5v2v2v1v2v256v0.5v0.5v3.5v3.5q-1 9 -6 16.5t-25 7.5h-20v105h574v-105h-19q-23 0 -27 -9t-4 -20v-1.5v-1.5v-256q0 -23 8.5 -27.5t22.5 -4.5h19v-105h-268v105h5q21 0 26.5 7.5t5.5 16.5v2.5v2.5v1.5v1.5v276h-112v-276
q0 -23 10 -27.5t22 -4.5h5v-105h-267v0z" />
    <glyph glyph-name="eth" unicode="&#xf0;" horiz-adv-x="634" 
d="M277 20v-93q0 -21 9 -26t22 -5l39 -1v-105h-300v105h17q0 1 0.5 1h0.5h4h4q9 1 16.5 6.5t7.5 25.5v465q0 22 -9.5 27t-23.5 5h-17v105h197l18 -49h4q15 12 27 21.5t24 16.5q17 11 35.5 16.5t44.5 5.5q99 0 145 -57.5t60 -126.5q5 -23 7 -45.5t2 -43.5q0 -19 -5 -55.5
t-21 -75.5q-22 -56 -71.5 -101.5t-141.5 -45.5q-34 0 -56 9t-39 21v0zM277 373v-231q1 -2 2.5 -4t2.5 -4q7 -11 19 -19.5t32 -8.5q28 0 41.5 14.5t19.5 32.5q3 11 4 21.5t1 17.5q0 5 0.5 9.5t0.5 7.5q1 6 1.5 10.5t0.5 9.5v3.5v3.5v51v8.5v8.5q0 50 -7.5 85.5t-54.5 35.5
q-20 0 -37.5 -10.5t-25.5 -41.5v0z" />
    <glyph glyph-name="eth" unicode="&#x440;" horiz-adv-x="634" 
d="M277 20v-93q0 -21 9 -26t22 -5l39 -1v-105h-300v105h17q0 1 0.5 1h0.5h4h4q9 1 16.5 6.5t7.5 25.5v465q0 22 -9.5 27t-23.5 5h-17v105h197l18 -49h4q15 12 27 21.5t24 16.5q17 11 35.5 16.5t44.5 5.5q99 0 145 -57.5t60 -126.5q5 -23 7 -45.5t2 -43.5q0 -19 -5 -55.5
t-21 -75.5q-22 -56 -71.5 -101.5t-141.5 -45.5q-34 0 -56 9t-39 21v0zM277 373v-231q1 -2 2.5 -4t2.5 -4q7 -11 19 -19.5t32 -8.5q28 0 41.5 14.5t19.5 32.5q3 11 4 21.5t1 17.5q0 5 0.5 9.5t0.5 7.5q1 6 1.5 10.5t0.5 9.5v3.5v3.5v51v8.5v8.5q0 50 -7.5 85.5t-54.5 35.5
q-20 0 -37.5 -10.5t-25.5 -41.5v0z" />
    <glyph glyph-name="quotedblleft" unicode="&#xf1;" horiz-adv-x="571" 
d="M354 212h194q-1 -92 -66.5 -157t-187.5 -65q-11 0 -21.5 0.5t-21.5 2.5q-50 7 -97 29t-76 60q-31 41 -43 87t-12 96q0 12 1 24t3 24q6 37 20 72t35 61q32 41 85 68t126 27q94 0 145 -35.5t75 -77.5q18 -31 24 -59.5t8 -42.5h-192v5.5v4.5q0 37 -15 63t-44 26
q-42 0 -52 -39.5t-10 -94.5v-51q0 -88 18 -111t44 -23q4 0 12 1t17 8q12 7 21.5 27t9.5 59v3v3v2.5v2.5v0z" />
    <glyph glyph-name="quotedblleft" unicode="&#x441;" horiz-adv-x="571" 
d="M354 212h194q-1 -92 -66.5 -157t-187.5 -65q-11 0 -21.5 0.5t-21.5 2.5q-50 7 -97 29t-76 60q-31 41 -43 87t-12 96q0 12 1 24t3 24q6 37 20 72t35 61q32 41 85 68t126 27q94 0 145 -35.5t75 -77.5q18 -31 24 -59.5t8 -42.5h-192v5.5v4.5q0 37 -15 63t-44 26
q-42 0 -52 -39.5t-10 -94.5v-51q0 -88 18 -111t44 -23q4 0 12 1t17 8q12 7 21.5 27t9.5 59v3v3v2.5v2.5v0z" />
    <glyph glyph-name="two" unicode="&#xf2;" horiz-adv-x="558" 
d="M23 530h512v-192h-104l-2 18q-1 5 -1 9t-1 8q-2 23 -8.5 31.5t-31.5 8.5h-18v-276q0 -22 9 -27t22 -5h28v-105h-298v105h28q14 0 22.5 4.5t8.5 27.5v276h-17q-26 0 -32.5 -9t-7.5 -19v-1.5v-1.5v-2.5v-2.5q0 -2 -0.5 -3t-0.5 -3t-0.5 -4t-0.5 -3q0 -2 -0.5 -4t-0.5 -4
l-1 -18h-105v192v0z" />
    <glyph glyph-name="two" unicode="&#x442;" horiz-adv-x="558" 
d="M23 530h512v-192h-104l-2 18q-1 5 -1 9t-1 8q-2 23 -8.5 31.5t-31.5 8.5h-18v-276q0 -22 9 -27t22 -5h28v-105h-298v105h28q14 0 22.5 4.5t8.5 27.5v276h-17q-26 0 -32.5 -9t-7.5 -19v-1.5v-1.5v-2.5v-2.5q0 -2 -0.5 -3t-0.5 -3t-0.5 -4t-0.5 -3q0 -2 -0.5 -4t-0.5 -4
l-1 -18h-105v192v0z" />
    <glyph glyph-name="three" unicode="&#xf3;" horiz-adv-x="593" 
d="M593 530v-105h-21q-11 0 -17 -3.5t-10 -13.5q-3 -8 -6.5 -19t-9.5 -27l-132 -382q-33 -96 -76 -161t-136 -65q-12 0 -27.5 3t-38.5 15l1 152q14 -6 26 -7.5t16 -1.5t7.5 0.5t7.5 1.5q17 4 31 21.5t18 61.5l-166 387q-5 12 -9.5 19.5t-8.5 11.5q-6 5 -12 6t-15 1h-2h-2
h-11v105h313v-105h-32q-8 0 -14 -2t-6 -10q0 -2 1 -5t2 -8q2 -5 2.5 -8.5t1.5 -5.5q0 -1 0.5 -1.5t0.5 -1.5l0.5 -0.5t0.5 -1.5l71 -164h10l55 172q0 1 0.5 2.5t1.5 3.5q0 1 0.5 2t0.5 3q1 3 1.5 6.5t0.5 5.5v1.5v0.5q-1 4 -3.5 7.5t-7.5 3.5h-33v105h226v0z" />
    <glyph glyph-name="three" unicode="&#x443;" horiz-adv-x="593" 
d="M593 530v-105h-21q-11 0 -17 -3.5t-10 -13.5q-3 -8 -6.5 -19t-9.5 -27l-132 -382q-33 -96 -76 -161t-136 -65q-12 0 -27.5 3t-38.5 15l1 152q14 -6 26 -7.5t16 -1.5t7.5 0.5t7.5 1.5q17 4 31 21.5t18 61.5l-166 387q-5 12 -9.5 19.5t-8.5 11.5q-6 5 -12 6t-15 1h-2h-2
h-11v105h313v-105h-32q-8 0 -14 -2t-6 -10q0 -2 1 -5t2 -8q2 -5 2.5 -8.5t1.5 -5.5q0 -1 0.5 -1.5t0.5 -1.5l0.5 -0.5t0.5 -1.5l71 -164h10l55 172q0 1 0.5 2.5t1.5 3.5q0 1 0.5 2t0.5 3q1 3 1.5 6.5t0.5 5.5v1.5v0.5q-1 4 -3.5 7.5t-7.5 3.5h-33v105h226v0z" />
    <glyph glyph-name="ocircumflex" unicode="&#xf4;" horiz-adv-x="830" 
d="M258 782h247v-252q17 7 34 9.5t32 2.5q35 0 64.5 -11t50.5 -25q15 -10 25 -18.5t15 -13.5q25 -24 42 -56.5t27 -67.5q6 -22 9 -44t3 -41q0 -21 -3 -43.5t-9 -45.5q-18 -70 -70.5 -128t-153.5 -58q-20 0 -34 2t-27 8h-2.5t-2.5 1v-74q0 -14 5 -22.5t27 -8.5l35 -1v-105
h-314v105h35q22 1 27 9.5t5 23.5v73q-1 -1 -2.5 -1h-2.5q-13 -6 -27 -8t-34 -2q-101 0 -153.5 58t-70.5 128q-6 23 -9 45.5t-3 43.5q0 19 3 41t9 44q10 35 27 67.5t42 56.5q5 5 15 13.5t25 18.5q21 14 50.5 25t64.5 11q16 0 32.5 -2.5t33.5 -9.5v115q0 15 -5 23.5t-27 8.5
h-35v105v0zM325 107v318q-1 1 -3 2.5t-4 2.5q-3 1 -5.5 2.5t-5.5 2.5q-2 1 -4 1.5t-4 0.5q-54 0 -63 -51.5t-9 -118.5v-12v-5q1 -2 1.5 -7t0.5 -23q0 -8 0.5 -17t0.5 -18q3 -35 15.5 -63.5t51.5 -28.5q8 0 14 3t10 7l2 2l2 2v0zM505 107l2 -2l2 -2q4 -4 10 -7t14 -3
q39 0 51.5 28.5t15.5 63.5q0 9 0.5 18t0.5 17q0 18 0.5 23t1.5 7v5v12q0 67 -9 118.5t-63 51.5q-2 0 -4 -0.5t-4 -1.5q-3 -1 -5.5 -2.5t-5.5 -2.5q-2 -1 -3.5 -2.5t-3.5 -2.5v-318v0z" />
    <glyph glyph-name="ocircumflex" unicode="&#x444;" horiz-adv-x="830" 
d="M258 782h247v-252q17 7 34 9.5t32 2.5q35 0 64.5 -11t50.5 -25q15 -10 25 -18.5t15 -13.5q25 -24 42 -56.5t27 -67.5q6 -22 9 -44t3 -41q0 -21 -3 -43.5t-9 -45.5q-18 -70 -70.5 -128t-153.5 -58q-20 0 -34 2t-27 8h-2.5t-2.5 1v-74q0 -14 5 -22.5t27 -8.5l35 -1v-105
h-314v105h35q22 1 27 9.5t5 23.5v73q-1 -1 -2.5 -1h-2.5q-13 -6 -27 -8t-34 -2q-101 0 -153.5 58t-70.5 128q-6 23 -9 45.5t-3 43.5q0 19 3 41t9 44q10 35 27 67.5t42 56.5q5 5 15 13.5t25 18.5q21 14 50.5 25t64.5 11q16 0 32.5 -2.5t33.5 -9.5v115q0 15 -5 23.5t-27 8.5
h-35v105v0zM325 107v318q-1 1 -3 2.5t-4 2.5q-3 1 -5.5 2.5t-5.5 2.5q-2 1 -4 1.5t-4 0.5q-54 0 -63 -51.5t-9 -118.5v-12v-5q1 -2 1.5 -7t0.5 -23q0 -8 0.5 -17t0.5 -18q3 -35 15.5 -63.5t51.5 -28.5q8 0 14 3t10 7l2 2l2 2v0zM505 107l2 -2l2 -2q4 -4 10 -7t14 -3
q39 0 51.5 28.5t15.5 63.5q0 9 0.5 18t0.5 17q0 18 0.5 23t1.5 7v5v12q0 67 -9 118.5t-63 51.5q-2 0 -4 -0.5t-4 -1.5q-3 -1 -5.5 -2.5t-5.5 -2.5q-2 -1 -3.5 -2.5t-3.5 -2.5v-318v0z" />
    <glyph glyph-name="otilde" unicode="&#xf5;" horiz-adv-x="592" 
d="M282 530v-105h-12h-0.5h-1.5l-2.5 -2.5l-2.5 -2.5v-1.5v-0.5q0 -2 1 -4t3 -3l1.5 -3t1.5 -2l37 -53h2l32 53q0 1 1 2.5t2 4.5h0.5h0.5q1 2 2 4.5l1 2.5v0.5v0.5v0v0q-1 0 -1 0.5v1.5l-0.5 0.5l-0.5 0.5l-0.5 0.5t-1.5 0.5h-16v105h227v-105h-1.5h-1.5q-21 -1 -35 -4
t-26 -19q-2 -2 -3 -4.5t-3 -4.5l-69 -113l99 -129q2 -2 3.5 -4t3.5 -4t3.5 -4t3.5 -4l3 -4.5t2 -3.5q1 0 1.5 -0.5t0.5 -1.5q5 -7 9.5 -11.5t8.5 -5.5q3 -2 7.5 -2.5t9.5 -0.5h10v-105h-282v105h17q5 0 7 1.5t3 3.5v1.5v1.5q0 6 -1 8.5t-3 4.5l-0.5 0.5l-1.5 1.5l-0.5 0.5
l-0.5 0.5l-47 60l-37 -60l-1.5 -3t-0.5 -2v0v0q-1 -1 -1.5 -2.5t-2.5 -3.5l-0.5 -0.5t-0.5 -1.5l-1.5 -1.5t-0.5 -2.5q0 -4 4 -5.5t8 -1.5h10v-105h-237v105h19q20 0 30.5 3.5t18.5 13.5q3 4 6 8.5l7 10.5l71 117l-93 132q-3 4 -5.5 8t-5.5 7q-8 10 -16.5 15t-21.5 5h-9v105
h270v0z" />
    <glyph glyph-name="otilde" unicode="&#x445;" horiz-adv-x="592" 
d="M282 530v-105h-12h-0.5h-1.5l-2.5 -2.5l-2.5 -2.5v-1.5v-0.5q0 -2 1 -4t3 -3l1.5 -3t1.5 -2l37 -53h2l32 53q0 1 1 2.5t2 4.5h0.5h0.5q1 2 2 4.5l1 2.5v0.5v0.5v0v0q-1 0 -1 0.5v1.5l-0.5 0.5l-0.5 0.5l-0.5 0.5t-1.5 0.5h-16v105h227v-105h-1.5h-1.5q-21 -1 -35 -4
t-26 -19q-2 -2 -3 -4.5t-3 -4.5l-69 -113l99 -129q2 -2 3.5 -4t3.5 -4t3.5 -4t3.5 -4l3 -4.5t2 -3.5q1 0 1.5 -0.5t0.5 -1.5q5 -7 9.5 -11.5t8.5 -5.5q3 -2 7.5 -2.5t9.5 -0.5h10v-105h-282v105h17q5 0 7 1.5t3 3.5v1.5v1.5q0 6 -1 8.5t-3 4.5l-0.5 0.5l-1.5 1.5l-0.5 0.5
l-0.5 0.5l-47 60l-37 -60l-1.5 -3t-0.5 -2v0v0q-1 -1 -1.5 -2.5t-2.5 -3.5l-0.5 -0.5t-0.5 -1.5l-1.5 -1.5t-0.5 -2.5q0 -4 4 -5.5t8 -1.5h10v-105h-237v105h19q20 0 30.5 3.5t18.5 13.5q3 4 6 8.5l7 10.5l71 117l-93 132q-3 4 -5.5 8t-5.5 7q-8 10 -16.5 15t-21.5 5h-9v105
h270v0z" />
    <glyph glyph-name="odieresis" unicode="&#xf6;" horiz-adv-x="679" 
d="M47 0v105h17q23 0 27 8.5t4 20.5v1.5v1.5v256v4.5v4.5v1.5v1.5q0 7 -5.5 13.5t-24.5 6.5h-18v105h265v-105h-5q-13 0 -22.5 -5t-9.5 -27v-276h116v276q0 24 -9.5 28t-21.5 4h-0.5h-0.5h-4v105h267v-105h-19q-13 0 -22.5 -5t-9.5 -27v-256q0 -16 6.5 -24t25.5 -8h33v-241
h-109l-15 84q-1 8 -2 13.5t-2 10.5q-4 19 -10 23.5t-22 4.5h-429v0z" />
    <glyph glyph-name="odieresis" unicode="&#x446;" horiz-adv-x="679" 
d="M47 0v105h17q23 0 27 8.5t4 20.5v1.5v1.5v256v4.5v4.5v1.5v1.5q0 7 -5.5 13.5t-24.5 6.5h-18v105h265v-105h-5q-13 0 -22.5 -5t-9.5 -27v-276h116v276q0 24 -9.5 28t-21.5 4h-0.5h-0.5h-4v105h267v-105h-19q-13 0 -22.5 -5t-9.5 -27v-256q0 -16 6.5 -24t25.5 -8h33v-241
h-109l-15 84q-1 8 -2 13.5t-2 10.5q-4 19 -10 23.5t-22 4.5h-429v0z" />
    <glyph glyph-name="divide" unicode="&#xf7;" horiz-adv-x="649" 
d="M289 530v-105h-2t-2 1h-3h-2q-17 -1 -21 -11t-5 -22v-11.5v-10.5q0 -44 13.5 -58t50.5 -14q9 0 23.5 1t30.5 4v89v6t-1 7q-1 7 -6.5 13.5t-19.5 5.5h-2.5h-3.5v105h263v-105h-19q-23 0 -27 -9t-4 -20v-1.5v-1.5v-256q0 -23 8.5 -27.5t22.5 -4.5h19v-105h-289v105h11
q33 0 40.5 7t7.5 26v52q-22 -4 -45 -6t-55 -2q-122 0 -157 35t-39 76q0 7 -0.5 13.5t-0.5 13.5v14v4q-1 1 -1 4v13v42q0 16 -7 21.5t-15 6.5h-4.5h-4.5h-20v105h266v0z" />
    <glyph glyph-name="divide" unicode="&#x447;" horiz-adv-x="649" 
d="M289 530v-105h-2t-2 1h-3h-2q-17 -1 -21 -11t-5 -22v-11.5v-10.5q0 -44 13.5 -58t50.5 -14q9 0 23.5 1t30.5 4v89v6t-1 7q-1 7 -6.5 13.5t-19.5 5.5h-2.5h-3.5v105h263v-105h-19q-23 0 -27 -9t-4 -20v-1.5v-1.5v-256q0 -23 8.5 -27.5t22.5 -4.5h19v-105h-289v105h11
q33 0 40.5 7t7.5 26v52q-22 -4 -45 -6t-55 -2q-122 0 -157 35t-39 76q0 7 -0.5 13.5t-0.5 13.5v14v4q-1 1 -1 4v13v42q0 16 -7 21.5t-15 6.5h-4.5h-4.5h-20v105h266v0z" />
    <glyph glyph-name="oslash" unicode="&#xf8;" horiz-adv-x="964" 
d="M48 0v105h18q19 0 25 6.5t6 26.5v255q0 15 -5 23.5t-27 8.5h-18v105h266v-105h-4q-22 0 -27 -8.5t-5 -23.5v-276h115v276q0 22 -8.5 27t-22.5 5h-5v105h252v-105h-4h-0.5h-0.5h-4.5h-4.5q-8 -1 -15 -7t-7 -25v-276h115v276q0 17 -6 24.5t-25 7.5h-5v105h266v-105h-19
q-18 0 -24.5 -7.5t-6.5 -24.5v-255q0 -19 7.5 -26t23.5 -7h19v-105h-869v0z" />
    <glyph glyph-name="oslash" unicode="&#x448;" horiz-adv-x="964" 
d="M48 0v105h18q19 0 25 6.5t6 26.5v255q0 15 -5 23.5t-27 8.5h-18v105h266v-105h-4q-22 0 -27 -8.5t-5 -23.5v-276h115v276q0 22 -8.5 27t-22.5 5h-5v105h252v-105h-4h-0.5h-0.5h-4.5h-4.5q-8 -1 -15 -7t-7 -25v-276h115v276q0 17 -6 24.5t-25 7.5h-5v105h266v-105h-19
q-18 0 -24.5 -7.5t-6.5 -24.5v-255q0 -19 7.5 -26t23.5 -7h19v-105h-869v0z" />
    <glyph glyph-name="question" unicode="&#xf9;" horiz-adv-x="960" 
d="M917 530v-105h-19q-18 0 -24.5 -7.5t-6.5 -24.5v-255q0 -19 7.5 -26t23.5 -7h19v-253h-102l-15 96q-1 4 -1 7t-1 6q-3 18 -8.5 28.5t-25.5 10.5h-716v105h18q19 0 25 6.5t6 26.5v255q0 15 -5 23.5t-27 8.5h-18v105h266v-105h-4q-22 0 -27 -8.5t-5 -23.5v-276h115v276
q0 22 -8.5 27t-22.5 5h-5v105h252v-105h-4h-0.5h-0.5h-4.5h-4.5q-8 -1 -15 -7t-7 -25v-276h115v276q0 17 -6 24.5t-25 7.5h-5v105h266v0z" />
    <glyph glyph-name="question" unicode="&#x449;" horiz-adv-x="960" 
d="M917 530v-105h-19q-18 0 -24.5 -7.5t-6.5 -24.5v-255q0 -19 7.5 -26t23.5 -7h19v-253h-102l-15 96q-1 4 -1 7t-1 6q-3 18 -8.5 28.5t-25.5 10.5h-716v105h18q19 0 25 6.5t6 26.5v255q0 15 -5 23.5t-27 8.5h-18v105h266v-105h-4q-22 0 -27 -8.5t-5 -23.5v-276h115v276
q0 22 -8.5 27t-22.5 5h-5v105h252v-105h-4h-0.5h-0.5h-4.5h-4.5q-8 -1 -15 -7t-7 -25v-276h115v276q0 17 -6 24.5t-25 7.5h-5v105h266v0z" />
    <glyph glyph-name="A" unicode="&#xfa;" horiz-adv-x="678" 
d="M427 530v-105h-18h-0.5h-0.5q-12 0 -21.5 -4t-9.5 -28v-51h20q173 0 221.5 -39t48.5 -125q0 -88 -58.5 -133t-231.5 -45h-230v105h18q14 0 23 5t9 27v276h-9q-28 0 -35 -4.5t-9 -17.5q0 -1 -0.5 -2t-0.5 -2q-1 -7 -2 -9.5t-2 -4.5q0 -1 -0.5 -2t-0.5 -3l-9 -46h-106v208
h404v0zM377 117h13h8.5t9.5 1q19 1 35 12.5t16 47.5q0 32 -14.5 45.5t-49.5 13.5h-18v-120v0z" />
    <glyph glyph-name="A" unicode="&#x44a;" horiz-adv-x="678" 
d="M427 530v-105h-18h-0.5h-0.5q-12 0 -21.5 -4t-9.5 -28v-51h20q173 0 221.5 -39t48.5 -125q0 -88 -58.5 -133t-231.5 -45h-230v105h18q14 0 23 5t9 27v276h-9q-28 0 -35 -4.5t-9 -17.5q0 -1 -0.5 -2t-0.5 -2q-1 -7 -2 -9.5t-2 -4.5q0 -1 -0.5 -2t-0.5 -3l-9 -46h-106v208
h404v0zM377 117h13h8.5t9.5 1q19 1 35 12.5t16 47.5q0 32 -14.5 45.5t-49.5 13.5h-18v-120v0z" />
    <glyph glyph-name="slash" unicode="&#xfb;" horiz-adv-x="913" 
d="M47 0v105h18q21 0 26.5 4.5t5.5 27.5v256v1.5v1.5v0.5v1.5q0 18 -10 22.5t-22 4.5h-18v105h280v-105h-21q-14 0 -20.5 -6t-7.5 -13q-1 -2 -1 -3.5v-3.5v-57h20q125 0 198 -29.5t73 -148.5q0 -82 -59 -123t-232 -41h-230v0zM277 117h13h1.5h1.5h11.5t12.5 1q16 3 29 15
t13 45q0 32 -15.5 45.5t-48.5 13.5h-18v-120v0zM591 0v105h14q13 0 22 5t9 27v256q0 22 -8.5 27t-22.5 5h-19v105h280v-105h-19h-0.5h-0.5h-1h-1q-10 0 -19 -4.5t-9 -27.5v-256q0 -24 8.5 -28t21.5 -4h0.5h0.5h19v-105h-275v0z" />
    <glyph glyph-name="slash" unicode="&#x44b;" horiz-adv-x="913" 
d="M47 0v105h18q21 0 26.5 4.5t5.5 27.5v256v1.5v1.5v0.5v1.5q0 18 -10 22.5t-22 4.5h-18v105h280v-105h-21q-14 0 -20.5 -6t-7.5 -13q-1 -2 -1 -3.5v-3.5v-57h20q125 0 198 -29.5t73 -148.5q0 -82 -59 -123t-232 -41h-230v0zM277 117h13h1.5h1.5h11.5t12.5 1q16 3 29 15
t13 45q0 32 -15.5 45.5t-48.5 13.5h-18v-120v0zM591 0v105h14q13 0 22 5t9 27v256q0 22 -8.5 27t-22.5 5h-19v105h280v-105h-19h-0.5h-0.5h-1h-1q-10 0 -19 -4.5t-9 -27.5v-256q0 -24 8.5 -28t21.5 -4h0.5h0.5h19v-105h-275v0z" />
    <glyph glyph-name="udieresis" unicode="&#xfc;" horiz-adv-x="579" 
d="M47 0v105h18q21 0 26.5 4.5t5.5 27.5v256v1.5v1.5v0.5v1.5q0 18 -10 22.5t-22 4.5h-18v105h280v-105h-21q-14 0 -20.5 -6t-7.5 -13q-1 -2 -1 -3.5v-3.5v-57h20q125 0 198 -29.5t73 -148.5q0 -82 -59 -123t-232 -41h-230v0zM277 117h13h1.5h1.5h11.5t12.5 1q16 3 29 15
t13 45q0 32 -15.5 45.5t-48.5 13.5h-18v-120v0z" />
    <glyph glyph-name="udieresis" unicode="&#x44c;" horiz-adv-x="579" 
d="M47 0v105h18q21 0 26.5 4.5t5.5 27.5v256v1.5v1.5v0.5v1.5q0 18 -10 22.5t-22 4.5h-18v105h280v-105h-21q-14 0 -20.5 -6t-7.5 -13q-1 -2 -1 -3.5v-3.5v-57h20q125 0 198 -29.5t73 -148.5q0 -82 -59 -123t-232 -41h-230v0zM277 117h13h1.5h1.5h11.5t12.5 1q16 3 29 15
t13 45q0 32 -15.5 45.5t-48.5 13.5h-18v-120v0z" />
    <glyph glyph-name="period" unicode="&#xfd;" horiz-adv-x="575" 
d="M224 355h-191q11 79 73 132.5t166 53.5q67 0 111.5 -17t71.5 -37q16 -12 26 -23.5t16 -19.5q21 -28 34.5 -65.5t18.5 -75.5q1 -10 1.5 -19t0.5 -18q0 -21 -4 -58.5t-22 -77.5q-5 -12 -12 -24t-16 -24q-32 -43 -90 -67.5t-125 -24.5q-128 0 -187 54.5t-70 119.5
q-2 10 -2.5 19t-0.5 18h199v-22q0 -30 10.5 -45.5t23.5 -22.5q8 -3 15 -4.5t12 -1.5q38 0 50 31t11 81h-100v117h100v4.5v4.5q0 35 -10.5 58.5t-48.5 23.5q-31 0 -44 -19t-17 -51v0z" />
    <glyph glyph-name="period" unicode="&#x44d;" horiz-adv-x="575" 
d="M224 355h-191q11 79 73 132.5t166 53.5q67 0 111.5 -17t71.5 -37q16 -12 26 -23.5t16 -19.5q21 -28 34.5 -65.5t18.5 -75.5q1 -10 1.5 -19t0.5 -18q0 -21 -4 -58.5t-22 -77.5q-5 -12 -12 -24t-16 -24q-32 -43 -90 -67.5t-125 -24.5q-128 0 -187 54.5t-70 119.5
q-2 10 -2.5 19t-0.5 18h199v-22q0 -30 10.5 -45.5t23.5 -22.5q8 -3 15 -4.5t12 -1.5q38 0 50 31t11 81h-100v117h100v4.5v4.5q0 35 -10.5 58.5t-48.5 23.5q-31 0 -44 -19t-17 -51v0z" />
    <glyph glyph-name="thorn" unicode="&#xfe;" horiz-adv-x="922" 
d="M277 328h87q5 89 84 151t181 62q71 0 119 -23.5t76 -52.5q5 -4 9 -9l8 -10q18 -22 29.5 -48t18.5 -53q5 -21 7.5 -41t2.5 -39q0 -18 -3.5 -53t-18.5 -73q-5 -14 -13 -28.5t-19 -28.5q-30 -38 -76 -60t-95 -29q-11 -1 -22.5 -2t-22.5 -1q-127 0 -193 66.5t-73 154.5h-86
v-74q0 -19 6.5 -25t13.5 -7h5h4h1.5h1.5h4v-105h-266v105h18q14 0 23 5t9 27v256q0 15 -5 23.5t-27 8.5h-18v105h266v-105h-4h-6t-6 -1q-7 -1 -13.5 -7.5t-6.5 -23.5v-65v0zM629 425q-42 0 -52 -41.5t-10 -93.5v-50q0 -85 17 -109.5t45 -24.5q35 0 49 33t12 151
q-1 51 -10 93t-51 42v0z" />
    <glyph glyph-name="thorn" unicode="&#x44e;" horiz-adv-x="922" 
d="M277 328h87q5 89 84 151t181 62q71 0 119 -23.5t76 -52.5q5 -4 9 -9l8 -10q18 -22 29.5 -48t18.5 -53q5 -21 7.5 -41t2.5 -39q0 -18 -3.5 -53t-18.5 -73q-5 -14 -13 -28.5t-19 -28.5q-30 -38 -76 -60t-95 -29q-11 -1 -22.5 -2t-22.5 -1q-127 0 -193 66.5t-73 154.5h-86
v-74q0 -19 6.5 -25t13.5 -7h5h4h1.5h1.5h4v-105h-266v105h18q14 0 23 5t9 27v256q0 15 -5 23.5t-27 8.5h-18v105h266v-105h-4h-6t-6 -1q-7 -1 -13.5 -7.5t-6.5 -23.5v-65v0zM629 425q-42 0 -52 -41.5t-10 -93.5v-50q0 -85 17 -109.5t45 -24.5q35 0 49 33t12 151
q-1 51 -10 93t-51 42v0z" />
    <glyph glyph-name="ydieresis" unicode="&#xff;" horiz-adv-x="612" 
d="M565 530v-105h-17q-17 0 -24.5 -7t-7.5 -22v-1.5v-1.5v-256q0 -22 9 -27t22 -5h18v-105h-271v105h11q13 0 19.5 3.5t9.5 7.5q1 3 1.5 5t0.5 4v78q-3 1 -5.5 1h-4.5q-17 -1 -26 -11t-14 -22q-3 -6 -4.5 -11.5t-2.5 -10.5q-31 -107 -73 -133t-89 -26q-11 0 -21 1l-20 2
q-10 2 -20 5t-21 7v152q3 -1 7 -2l8 -2q2 -1 5 -1h5q20 0 25.5 7.5t9.5 17.5q0 1 0.5 2t0.5 2q11 31 34 47t49 21l14 2t14 1v7q-7 -1 -13 -1.5t-12 -0.5q-63 1 -99.5 41t-36.5 92q0 82 58.5 108.5t127.5 30.5q12 1 24 1h24h285v0zM336 413h-31q-29 0 -47.5 -14t-18.5 -46
q0 -29 21.5 -38.5t61.5 -9.5h14v108v0z" />
    <glyph glyph-name="ydieresis" unicode="&#x44f;" horiz-adv-x="612" 
d="M565 530v-105h-17q-17 0 -24.5 -7t-7.5 -22v-1.5v-1.5v-256q0 -22 9 -27t22 -5h18v-105h-271v105h11q13 0 19.5 3.5t9.5 7.5q1 3 1.5 5t0.5 4v78q-3 1 -5.5 1h-4.5q-17 -1 -26 -11t-14 -22q-3 -6 -4.5 -11.5t-2.5 -10.5q-31 -107 -73 -133t-89 -26q-11 0 -21 1l-20 2
q-10 2 -20 5t-21 7v152q3 -1 7 -2l8 -2q2 -1 5 -1h5q20 0 25.5 7.5t9.5 17.5q0 1 0.5 2t0.5 2q11 31 34 47t49 21l14 2t14 1v7q-7 -1 -13 -1.5t-12 -0.5q-63 1 -99.5 41t-36.5 92q0 82 58.5 108.5t127.5 30.5q12 1 24 1h24h285v0zM336 413h-31q-29 0 -47.5 -14t-18.5 -46
q0 -29 21.5 -38.5t61.5 -9.5h14v108v0z" />
    <glyph glyph-name="amacron" unicode="&#x101;" 
 />
    <glyph glyph-name="OE" unicode="&#x152;" horiz-adv-x="1043" 
d="M743 700v-129h-38h-0.5h-0.5q-14 0 -24 -5t-10 -34v-86q14 1 27.5 1h26.5q143 0 222.5 -52t79.5 -183q0 -117 -87.5 -160.5t-205.5 -51.5h-313v129h5h0.5h0.5q16 0 25 5t10 34v131h-144v-131q0 -29 8.5 -34t25.5 -5h1.5h0.5h4v-129h-322v129h38h0.5h0.5q14 0 24 5t10 34
v364q0 29 -10 34t-24 5h-0.5h-0.5h-38v129h321v-129h-5q-21 0 -27.5 -8.5t-6.5 -31.5v-91h144v91q0 23 -5.5 31.5t-29.5 8.5h-5v129h322v0zM670 296v-157q78 -1 95.5 22.5t17.5 53.5q0 32 -14.5 57t-82.5 24h-7.5h-8.5v0z" />
    <glyph glyph-name="glyph258" unicode="&#x153;" horiz-adv-x="876" 
d="M624 530v-105h-20q-20 0 -25 -10t-5 -22v-52h19h8.5h9.5h42.5t46.5 -3q62 -7 113.5 -42t51.5 -133q0 -74 -55.5 -118.5t-215.5 -44.5h-10.5h-11.5h-213v105h4q18 0 24 6t7 13v3.5v2.5v4v3v74h-117v-74q0 -22 9 -27t22 -5h5v-105h-266v105h18q14 0 23 5t9 27v256
q0 15 -5 23.5t-27 8.5h-18v105h266v-105h-5q-13 0 -22 -5t-9 -27v-65h117v65v3.5v2.5v3.5v3.5q-2 7 -8 13t-23 6h-4v105h265v0zM574 237v-120h12q37 0 51 11t17 25q0 3 0.5 7t0.5 7v4v3v0.5v1.5v1.5v0.5v3v2v0.5v0.5q0 5 -0.5 11t-2.5 13q-4 11 -17 20t-42 9h-19v0z" />
    <glyph glyph-name="perthousand" unicode="&#x160;" horiz-adv-x="1027" 
d="M89 700h638v-129h-25q-36 0 -41.5 -10.5t-5.5 -25.5v-2v-2v-94h10t10 1h9h10q133 -1 224.5 -47t91.5 -189q0 -120 -98 -159.5t-216 -42.5h-11.5h-10.5h-292v129h29h0.5h0.5h5.5h4.5q9 1 16.5 7t7.5 24v400h-114v-19v-20q-1 -10 -1 -20.5v-21.5q-1 -26 -1.5 -53t-1.5 -54
q-1 -53 -5 -104t-11 -93q-3 -16 -8 -37.5t-15 -43.5q-18 -42 -55 -76t-104 -34q-9 0 -18 1t-18 3q-16 3 -31.5 7.5t-27.5 9.5v199q3 -1 7.5 -2t10.5 -2q2 -1 5 -1.5t6 -1.5q7 -1 13.5 -2t11.5 -1q47 0 59.5 48t15.5 106v8t1 9v3.5v3.5q2 36 2.5 52.5t1.5 29.5q0 6 0.5 11.5
t0.5 12.5v8.5v8.5v8.5v8.5q-1 41 -8.5 50t-23.5 9h-6h-6h-37v129v0zM655 296v-155h5.5h4.5q2 -1 4.5 -1h4.5q43 1 68.5 17t25.5 59q0 46 -24 63.5t-71 17.5h-4.5h-4.5q-2 -1 -4.5 -1h-4.5v0z" />
    <glyph glyph-name="eight" unicode="&#x161;" horiz-adv-x="865" 
d="M613 530v-105h-20q-2 0 -6 -0.5t-8 -1.5q-6 -2 -11 -7.5t-5 -16.5v-58h6h5h10.5h16.5h2h2h45t48 -4q59 -8 107.5 -43.5t48.5 -130.5q0 -106 -81.5 -134.5t-209.5 -28.5h-225v105h13q12 0 22 4.5t10 25.5v0.5v0.5v0.5v0.5v276h-90q-1 -22 -2 -38t-1 -30v-6v-6
q-1 -6 -1 -12v-13q-1 -67 -6.5 -122t-20.5 -96q-16 -46 -49 -73t-95 -27q-22 0 -38.5 3.5t-32.5 11.5v152q4 -1 9 -2.5t10 -2.5l12 -2t11 -1q33 0 47.5 36.5t14.5 169.5v6v6v3.5v3.5v3v3v8.5v7.5q0 14 -5.5 21.5t-28.5 7.5h-29v105h525v0zM563 117h13h8.5t9.5 1
q19 1 35 12.5t16 47.5q0 35 -16.5 47t-53.5 12h-6h-6v-120v0z" />
    <glyph glyph-name="greater" unicode="&#x192;" horiz-adv-x="501" 
d="M47 530h425l6 -189h-106l-4 25q-1 3 -1 6t-1 6q-2 16 -9.5 25.5t-40.5 9.5h-39v-276q0 -22 9.5 -27t22.5 -5h28v-105h-290v105h18q14 0 23 5t9 27v256q0 15 -5 23.5t-27 8.5h-18v105v0z" />
    <glyph glyph-name="glyph237" unicode="&#x2c6;" 
 />
    <glyph glyph-name="seven" unicode="&#x2dc;" 
 />
    <glyph glyph-name="dollar" unicode="&#x2013;" horiz-adv-x="647" 
d="M58 276v129h531v-129h-531v0z" />
    <glyph glyph-name="numbersign" unicode="&#x2014;" horiz-adv-x="815" 
d="M58 205v158h699v-158h-699v0z" />
    <glyph glyph-name="four" unicode="&#x2018;" horiz-adv-x="350" 
d="M192 509v-6q53 -4 82 -41.5t29 -81.5v-4v-4q-3 -42 -35 -76.5t-86 -34.5q-8 0 -16.5 1t-16.5 3q-39 10 -70.5 46.5t-31.5 112.5q0 66 31 125.5t68 104.5q15 19 30 35t28 28l83 -60q-9 -12 -16 -21.5t-13 -18.5q-1 -1 -2 -2.5t-2 -2.5l-6 -10t-7 -10q-5 -8 -10 -15t-9 -14
q-3 -4 -5.5 -8.5t-5.5 -8.5q-4 -8 -9 -17t-10 -20v0z" />
    <glyph glyph-name="quoteright" unicode="&#x2019;" horiz-adv-x="350" 
d="M157 470v4q-52 6 -81 43t-29 82v5.5v5.5q4 40 35 73.5t87 33.5t95 -40.5t39 -121.5q0 -35 -25 -110.5t-132 -183.5l-83 61q35 47 54.5 77.5t33.5 57.5q1 3 2.5 6.5t3.5 6.5v0z" />
    <glyph glyph-name="parenleft" unicode="&#x201a;" horiz-adv-x="373" 
d="M170 -15v4q-51 7 -81.5 43.5t-30.5 81.5v2.5v3.5q2 42 35.5 77t86.5 35t94 -38.5t41 -123.5q0 -55 -33.5 -130t-124.5 -163l-82 60q27 38 45.5 65.5t33.5 53.5q4 7 8 14.5t8 15.5v-1z" />
    <glyph glyph-name="oe" unicode="&#x201c;" horiz-adv-x="700" 
d="M204 509v-6q53 -4 82 -41.5t29 -81.5v-4v-4q-3 -42 -35.5 -76.5t-86.5 -34.5q-55 0 -95 41.5t-40 121.5q0 46 30.5 122.5t127.5 170.5l83 -60q-29 -41 -46 -65t-29 -45q-3 -5 -6.5 -11t-6.5 -12q-1 -3 -3 -7l-4 -8v0zM530 509v-6q50 -4 80 -39.5t32 -77.5v-2.5v-3.5
q0 -4 -0.5 -8.5t-0.5 -8.5q-6 -38 -38 -70t-83 -32q-56 0 -95.5 41.5t-39.5 121.5q0 45 19.5 97.5t58.5 106.5q17 22 37 44.5t43 44.5l82 -60q-12 -17 -23 -31.5t-20 -29.5q-5 -7 -10.5 -15t-10.5 -16q-7 -12 -15 -26t-16 -30v0z" />
    <glyph glyph-name="B" unicode="&#x201d;" horiz-adv-x="700" 
d="M170 470v4q-51 6 -81.5 43t-30.5 82q0 44 33.5 81t88.5 37q53 0 94 -38t41 -124q0 -55 -33.5 -130t-124.5 -164l-82 61q27 37 45.5 64.5t33.5 53.5q4 7 8 14.5t8 15.5v0zM496 470v4q-52 6 -81.5 43t-29.5 82q0 44 32.5 81t89.5 37q56 0 95.5 -40.5t39.5 -121.5
q0 -82 -45.5 -154t-112.5 -140l-83 61q17 23 30.5 41.5t25.5 35.5q10 15 18.5 30t16.5 33l2 4l2 4v0z" />
    <glyph glyph-name="quotedblbase" unicode="&#x201e;" horiz-adv-x="700" 
d="M170 -15v4q-51 7 -81.5 43.5t-30.5 81.5v2.5v3.5q2 42 35.5 77t86.5 35t94 -38.5t41 -123.5q0 -55 -33.5 -130t-124.5 -163l-82 60q27 38 45.5 65.5t33.5 53.5q4 7 8 14.5t8 15.5v-1zM496 -15v4q-52 7 -81.5 43t-29.5 82q0 54 38 86t84 32q56 0 95.5 -41t39.5 -121
q0 -81 -45.5 -153t-112.5 -140l-83 60q17 24 30.5 42.5t25.5 35.5q10 15 18.5 30t16.5 33l2 4l2 4v-1z" />
    <glyph glyph-name="glyph233" unicode="&#x2020;" horiz-adv-x="880" 
d="M335 -247l1 572l-219 -6v152l219 -6l-6 271h219l-5 -271l219 6v-152l-220 6v-572h-208v0z" />
    <glyph glyph-name="glyph236" unicode="&#x2021;" horiz-adv-x="760" 
d="M643 506h-162q-3 41 -13.5 57t-45.5 16q-36 0 -48 -18.5t-12 -50.5v-6.5t1 -5.5q0 -7 1.5 -17.5t3.5 -36.5h149v-140h-141v-46q0 -13 -4 -42.5t-20 -61.5q-1 -2 -2.5 -4.5t-2.5 -4.5l4 -9q9 11 21.5 20t25.5 14q5 2 10 3t10 1q7 0 16 -2t18 -5t17 -6.5t15 -6.5l3 -1.5
t2 -1.5q4 -2 9 -5.5t10 -7.5q2 -1 3.5 -2t3.5 -2q7 -5 13.5 -8t11.5 -3v0v0q2 0 6.5 0.5t9.5 4.5q6 5 11 17t5 35v3.5v3.5q-1 1 -1 3v4h119q1 -7 1 -14v-15q0 -14 -1.5 -29.5t-4.5 -31.5q-9 -46 -41 -83.5t-102 -37.5q-33 0 -63 6.5t-59 12.5q-3 1 -5.5 1.5t-4.5 1.5
q-29 8 -62 14.5t-71 6.5q-14 0 -25.5 -1.5t-23.5 -4.5q-20 -5 -43.5 -14t-61.5 -23l-34 107q44 34 60.5 80t16.5 101v16.5t-1 16.5h-95v140h90v7.5v7.5q0 136 57.5 189t126.5 64q16 3 31 4t30 1q47 0 109.5 -14.5t128.5 -78.5v-118v0z" />
    <glyph glyph-name="glyph257" unicode="&#x2022;" horiz-adv-x="431" 
d="M58 334q0 71 49.5 114t108.5 43t108 -43t49 -114q0 -70 -48 -113.5t-106 -44.5h-1.5h-1.5h-5.5h-5.5q-55 5 -101 48t-46 110v0z" />
    <glyph glyph-name="glyph232" unicode="&#x2026;" horiz-adv-x="1050" 
d="M47 117v2.5v3.5q2 46 36 84t92 38q59 0 93.5 -40t34.5 -88q0 -50 -34.5 -88.5t-93.5 -38.5t-93.5 39t-34.5 88v0zM397 117q0 48 35 88t93 40t92 -38t36 -84v-3.5v-2.5q0 -49 -34.5 -88t-93.5 -39q-58 0 -93 38.5t-35 88.5v0zM747 117q0 59 40 93.5t88 34.5t88 -34.5
t40 -93.5q0 -49 -34.5 -88t-93.5 -39q-58 0 -93 39t-35 88v0z" />
    <glyph glyph-name="v" unicode="&#x2030;" horiz-adv-x="1396" 
d="M310 -132l-97 58l423 848l98 -58l-424 -848v0zM560 143q0 16 2 37t9 43q13 44 50.5 80t115.5 36q91 0 133.5 -53.5t42.5 -142.5q0 -88 -42 -141t-134 -53q-78 0 -115 35.5t-51 78.5q-6 22 -8.5 43t-2.5 37v0zM737 247q-18 0 -25 -13t-9 -29q-1 -7 -1 -13.5v-11.5v-1.5
v-0.5v-70v-1.5v-0.5v-8v-9q1 -18 7 -33.5t27 -15.5q23 0 28.5 17t5.5 38v5v5v1.5v1.5v70v2.5v2.5v11.5t-1 13.5q-1 14 -8 26.5t-24 12.5v0zM985 143q0 88 42.5 142t134.5 54q79 0 116 -36.5t50 -80.5q6 -21 8 -42t2 -37t-2 -37t-9 -42q-12 -44 -49 -79.5t-116 -35.5
q-92 0 -134.5 53.5t-42.5 140.5v0zM1162 247q-18 0 -25 -13t-9 -28q-1 -7 -1 -14v-12v-1.5v-0.5v-70v-8v-8q1 -20 7 -36t26 -16q23 0 28.5 17t5.5 38v5v5v1.5v1.5v70v2v2v11.5t-1 13.5q-1 15 -7.5 27.5t-23.5 12.5v0zM58 524q0 16 2 37t9 43q13 44 50.5 80t115.5 36
q98 0 135.5 -55t40.5 -120q1 -6 1 -11v-10q0 -103 -45 -144.5t-99 -49.5q-8 -1 -16.5 -1.5t-16.5 -0.5q-78 0 -115.5 36t-50.5 80q-7 22 -9 43t-2 37v0zM235 627h-2.5h-3.5q-10 0 -19 -10t-9 -59v-69q0 -50 9 -59t24 -9q13 0 23.5 9.5t10.5 58.5v69q0 49 -9.5 59t-20.5 10
h-1.5h-1.5v0z" />
    <glyph glyph-name="glyph243" unicode="&#x2039;" horiz-adv-x="484" 
d="M58 306l199 286l134 -40l-143 -258l108 -270l-126 -24l-172 306v0z" />
    <glyph glyph-name="less" unicode="&#x203a;" horiz-adv-x="484" 
d="M426 306l-171 -306l-126 24l108 270l-144 258l135 40l198 -286v0z" />
    <glyph glyph-name="six" unicode="&#x2122;" horiz-adv-x="1026" 
d="M134 325v75h20h2h1h1.5h1.5t3.5 0.5t5.5 2.5l0.5 0.5t1.5 0.5q3 2 4 5t1 13v196h-13q-19 0 -23 -9t-5 -20v-0.5v-1.5q0 -2 -0.5 -5t-0.5 -5l-2 -12h-74v135h363l1 -135h-74l-1 9v4.5v4.5q0 19 -6 27t-24 8h-14v-196q0 -8 1.5 -11.5t3.5 -5.5l1.5 -1.5t1.5 -0.5l1.5 -1.5
t1.5 -0.5t2 -0.5t3 -0.5h1.5h0.5h0.5h0.5h0.5h1.5h1.5h0.5h20v-75h-212v0zM471 700h188l67 -147l53 147h189v-74h-13q-10 0 -16 -4t-6 -19v-181q0 -15 6 -18.5t16 -3.5h13v-75h-184v75h6q7 0 11 4.5t4 9.5v126h-7l-65 -181h-54l-89 181v-118q0 -7 1.5 -10.5t3.5 -5.5
l1.5 -1.5t1.5 -0.5l0.5 -0.5t1.5 -0.5q1 -1 3 -2t6 -1h7v-75h-145v75h12q12 0 16.5 4.5t5.5 9.5q1 2 1 4v4v181q0 13 -5 18t-18 5h-12v74v0z" />
    <glyph glyph-name="periodcentered" unicode="&#x2219;" horiz-adv-x="350" 
d="M47 338v1.5v1.5q1 47 35.5 86.5t92.5 39.5q59 0 93.5 -40t34.5 -89q0 -48 -34.5 -88t-93.5 -40q-58 0 -92 38t-36 84v3.5v2.5v0z" />
    <glyph glyph-name="s" 
 />
    <glyph glyph-name="backslash" 
 />
    <glyph glyph-name="nine" 
 />
    <glyph glyph-name="colon" 
 />
    <glyph glyph-name="Y" 
 />
    <glyph glyph-name="X" 
 />
    <glyph glyph-name="asciicircum" 
 />
    <glyph glyph-name="semicolon" 
 />
    <glyph glyph-name="equal" 
 />
    <glyph glyph-name="exclam" 
 />
    <glyph glyph-name="five" 
 />
    <glyph glyph-name="Q" 
 />
    <glyph glyph-name="quotedblright" 
 />
    <glyph glyph-name="hyphen" 
 />
    <glyph glyph-name="space" 
 />
    <glyph glyph-name="E" 
 />
    <glyph glyph-name="M" 
 />
    <glyph glyph-name="plus" 
 />
    <glyph glyph-name="glyph229" 
 />
    <glyph glyph-name="glyph230" 
 />
    <glyph glyph-name="glyph231" 
 />
    <glyph glyph-name="glyph234" 
 />
    <glyph glyph-name="glyph235" 
 />
    <glyph glyph-name="glyph238" 
 />
    <glyph glyph-name="glyph239" 
 />
    <glyph glyph-name="glyph240" 
 />
    <glyph glyph-name="glyph241" 
 />
    <glyph glyph-name="glyph242" 
 />
    <glyph glyph-name="glyph244" 
 />
    <glyph glyph-name="glyph245" 
 />
    <glyph glyph-name="glyph246" 
 />
    <glyph glyph-name="glyph247" 
 />
    <glyph glyph-name="glyph248" 
 />
    <glyph glyph-name="glyph249" 
 />
    <glyph glyph-name="glyph250" 
 />
    <glyph glyph-name="glyph251" 
 />
    <glyph glyph-name="glyph252" 
 />
    <glyph glyph-name="glyph253" 
 />
    <glyph glyph-name="glyph254" 
 />
    <glyph glyph-name="glyph255" 
 />
    <glyph glyph-name="glyph256" 
 />
    <glyph glyph-name="glyph267" 
 />
    <glyph glyph-name="glyph268" 
 />
    <glyph glyph-name="glyph269" 
 />
    <glyph glyph-name="glyph270" 
 />
    <glyph glyph-name="glyph271" 
 />
    <glyph glyph-name="glyph272" 
 />
    <glyph glyph-name="glyph273" 
 />
    <glyph glyph-name="glyph274" 
 />
    <glyph glyph-name="glyph275" 
 />
    <glyph glyph-name="glyph276" 
 />
    <glyph glyph-name="glyph277" 
 />
    <glyph glyph-name="glyph278" 
 />
    <glyph glyph-name="glyph279" 
 />
    <glyph glyph-name="glyph280" 
 />
    <glyph glyph-name="glyph281" 
 />
    <glyph glyph-name="glyph282" 
 />
    <glyph glyph-name="glyph283" 
 />
    <glyph glyph-name="glyph284" 
 />
    <glyph glyph-name="glyph285" 
 />
    <glyph glyph-name="glyph286" 
 />
    <glyph glyph-name="glyph287" 
 />
    <glyph glyph-name="glyph288" 
 />
    <glyph glyph-name="glyph289" 
 />
    <glyph glyph-name="glyph290" 
 />
    <glyph glyph-name="glyph291" 
 />
    <glyph glyph-name="glyph292" 
 />
    <glyph glyph-name="glyph293" 
 />
    <glyph glyph-name="glyph294" 
 />
    <glyph glyph-name="glyph295" 
 />
    <glyph glyph-name="glyph296" 
 />
    <glyph glyph-name="glyph297" 
 />
    <glyph glyph-name="glyph298" 
 />
    <glyph glyph-name="glyph299" 
 />
    <glyph glyph-name="glyph300" 
 />
    <glyph glyph-name="glyph301" 
 />
    <glyph glyph-name="glyph302" 
 />
    <glyph glyph-name="glyph303" 
 />
    <glyph glyph-name="glyph304" 
 />
    <glyph glyph-name="glyph305" 
 />
    <glyph glyph-name="glyph306" 
 />
    <glyph glyph-name="glyph307" 
 />
    <glyph glyph-name="glyph308" 
 />
    <glyph glyph-name="glyph309" 
 />
    <glyph glyph-name="glyph310" 
 />
    <glyph glyph-name="glyph311" 
 />
    <glyph glyph-name="glyph312" 
 />
    <glyph glyph-name="glyph313" 
 />
    <glyph glyph-name="glyph314" 
 />
    <glyph glyph-name="glyph315" 
 />
    <glyph glyph-name="glyph316" 
 />
    <glyph glyph-name="glyph317" 
 />
    <glyph glyph-name="glyph318" 
 />
    <glyph glyph-name="glyph319" 
 />
    <glyph glyph-name="glyph320" 
 />
    <glyph glyph-name="glyph321" 
 />
    <glyph glyph-name="glyph322" 
 />
    <glyph glyph-name="glyph323" 
 />
    <glyph glyph-name="glyph324" 
 />
    <glyph glyph-name="glyph325" 
 />
    <glyph glyph-name="glyph326" 
 />
    <glyph glyph-name="glyph327" 
 />
    <glyph glyph-name="glyph328" 
 />
    <glyph glyph-name="glyph329" 
 />
    <glyph glyph-name="glyph330" 
 />
    <glyph glyph-name="glyph331" 
 />
    <glyph glyph-name="glyph332" 
 />
    <glyph glyph-name="glyph333" 
 />
    <glyph glyph-name="glyph334" 
 />
    <glyph glyph-name="glyph335" 
 />
    <glyph glyph-name="glyph336" 
 />
    <glyph glyph-name="glyph337" 
 />
    <glyph glyph-name="glyph338" 
 />
    <glyph glyph-name="glyph339" 
 />
    <glyph glyph-name="glyph340" 
 />
    <glyph glyph-name="glyph341" 
 />
    <glyph glyph-name="glyph342" 
 />
    <glyph glyph-name="glyph343" 
 />
    <glyph glyph-name="glyph344" 
 />
    <glyph glyph-name="glyph345" 
 />
    <glyph glyph-name="glyph346" 
 />
    <glyph glyph-name="glyph347" 
 />
    <glyph glyph-name="glyph348" 
 />
    <glyph glyph-name="glyph349" 
 />
    <glyph glyph-name="glyph350" 
 />
    <glyph glyph-name="glyph351" 
 />
    <glyph glyph-name="glyph352" 
 />
    <glyph glyph-name="glyph353" 
 />
    <glyph glyph-name="glyph354" 
 />
    <glyph glyph-name="glyph355" 
 />
    <glyph glyph-name="glyph356" 
 />
    <glyph glyph-name="glyph357" 
 />
    <glyph glyph-name="glyph358" 
 />
    <glyph glyph-name="glyph359" 
 />
    <glyph glyph-name="glyph360" 
 />
    <glyph glyph-name="glyph361" 
 />
    <glyph glyph-name="glyph362" 
 />
    <glyph glyph-name="glyph363" 
 />
    <glyph glyph-name="glyph364" 
 />
    <glyph glyph-name="glyph365" 
 />
    <glyph glyph-name="glyph366" 
 />
    <glyph glyph-name="glyph367" 
 />
    <glyph glyph-name="glyph368" 
 />
    <glyph glyph-name="glyph369" 
 />
    <glyph glyph-name="glyph370" 
 />
    <glyph glyph-name="glyph371" 
 />
    <glyph glyph-name="glyph372" 
 />
    <glyph glyph-name="glyph373" 
 />
    <glyph glyph-name="glyph374" 
 />
    <glyph glyph-name="glyph375" 
 />
    <glyph glyph-name="glyph376" 
 />
    <glyph glyph-name="glyph377" 
 />
    <glyph glyph-name="glyph378" 
 />
    <glyph glyph-name="glyph379" 
 />
    <glyph glyph-name="glyph380" 
 />
    <glyph glyph-name="glyph381" 
 />
    <glyph glyph-name="glyph382" 
 />
    <glyph glyph-name="glyph383" 
 />
    <glyph glyph-name="glyph384" 
 />
    <glyph glyph-name="glyph385" 
 />
    <glyph glyph-name="glyph386" 
 />
    <glyph glyph-name="glyph387" 
 />
    <glyph glyph-name="glyph388" 
 />
    <glyph glyph-name="glyph389" 
 />
    <glyph glyph-name="glyph390" 
 />
    <glyph glyph-name="glyph391" 
 />
    <glyph glyph-name="glyph392" 
 />
    <glyph glyph-name="glyph393" 
 />
    <glyph glyph-name="glyph394" 
 />
    <glyph glyph-name="glyph395" 
 />
    <glyph glyph-name="glyph396" 
 />
    <glyph glyph-name="glyph397" 
 />
    <glyph glyph-name="glyph398" 
 />
    <glyph glyph-name="glyph399" 
 />
    <glyph glyph-name="glyph400" 
 />
    <glyph glyph-name="glyph401" 
 />
    <glyph glyph-name="glyph402" 
 />
    <glyph glyph-name="glyph403" 
 />
    <glyph glyph-name="glyph404" 
 />
    <glyph glyph-name="glyph405" 
 />
    <glyph glyph-name="glyph406" 
 />
    <glyph glyph-name="glyph407" 
 />
    <glyph glyph-name="glyph408" 
 />
    <glyph glyph-name="glyph409" 
 />
    <glyph glyph-name="glyph410" 
 />
    <glyph glyph-name="glyph411" 
 />
    <glyph glyph-name="glyph412" 
 />
    <glyph glyph-name="glyph413" 
 />
    <glyph glyph-name="glyph414" 
 />
    <glyph glyph-name="glyph415" 
 />
    <glyph glyph-name="glyph416" 
 />
    <glyph glyph-name="glyph417" 
 />
    <glyph glyph-name="glyph418" 
 />
    <glyph glyph-name="glyph419" 
 />
    <glyph glyph-name="glyph420" 
 />
    <glyph glyph-name="glyph421" 
 />
    <glyph glyph-name="glyph422" 
 />
    <glyph glyph-name="glyph423" 
 />
    <glyph glyph-name="glyph424" 
 />
    <glyph glyph-name="glyph425" 
 />
    <glyph glyph-name="glyph426" 
 />
    <glyph glyph-name="glyph427" 
 />
    <glyph glyph-name="glyph428" 
 />
    <glyph glyph-name="glyph429" 
 />
    <glyph glyph-name="glyph430" 
 />
    <glyph glyph-name="glyph431" 
 />
    <glyph glyph-name="glyph432" 
 />
    <glyph glyph-name="glyph433" 
 />
    <glyph glyph-name="glyph434" 
 />
    <glyph glyph-name="glyph435" 
 />
    <glyph glyph-name="glyph436" 
 />
    <glyph glyph-name="glyph437" 
 />
    <glyph glyph-name="glyph438" 
 />
    <glyph glyph-name="glyph439" 
 />
    <glyph glyph-name="glyph440" 
 />
    <glyph glyph-name="glyph441" 
 />
    </font>
</defs>
</svg>
